<svg xmlns="http://www.w3.org/2000/svg" width="56" height="56" viewBox="0 0 56 56">
  <g fill="none" fill-rule="evenodd">
    <path fill="#999" d="M55.9960471,28.0713506 C55.9960471,43.4627859 43.5192471,55.9395859 28.1278118,55.9395859 C12.7363765,55.9395859 0.259576471,43.4627859 0.259576471,28.0713506 C0.259576471,12.6799153 12.7363765,0.203115294 28.1278118,0.203115294 C43.5192471,0.203115294 55.9960471,12.6799153 55.9960471,28.0713506 Z"/>
    <path fill="#FFFFFE" d="M13.1784471,30.7455153 C13.3741176,30.6855624 13.5691294,30.5953035 13.7344941,30.5953035 C13.9743059,30.5953035 14.1403294,30.7903153 14.1403294,31.0762447 L14.1403294,31.1210447 C14.1403294,31.4063153 14.0046118,31.6322918 13.5539765,31.7825035 C13.1632941,31.9175624 12.5328,32.0526212 11.8107294,32.0526212 C9.46729412,32.0526212 8.10023529,30.5201976 8.10023529,28.0713506 C8.10023529,25.3517271 9.45214118,23.8641035 11.8858353,23.8641035 C12.4721882,23.8641035 13.1632941,23.9991624 13.5243294,24.1197271 C13.9150118,24.2396329 14.1100235,24.4201506 14.1100235,24.7502212 L14.1100235,24.8108329 C14.1100235,25.1112565 13.9446588,25.3062682 13.7041882,25.3062682 C13.5388235,25.3062682 13.3438118,25.2160094 13.1481412,25.1560565 C12.8925176,25.0809506 12.4267294,24.9458918 11.9609412,24.9458918 C10.4436706,24.9458918 9.57270588,25.9677271 9.57270588,27.9659388 C9.57270588,29.63408 10.3382588,30.9563388 11.9312941,30.9563388 C12.4267294,30.9563388 12.9228235,30.8206212 13.1784471,30.7455153 Z M41.7381176,31.3163859 C41.7381176,31.7222212 41.4673412,31.9778447 41.0318588,31.9778447 C40.6108706,31.9778447 40.3256,31.7222212 40.3256,31.3163859 L40.3256,24.6003388 C40.3256,24.1800094 40.6108706,23.9395388 41.0318588,23.9395388 C41.4673412,23.9395388 41.7381176,24.1800094 41.7381176,24.6003388 L41.7381176,31.3163859 Z M20.4195765,26.4334494 L20.4195765,31.3166494 C20.4195765,31.7224847 20.1639529,31.9781082 19.7284706,31.9781082 C19.2923294,31.9781082 19.0222118,31.7224847 19.0222118,31.3166494 L19.0222118,24.5702965 C19.0222118,24.1796141 19.2923294,23.9391435 19.7133176,23.9391435 C20.1336471,23.9391435 20.3747765,24.1796141 20.3747765,24.5702965 L20.3747765,25.2462494 L20.4195765,25.2462494 C20.9604706,24.4352376 21.4111059,23.8640376 22.2076235,23.8640376 C22.5983059,23.8640376 22.9738353,23.9239906 23.2294588,24.0445553 C23.4844235,24.1644612 23.6049882,24.3449788 23.6049882,24.6908612 L23.6049882,24.7356612 C23.6049882,25.0960376 23.4692706,25.3213553 23.2143059,25.3213553 C23.0944,25.3213553 22.9738353,25.2765553 22.8084706,25.2310965 C22.568,25.1711435 22.3275294,25.1111906 22.0574118,25.1111906 C21.4862118,25.1111906 20.9907765,25.5466729 20.4195765,26.4334494 Z M29.3739765,30.7455153 C29.5696471,30.6855624 29.7646588,30.5953035 29.9300235,30.5953035 C30.1698353,30.5953035 30.3358588,30.7903153 30.3358588,31.0762447 L30.3358588,31.1210447 C30.3358588,31.4063153 30.2001412,31.6322918 29.7495059,31.7825035 C29.3588235,31.9175624 28.7276706,32.0526212 28.0062588,32.0526212 C25.6628235,32.0526212 24.2957647,30.5201976 24.2957647,28.0713506 C24.2957647,25.3517271 25.6476706,23.8641035 28.0820235,23.8641035 C28.6677176,23.8641035 29.3588235,23.9991624 29.7192,24.1197271 C30.1098824,24.2396329 30.3055529,24.4201506 30.3055529,24.7502212 L30.3055529,24.8108329 C30.3055529,25.1112565 30.1401882,25.3062682 29.8997176,25.3062682 C29.7343529,25.3062682 29.5393412,25.2160094 29.3436706,25.1560565 C29.0887059,25.0809506 28.6222588,24.9458918 28.1571294,24.9458918 C26.6392,24.9458918 25.7675765,25.9677271 25.7675765,27.9659388 C25.7675765,29.63408 26.5344471,30.9563388 28.1268235,30.9563388 C28.6222588,30.9563388 29.1183529,30.8206212 29.3739765,30.7455153 Z M31.5968471,24.6002729 C31.5968471,24.1799435 31.8669647,23.9394729 32.3182588,23.9394729 C32.7240941,23.9394729 33.0093647,24.1799435 33.0093647,24.6002729 L33.0093647,29.0927906 C33.0093647,30.4750024 33.7301176,30.8959906 34.5272941,30.8959906 C35.4134118,30.8959906 36.3449882,30.2345318 36.7956235,29.6040376 L36.7956235,24.6002729 C36.7956235,24.1799435 37.0657412,23.9394729 37.5163765,23.9394729 C37.9228706,23.9394729 38.2081412,24.1799435 38.2081412,24.6002729 L38.2081412,31.3314729 C38.2081412,31.7373082 37.9373647,31.9777788 37.5163765,31.9777788 C37.0960471,31.9777788 36.8404235,31.7373082 36.8404235,31.3314729 L36.8404235,30.7457788 L36.7956235,30.7457788 C36.2843765,31.3466259 35.3528,32.0680376 34.0456941,32.0680376 C32.5284235,32.0680376 31.5968471,31.1364612 31.5968471,29.1830494 L31.5968471,24.6002729 Z M15.5067294,24.6004706 C15.5067294,24.1946353 15.7768471,23.9390118 16.2129882,23.9390118 C16.6339765,23.9390118 16.9185882,24.1946353 16.9185882,24.6004706 L16.9185882,31.3165176 C16.9185882,31.7375059 16.6339765,31.9779765 16.2129882,31.9779765 C15.7768471,31.9779765 15.5067294,31.7375059 15.5067294,31.3165176 L15.5067294,24.6004706 Z M45.7043012,29.5886212 C45.7043012,30.5505035 46.0646776,30.9253741 46.7406306,30.9253741 C46.9962541,30.9253741 47.2215718,30.8812329 47.4020894,30.8509271 C47.5371482,30.8054682 47.6274071,30.7909741 47.7176659,30.7909741 C47.9581365,30.7909741 48.0931953,30.9708329 48.0931953,31.2864094 L48.0931953,31.3015624 C48.0931953,31.6619388 47.8975247,31.8576094 47.5068424,31.9327153 C47.2215718,31.9926682 46.8012424,32.0677741 46.3499482,32.0677741 C45.0731482,32.0677741 44.2917835,31.4669271 44.2917835,29.7994447 L44.2917835,25.1112565 L43.4952659,25.1112565 C43.1645365,25.1112565 42.9695247,24.9010918 42.9695247,24.5552094 C42.9695247,24.22448 43.1645365,24.0143153 43.4952659,24.0143153 L44.2917835,24.0143153 L44.2917835,21.8737976 C44.2917835,21.4528094 44.5770541,21.2123388 44.9980424,21.2123388 C45.4335247,21.2123388 45.7043012,21.4528094 45.7043012,21.8737976 L45.7043012,24.0143153 L47.3118306,24.0143153 C47.6274071,24.0143153 47.8224188,24.22448 47.8224188,24.5552094 C47.8224188,24.9010918 47.6274071,25.1112565 47.3118306,25.1112565 L45.7043012,25.1112565 L45.7043012,29.5886212 Z"/>
    <path fill="#000" d="M32.7092706 35.1731388C32.3126588 35.1731388 32.0128941 35.3958212 31.8238118 35.6521035L31.8238118 36.9045271C31.9694118 37.1318212 32.3080471 37.3591153 32.6559059 37.3591153 33.1058824 37.3591153 33.4978824 37.0738447 33.4978824 36.2562447 33.4978824 35.49728 33.1104941 35.1731388 32.7092706 35.1731388L32.7092706 35.1731388zM31.8238118 37.4559624C31.8238118 37.5139388 31.7809882 37.5481976 31.7124706 37.5481976 31.6498824 37.5481976 31.5971765 37.5139388 31.5971765 37.4559624L31.5971765 34.0603859C31.5971765 34.0070212 31.6452706 33.9688094 31.7124706 33.9688094 31.7809882 33.9688094 31.8238118 34.0070212 31.8238118 34.0603859L31.8238118 35.3813271 31.8389647 35.3813271C32.0175059 35.1586447 32.2889412 34.9603388 32.7283765 34.9603388 33.2462118 34.9603388 33.7297882 35.3615624 33.7297882 36.2615153 33.7297882 37.1897976 33.2416 37.5719153 32.6657882 37.5719153 32.3080471 37.5719153 32.0076235 37.4078682 31.8389647 37.1561976L31.8238118 37.1561976 31.8238118 37.4559624zM33.9314541 35.17808C33.91696 35.1490918 33.9024659 35.1201035 33.9024659 35.0858447 33.9024659 35.0377506 33.9459482 34.9843859 34.0230306 34.9843859 34.0665129 34.9843859 34.0955012 35.0041506 34.1152659 35.0469741L35.0870306 37.1466447 35.9626071 35.0621271C35.9869835 35.0041506 36.0159718 34.9843859 36.0647247 34.9843859 36.1418071 34.9843859 36.1806776 35.0377506 36.1806776 35.0904565 36.1806776 35.1049506 36.1754071 35.1247153 36.1707953 35.1392094L35.1746541 37.5241506C34.8893835 38.2014212 34.6864659 38.5881506 34.2411012 38.5881506 34.12976 38.5881506 34.0230306 38.5637741 33.9696659 38.5393976 33.8971953 38.5104094 33.8734776 38.4623153 33.8734776 38.4096094L33.8734776 38.4043388C33.8734776 38.3463624 33.9024659 38.3167153 33.9314541 38.3167153 33.9604424 38.3167153 33.98416 38.3318682 34.0329129 38.3509741 34.0810071 38.3707388 34.1442541 38.3898447 34.2312188 38.3898447 34.5118776 38.3898447 34.6713129 38.1526682 34.98096 37.4417976L33.9314541 35.17808zM38.0773647 35.0766212C38.0773647 35.0179859 38.1254588 34.9843859 38.1939765 34.9843859 38.2519529 34.9843859 38.3099294 35.0179859 38.3099294 35.0766212L38.3099294 36.6386918C38.3099294 37.1710212 38.6143059 37.3594447 38.9331765 37.3594447 39.2816941 37.3594447 39.6348235 37.1130447 39.8048 36.8857506L39.8048 35.0766212C39.8048 35.0179859 39.8528941 34.9843859 39.9200941 34.9843859 39.9780706 34.9843859 40.0367059 35.0179859 40.0367059 35.0766212L40.0367059 37.4562918C40.0367059 37.5142682 39.9780706 37.5485271 39.9200941 37.5485271 39.8528941 37.5485271 39.8048 37.5142682 39.8048 37.4562918L39.8048 37.1420329 39.7896471 37.1420329C39.6203294 37.3403388 39.3008 37.5775153 38.8850824 37.5775153 38.4015059 37.5775153 38.0773647 37.27248 38.0773647 36.63408L38.0773647 35.0766212zM42.6621176 37.4562918C42.6621176 37.5142682 42.6179765 37.5478682 42.5507765 37.5478682 42.4881882 37.5478682 42.4348235 37.5142682 42.4348235 37.4562918L42.4348235 35.8988329C42.4348235 35.3665035 42.1297882 35.1734682 41.8109176 35.1734682 41.4577882 35.1734682 41.1092706 35.4251388 40.9353412 35.6524329L40.9353412 37.4562918C40.9353412 37.5142682 40.8912 37.5478682 40.824 37.5478682 40.7614118 37.5478682 40.7080471 37.5142682 40.7080471 37.4562918L40.7080471 35.0766212C40.7080471 35.0179859 40.7614118 34.9843859 40.824 34.9843859 40.8912 34.9843859 40.9353412 35.0179859 40.9353412 35.0766212L40.9353412 35.3954918 40.9498353 35.3954918C41.1237647 35.1971859 41.4380235 34.9606682 41.8537412 34.9606682 42.3425882 34.9606682 42.6621176 35.2650447 42.6621176 35.9034447L42.6621176 37.4562918zM43.5432941 37.4562918C43.5432941 37.5142682 43.4998118 37.5478682 43.4319529 37.5478682 43.3693647 37.5478682 43.3166588 37.5142682 43.3166588 37.4562918L43.3166588 35.0766212C43.3166588 35.0179859 43.3693647 34.9843859 43.4319529 34.9843859 43.4998118 34.9843859 43.5432941 35.0179859 43.5432941 35.0766212L43.5432941 37.4562918zM43.4372235 33.9783624C43.5241882 33.9783624 43.5913882 34.0462212 43.5913882 34.1331859 43.5913882 34.2201506 43.5241882 34.2880094 43.4372235 34.2880094 43.3496 34.2880094 43.2824 34.2201506 43.2824 34.1331859 43.2824 34.0462212 43.3496 33.9783624 43.4372235 33.9783624zM44.6277176 37.4562918C44.6277176 37.5142682 44.5842353 37.5478682 44.5163765 37.5478682 44.4531294 37.5478682 44.4004235 37.5142682 44.4004235 37.4562918L44.4004235 35.2215624 44.0565176 35.2215624C43.9992 35.2215624 43.9649412 35.17808 43.9649412 35.1148329 43.9649412 35.0522447 43.9992 35.0087624 44.0565176 35.0087624L44.4004235 35.0087624 44.4004235 34.8295624C44.4004235 34.1957741 44.6422118 33.9203859 45.0388235 33.9203859 45.1745412 33.9203859 45.3003765 33.9447624 45.3629647 33.96848 45.4499294 33.9974682 45.4789176 34.0462212 45.4789176 34.0995859L45.4789176 34.1041976C45.4789176 34.1621741 45.4453176 34.1911624 45.4064471 34.1911624 45.3675765 34.1911624 45.3385882 34.1766682 45.2806118 34.1575624 45.2180235 34.1377976 45.1402824 34.1186918 45.0335529 34.1186918 44.7726588 34.1186918 44.6277176 34.3558682 44.6277176 34.8341741L44.6277176 35.0087624 45.2081412 35.0087624C45.2661176 35.0087624 45.3003765 35.0522447 45.3003765 35.1148329 45.3003765 35.17808 45.2661176 35.2215624 45.2081412 35.2215624L44.6277176 35.2215624 44.6277176 37.4562918zM45.5642353 35.17808C45.5490824 35.1490918 45.5352471 35.1201035 45.5352471 35.0858447 45.5352471 35.0377506 45.5787294 34.9843859 45.6558118 34.9843859 45.6999529 34.9843859 45.7289412 35.0041506 45.7480471 35.0469741L46.7204706 37.1466447 47.5953882 35.0621271C47.6197647 35.0041506 47.6487529 34.9843859 47.6968471 34.9843859 47.7745882 34.9843859 47.8134588 35.0377506 47.8134588 35.0904565 47.8134588 35.1049506 47.8081882 35.1247153 47.8035765 35.1392094L46.8074353 37.5241506C46.5215059 38.2014212 46.3185882 38.5881506 45.8732235 38.5881506 45.7618824 38.5881506 45.6558118 38.5637741 45.6024471 38.5393976 45.5299765 38.5104094 45.5056 38.4623153 45.5056 38.4096094L45.5056 38.4043388C45.5056 38.3463624 45.5352471 38.3167153 45.5642353 38.3167153 45.5925647 38.3167153 45.6169412 38.3318682 45.6656941 38.3509741 45.7137882 38.3707388 45.7770353 38.3898447 45.864 38.3898447 46.144 38.3898447 46.3040941 38.1526682 46.6137412 37.4417976L45.5642353 35.17808z"/>
  </g>
</svg>
