<svg xmlns="http://www.w3.org/2000/svg" width="56" height="56" viewBox="0 0 56 56"><path fill="#666" d="M27.9995625,0 C12.5353594,0 0,12.536125 0,28 C0,43.463875 12.5354687,56 27.9995625,56 C43.4644219,56 56,43.463875 56,28 C56,12.536125 43.4644219,0 27.9995625,0 Z M34.6485781,40.3279844 C30.6094688,46.68125 23.9404375,47.6947187 17.7183125,44.6344062 C13.6223281,42.5498281 10.6682188,36.5577187 13.3996406,31.9181406 C15.1667031,28.9168906 18.1882969,29.2348437 19.1031094,29.1944844 C22.3246406,29.1605781 28.4564219,29.2313438 28.4564219,29.2313438 C29.7022031,29.2771719 30.576875,29.9997031 30.8725156,30.7297812 C31.0815313,31.2441719 31.0954219,31.700375 30.8663906,32.5547031 C30.3762813,34.0395781 28.7749219,34.6641094 27.1132969,34.7487656 C26.6905625,34.7688906 22.0011094,34.7174844 21.5269688,34.7022812 C21.051625,34.6877344 20.4176875,34.755875 20.4435,35.4249219 C20.4642813,35.9807656 20.8925938,36.04825 19.996375,38.660125 C19.9846719,38.6953437 19.9214531,38.8094219 19.8971719,38.9056719 C19.8581593,39.0637058 19.921598,39.2293271 20.0562031,39.3208594 C20.1934688,39.4167812 20.4641719,39.3279687 20.5185313,39.3055469 C20.6253906,39.2620156 20.6836875,39.2042656 20.7378281,39.1535156 C21.4525938,38.4678438 21.5326563,36.1431875 21.8122188,35.8711719 C22.115625,35.5755313 22.7624688,35.685125 24.3978438,35.6940938 C24.3978438,35.6940938 25.7452344,35.6892813 26.7717188,35.6940938 C28.83825,35.7025156 31.1008906,35.1396719 31.8589688,32.6754531 C32.2082031,31.5456094 32.0379063,30.7681719 31.6721563,30.0545 C31.1537188,29.0452969 29.845375,28.3288906 28.6563594,28.2242188 C27.7704219,28.1631875 21.5283906,28.2025625 20.3353281,28.2025625 C19.6736094,28.2068281 17.1131406,28.2164531 16.5675781,27.8341875 C16.4016563,27.71825 16.2191094,27.4746719 16.2191094,27.0553281 C16.2191094,26.2065781 16.6917188,25.1415938 17.5108281,23.7145781 C18.6846406,21.6703594 23.9530156,13.657 25.4363594,11.1187344 C26.7161563,8.9271875 28.4486563,8.23604688 29.8682344,9.09201563 C31.5432031,10.0990313 30.80175,12.2708906 29.9432656,13.7069844 C29.9432656,13.7069844 27.5448906,17.5473594 24.8699063,22.0916719 C24.8157656,22.1804844 24.8935313,22.5643906 25.1898281,22.7435469 C25.4884219,22.9225938 25.8909219,22.8457031 25.9520625,22.7435469 C29.0136875,17.6404375 29.5578281,16.7609531 32.2844375,12.3034844 C33.5338281,10.2635313 34.8915,9.00703125 36.5193281,9.9885625 C38.0157969,10.8895938 37.7893906,12.4812188 36.5193281,14.6052813 C33.7176875,19.2862031 30.1477969,25.1577813 30.0986875,25.2388281 C30.0485938,25.3215156 30.1325938,25.7143906 30.4770156,25.9260313 C30.8226406,26.137125 31.1384063,25.9703281 31.1848906,25.8934375 C33.5594219,21.9410625 36.0395,17.8764688 36.3893906,17.2914219 C37.4479219,15.5211875 38.8016563,13.6514219 40.7825469,14.8139688 C42.6810781,15.9295938 41.640375,17.9653906 40.6,19.7158281 C40.3451563,20.1427188 37.1913281,25.3158281 34.6311875,29.5956719 C34.6042813,29.6400781 34.6950625,30.044875 35.0019688,30.2357344 C35.3093125,30.4258281 35.68775,30.2842969 35.7118125,30.2432812 C37.4210156,27.38575 38.609375,25.4352656 39.5240781,23.9678906 C40.4391094,22.500625 41.6022031,21.0589531 43.3680625,22.1022813 C45.1340313,23.1455 44.1731719,25.2860781 43.540875,26.338375 C42.9092344,27.388375 38.6404375,34.0505156 34.6485781,40.3279844 Z"/></svg>