<svg xmlns="http://www.w3.org/2000/svg" xmlns:xlink="http://www.w3.org/1999/xlink" width="80" height="20" viewBox="0 0 80 20">
  <defs>
    <linearGradient id="client-logo-unify-a" x1="49.982%" x2="49.982%" y1="100%" y2="0%">
      <stop offset="0%" stop-color="#7ACA2A"/>
      <stop offset="50%" stop-color="#E0E90A"/>
      <stop offset="100%" stop-color="#7ACA2A"/>
    </linearGradient>
    <path id="client-logo-unify-b" d="M46.099397,38.5550003 L49.9000277,38.5550003 L49.9000277,57.4449997 L46.099397,57.4449997 L46.099397,38.5550003 Z M58.8790823,38.5559592 L58.8791207,38.5559592 L68.9469467,38.5559592 L68.9469467,41.798108 L59.5887303,41.798108 C58.1723879,41.798108 57.5011356,42.6170358 57.5011356,43.9959799 L57.5011356,47.3464879 L66.1641263,47.3464879 L66.1228539,50.7113799 L57.5010972,50.7113799 L57.5010972,57.4449997 L53.7008501,57.4449997 L53.7008501,43.8089882 C53.7008501,41.0904162 55.3396647,38.5559592 58.8790823,38.5559592 Z M87.9932136,38.5559592 L87.9932136,52.1929297 C87.9932136,54.9134195 86.3534401,57.4449997 82.8130635,57.4449997 L72.7471554,57.4449997 L72.7471554,54.2047688 L82.1063307,54.2047688 C83.5217142,54.2047688 84.1920076,53.385841 84.1920076,52.005938 L84.1920076,50.7209693 L77.9253876,50.7209693 C74.38597,50.7209693 72.7471554,48.1874712 72.7471554,45.4669814 L72.7471554,38.5559592 L76.5483614,38.5559592 L76.5483614,45.2809486 C76.5483614,46.6598927 77.2186548,47.4788205 78.6340383,47.4788205 L84.1920076,47.4788205 L84.1920076,38.5559592 L87.9932136,38.5559592 Z M23.2518857,57.4449997 L13.1859776,57.4449997 C9.64560102,57.4449997 8.00678641,54.9134195 8.00678641,52.1929297 L8.00678641,38.5559592 L11.8070335,38.5559592 L11.8070335,52.005938 C11.8070335,53.385841 12.4782858,54.2047688 13.8936693,54.2047688 L19.4516386,54.2047688 L19.4516386,38.5559592 L23.2518857,38.5559592 L23.2518857,57.4449997 Z M37.1199587,38.5559592 C40.6593763,38.5559592 42.298191,41.0904162 42.298191,43.8089882 L42.298191,57.4449997 L38.4979439,57.4449997 L38.4979439,43.9959799 C38.4979439,42.6170358 37.8276505,41.798108 36.412267,41.798108 L30.8542977,41.798108 L30.8542977,57.4449997 L27.0530917,57.4449997 L27.0530917,38.5559592 L37.1199587,38.5559592 L37.1199587,38.5559592 Z"/>
  </defs>
  <g fill="none" transform="translate(-8 -38)">
    <use fill="url(#client-logo-unify-a)" fill-rule="evenodd" xlink:href="#client-logo-unify-b"/>
    <use fill="#666" fill-rule="evenodd" xlink:href="#client-logo-unify-b"/>
  </g>
</svg>
