<?xml version="1.0" encoding="UTF-8"?>
<svg width="42px" height="39px" viewBox="0 0 42 39" version="1.1" xmlns="http://www.w3.org/2000/svg" xmlns:xlink="http://www.w3.org/1999/xlink">
    <!-- Generator: Sketch 55.2 (78181) - https://sketchapp.com -->
    <title>client-logo-netbreeze</title>
    <desc>Created with Sketch.</desc>
    <defs>
        <linearGradient x1="50%" y1="0%" x2="50%" y2="100%" id="linearGradient-1">
            <stop stop-color="#BFBFBF" offset="0%"></stop>
            <stop stop-color="#666666" offset="100%"></stop>
        </linearGradient>
    </defs>
    <g id="Page-1" stroke="none" stroke-width="1" fill="none" fill-rule="evenodd">
        <g id="client-logo-netbreeze" fill-rule="nonzero">
            <path d="M5.1052115,38.5024702 L3.75844428,38.5024702 L1.58447484,34.721951 L1.55371112,34.721951 C1.59700842,35.389641 1.61865675,35.8659042 1.61865675,36.1507548 L1.61865675,38.5024702 L0.671817861,38.5024702 L0.671817861,33.505075 L2.00833052,33.505075 L4.17888176,37.2479941 L4.2028091,37.2479941 C4.16862702,36.5985346 4.15153623,36.1393622 4.15153623,35.8704632 L4.15153623,33.505075 L5.1052115,33.505075 L5.1052115,38.5024702 Z M9.59874576,38.5024702 L6.72062899,38.5024702 L6.72062899,33.505075 L9.59874576,33.505075 L9.59874576,34.3732955 L7.78026818,34.3732955 L7.78026818,35.4705348 L9.4722727,35.4705348 L9.4722727,36.3387553 L7.78026818,36.3387553 L7.78026818,37.6274133 L9.59874576,37.6274133 L9.59874576,38.5024702 Z M12.9266769,38.5024702 L11.8670377,38.5024702 L11.8670377,34.3869683 L10.5100159,34.3869683 L10.5100159,33.505075 L14.2836987,33.505075 L14.2836987,34.3869683 L12.9266769,34.3869683 L12.9266769,38.5024702 Z M15.4103149,33.505075 L16.9655918,33.505075 C17.6743002,33.505075 18.1887328,33.6059107 18.508905,33.8075849 C18.8290771,34.0092592 18.9891608,34.3299963 18.9891608,34.7698057 C18.9891608,35.0683292 18.9190886,35.3132971 18.7789421,35.5047167 C18.6387955,35.6961364 18.452506,35.8112143 18.2200678,35.849954 L18.2200678,35.8841359 C18.5368218,35.9547789 18.7652686,36.0869476 18.9054151,36.2806461 C19.0455617,36.4743445 19.1156339,36.7318457 19.1156339,37.0531572 C19.1156339,37.5089183 18.9509927,37.8644066 18.6217053,38.1196328 C18.2924179,38.374859 17.8452091,38.5024702 17.2800653,38.5024702 L15.4103149,38.5024702 L15.4103149,33.505075 Z M16.4699541,35.4842076 L17.0852285,35.4842076 C17.3723579,35.4842076 17.5802958,35.4397716 17.7090483,35.3508981 C17.8378008,35.2620247 17.9021761,35.115044 17.9021761,34.9099515 C17.9021761,34.7185319 17.8321039,34.5812359 17.6919573,34.4980595 C17.5518108,34.4148831 17.3302003,34.3732955 17.0271192,34.3732955 L16.4699541,34.3732955 L16.4699541,35.4842076 Z M16.4699541,36.3250826 L16.4699541,37.6274133 L17.1604287,37.6274133 C17.4521157,37.6274133 17.6674596,37.5715834 17.8064667,37.459922 C17.9454739,37.3482605 18.0149764,37.1773527 18.0149764,36.9471933 C18.0149764,36.5324507 17.7187361,36.3250826 17.1262467,36.3250826 L16.4699541,36.3250826 Z M21.530908,36.5848651 L21.530908,38.5024702 L20.4712688,38.5024702 L20.4712688,33.505075 L21.9274182,33.505075 C22.6065022,33.505075 23.1089712,33.6286984 23.4348404,33.8759488 C23.7607096,34.1231991 23.9236417,34.4986267 23.9236417,35.0022427 C23.9236417,35.2962086 23.8427453,35.5576976 23.6809501,35.7867175 C23.519155,36.0157374 23.2901385,36.1951907 22.9938938,36.3250826 C23.7458995,37.4485336 24.2358353,38.1743222 24.4637159,38.5024702 L23.2878582,38.5024702 L22.0949095,36.5848651 L21.530908,36.5848651 Z M21.530908,35.723481 L21.8727271,35.723481 C22.2077115,35.723481 22.4549582,35.6676511 22.6144746,35.5559896 C22.7739909,35.4443281 22.8537479,35.2688628 22.8537479,35.0295882 C22.8537479,34.7925924 22.7722819,34.6239634 22.6093473,34.5236959 C22.4464127,34.4234285 22.1940388,34.3732955 21.852218,34.3732955 L21.530908,34.3732955 L21.530908,35.723481 Z M28.328303,38.5024702 L25.4501862,38.5024702 L25.4501862,33.505075 L28.328303,33.505075 L28.328303,34.3732955 L26.5098254,34.3732955 L26.5098254,35.4705348 L28.2018299,35.4705348 L28.2018299,36.3387553 L26.5098254,36.3387553 L26.5098254,37.6274133 L28.328303,37.6274133 L28.328303,38.5024702 Z M32.6064912,38.5024702 L29.7283744,38.5024702 L29.7283744,33.505075 L32.6064912,33.505075 L32.6064912,34.3732955 L30.7880136,34.3732955 L30.7880136,35.4705348 L32.4800182,35.4705348 L32.4800182,36.3387553 L30.7880136,36.3387553 L30.7880136,37.6274133 L32.6064912,37.6274133 L32.6064912,38.5024702 Z M37.2640986,38.5024702 L33.5451069,38.5024702 L33.5451069,37.8154138 L35.9412587,34.3801319 L33.6100525,34.3801319 L33.6100525,33.505075 L37.199153,33.505075 L37.199153,34.1887132 L34.8064194,37.6274133 L37.2640986,37.6274133 L37.2640986,38.5024702 Z M41.2961771,38.5024702 L38.4180604,38.5024702 L38.4180604,33.505075 L41.2961771,33.505075 L41.2961771,34.3732955 L39.4776995,34.3732955 L39.4776995,35.4705348 L41.1697041,35.4705348 L41.1697041,36.3387553 L39.4776995,36.3387553 L39.4776995,37.6274133 L41.2961771,37.6274133 L41.2961771,38.5024702 Z" id="Shape" fill="#666666"></path>
            <path d="M8.75013001,0.5 L33.2517226,0.5 C34.3563639,0.5 35.2518526,1.39548871 35.2518526,2.50013001 L35.2518526,27.0017226 C35.2518526,28.1063639 34.3563639,29.0018526 33.2517226,29.0018526 L8.75013001,29.0018526 C7.64548871,29.0018526 6.75,28.1063639 6.75,27.0017226 L6.75,2.50013001 C6.75,1.39548871 7.64548871,0.5 8.75013001,0.5 Z" id="Path" fill="url(#linearGradient-1)"></path>
            <path d="M24.7511701,4.75027627 L24.7511701,18.9600898 L16.2019275,7.93847243 C16.0480859,7.74014105 15.8543583,7.59097083 15.6408294,7.49349907 C15.3799941,7.33907509 15.0756081,7.25043878 14.75052,7.25043878 L14.75052,7.25043878 L14.75052,7.25043878 C13.7839589,7.25043878 13.0004063,8.0339914 13.0004063,9.00055254 L13.0004063,9.00055254 L13.0004063,9.00055254 L13.0004063,20.5013001 C13.0004063,21.4678612 13.7839589,22.2514139 14.75052,22.2514139 L14.75052,22.2514139 C15.7170812,22.2514139 16.5006338,21.4678612 16.5006338,20.5013001 L16.5006338,13.3699327 L25.2974864,24.6293906 L25.3611191,24.5796753 C25.9807178,25.1127069 26.9100731,25.1530239 27.5787615,24.6305873 L27.5787615,24.6305873 C28.0251869,24.2818016 28.2563459,23.7596058 28.2514754,23.2337357 L28.2514754,4.75027627 C28.2514754,3.78371513 27.467845,3.00016251 26.5012838,3.00016251 L26.5012838,3.00016251 L26.5012838,3.00016251 C25.5347227,3.00016251 24.7511701,3.78371513 24.7511701,4.75027627 L24.7511701,4.75027627 L24.7511701,4.75027627 Z" id="Path" fill="#FFFFFF"></path>
        </g>
    </g>
</svg>