<?xml version="1.0" encoding="UTF-8"?>
<svg width="88px" height="16px" viewBox="0 0 88 16" version="1.1" xmlns="http://www.w3.org/2000/svg" xmlns:xlink="http://www.w3.org/1999/xlink">
    <!-- Generator: Sketch 55.2 (78181) - https://sketchapp.com -->
    <title>client-logo-collectai</title>
    <desc>Created with Sketch.</desc>
    <g id="Page-1" stroke="none" stroke-width="1" fill="none" fill-rule="evenodd">
        <g id="client-logo-collectai" fill="#666666">
            <path d="M2.80565309,7.0859126 C2.45109189,7.4689653 2.17455995,7.9185569 1.97646764,8.4358598 C1.77790633,8.9531627 1.67883087,9.5091578 1.67883087,10.1044314 L1.67883087,10.1465824 C1.67883087,10.741856 1.78183418,11.2978511 1.98731318,11.815154 C2.19214731,12.3324569 2.47618319,12.7854487 2.83754484,13.1753019 C3.19890649,13.5650964 3.62340676,13.8695923 4.11227677,14.0892584 C4.60114679,14.3089832 5.13609569,14.4187869 5.7171821,14.4187869 C6.425132,14.4187869 7.0522973,14.2628457 7.5980331,13.9509631 C8.0362515,13.7005777 8.431205,13.3858812 8.8005396,13.034134 C8.8557639,13.1952342 8.9064155,13.3573897 8.9713129,13.5144448 C9.1033354,13.8348865 9.2586904,14.1404962 9.4254186,14.4387193 C9.0549115,14.7625026 8.6605442,15.0498801 8.2353991,15.2900648 C7.5343082,15.6867184 6.6664306,15.8848107 5.63241102,15.8848107 C4.82421315,15.8848107 4.07704343,15.7327973 3.38955348,15.4277738 C2.70264978,15.1238642 2.10737623,14.7129649 1.6048467,14.1950757 C1.10178955,13.678359 0.70853615,13.0728262 0.42508652,12.3779495 C0.14169551,11.6842454 0,10.9540768 0,10.1892025 L0,10.1465824 C0,9.3674623 0.14169551,8.6304346 0.42508652,7.9362029 C0.70853615,7.2424401 1.10178955,6.6329208 1.6048467,6.1087588 C2.10737623,5.5846554 2.70264978,5.1703558 3.38955348,4.8652737 C4.07704343,4.5608365 4.82421315,4.4083541 5.63241102,4.4083541 C6.1559281,4.4083541 6.6311386,4.4578332 7.0562251,4.5568501 C7.4813703,4.6564531 7.8706372,4.7941622 8.2251984,4.9717359 C8.5791734,5.1487234 8.905243,5.3576026 9.2028798,5.598315 C9.2928099,5.6717715 9.3673803,5.7548425 9.4538515,5.8305267 C9.2745776,6.1486235 9.1078494,6.4752794 8.9672678,6.8190537 C8.8956286,6.9948687 8.838118,7.1758426 8.7783209,7.3557027 C8.3845399,6.9721224 7.9667815,6.6284067 7.513262,6.3421431 C6.9959591,6.016601 6.3614071,5.8538007 5.61071994,5.8538007 C5.05812505,5.8538007 4.54082214,5.9631355 4.05939744,6.1828016 C3.57732787,6.4029954 3.15962805,6.7035047 2.80565309,7.0859126 Z M21.1255864,6.0978546 C21.6355026,6.6152162 22.0322149,7.2172902 22.3156059,7.9047801 C22.5989969,8.5922114 22.740751,9.3252526 22.740751,10.1043141 L22.740751,10.1469928 C22.740751,10.9261129 22.5955967,11.6630819 22.3053466,12.3567861 C22.0145689,13.0517213 21.6144564,13.6605958 21.1045988,14.1848164 C20.5940964,14.7088611 19.9851047,15.123747 19.2765685,15.4282428 C18.568091,15.73268 17.8026304,15.8852211 16.9814179,15.8852211 C16.1590915,15.8852211 15.4010176,15.73268 14.7073135,15.4282428 C14.0130231,15.123747 13.4109491,14.7128476 12.9004466,14.1955447 C12.3905304,13.6782418 11.9938768,13.0761678 11.7104271,12.3886778 C11.4270361,11.7017741 11.2853406,10.9687915 11.2853406,10.1890852 L11.2853406,10.1469928 C11.2853406,9.3679313 11.4270361,8.6309036 11.7104271,7.936027 C11.9938768,7.2423228 12.3905304,6.6328035 12.9004466,6.1086416 C13.4109491,5.5845382 14.0164233,5.1702386 14.718159,4.8651565 C15.4192499,4.5607779 16.1875244,4.4082369 17.0235689,4.4082369 C17.8453677,4.4082369 18.6073694,4.5607779 19.3084603,4.8651565 C20.0096097,5.1702386 20.6157288,5.581138 21.1255864,6.0978546 Z M21.0618615,10.1890852 L21.0618615,10.1469928 C21.0618615,9.5517192 20.9588582,8.9957241 20.7534379,8.4784212 C20.5479588,7.9611183 20.2611676,7.5080679 19.8929469,7.1182733 C19.5241986,6.7284202 19.092253,6.4205827 18.5965825,6.1934713 C18.1002672,5.9670047 17.5619181,5.8537421 16.9814179,5.8537421 C16.3861443,5.8537421 15.8404085,5.9670047 15.3447381,6.1934713 C14.8484227,6.4205827 14.4273227,6.7250199 14.0802068,7.1074278 C13.7330323,7.4898943 13.4599006,7.9400721 13.2618083,8.4568474 C13.063247,8.9746779 12.9641715,9.5232863 12.9641715,10.1043141 L12.9641715,10.1469928 C12.9641715,10.7416801 13.0671748,11.2977338 13.2725952,11.8150367 C13.4780742,12.3323397 13.7614652,12.7819312 14.1228855,13.1643391 C14.4836609,13.5473918 14.9122062,13.851829 15.4084629,14.0783542 C15.9041334,14.3054071 16.4425411,14.4186697 17.0235689,14.4186697 C17.6188425,14.4186697 18.1640507,14.3054071 18.6603074,14.0783542 C19.1559778,13.851829 19.5810644,13.5473918 19.9356256,13.1643391 C20.2896005,12.7819312 20.5656048,12.3357985 20.7642248,11.8258237 C20.9623171,11.3153212 21.0618615,10.7702302 21.0618615,10.1890852 Z M29.8418826,0.1152206 L31.6288757,0.1152206 L25.5457593,15.6299699 L23.7582385,15.6299699 L29.8418826,0.1152206 Z M34.4634307,0.1152206 L36.2504238,0.1152206 L30.1673074,15.6299699 L28.3803142,15.6299699 L34.4634307,0.1152206 Z M44.6567135,6.1086416 C45.0954595,6.6327449 45.4284469,7.2491233 45.6554997,7.9576008 C45.8819663,8.666137 45.9958151,9.4242109 45.9958151,10.2317639 L45.9958151,10.4758764 C45.9958151,10.5686205 45.9884284,10.6778966 45.9747689,10.805405 L37.2607005,10.805405 C37.3170387,11.387019 37.4587928,11.9037357 37.6852594,12.3567861 C37.9123708,12.8103055 38.2025623,13.1933582 38.5571235,13.5045959 C38.9111571,13.8164784 39.3077521,14.0537906 39.747143,14.2165909 C40.1864753,14.3799189 40.6468537,14.4612897 41.1288647,14.4612897 C41.893739,14.4612897 42.5488096,14.3195356 43.0945454,14.0361446 C43.6397536,13.7527536 44.1394105,13.3771462 44.5929886,12.9093223 L45.6133486,13.8233375 C45.0608124,14.447044 44.4296606,14.9467595 43.7216521,15.321722 C43.0125883,15.6973295 42.1344514,15.8851625 41.086186,15.8851625 C40.3349712,15.8851625 39.6264351,15.7468672 38.9606362,15.4702766 C38.2947787,15.1942723 37.7137509,14.8050054 37.2180218,14.301362 C36.7218237,13.7988911 36.3285703,13.1933582 36.0388479,12.4842358 C35.7480702,11.7762859 35.6029158,10.9966382 35.6029158,10.1469342 C35.6029158,9.3530993 35.7338244,8.605871 35.9962278,7.9046629 C36.2579278,7.2029858 36.6227483,6.5940527 37.0905721,6.0767498 C37.5583959,5.5594469 38.114391,5.152534 38.7591437,4.854311 C39.4033687,4.5572604 40.1085046,4.4081782 40.8739652,4.4081782 C41.6815182,4.4081782 42.4036552,4.5606607 43.0416661,4.8651565 C43.679032,5.17018 44.2173812,5.5844796 44.6567135,6.1086416 Z M37.2607005,9.4668895 L44.3374442,9.4668895 C44.2953518,8.9734468 44.1889483,8.5050954 44.0187612,8.0617766 C43.8491605,7.6178716 43.6187074,7.2269046 43.3284573,6.8888169 C43.037621,6.5507878 42.683646,6.2827564 42.2659462,6.0858366 C41.8476601,5.8883892 41.369577,5.7899586 40.8312279,5.7899586 C40.3634627,5.7899586 39.9241305,5.8815301 39.5132311,6.0642628 C39.1023317,6.2480507 38.74097,6.5047089 38.4296738,6.8359376 C38.1177912,7.1671662 37.8589053,7.557547 37.6539539,8.0088387 C37.4485335,8.4595441 37.3170387,8.9455415 37.2607005,9.4668895 Z M55.5583565,13.951139 C56.1035647,13.6392565 56.5964212,13.2499895 57.0357534,12.7822243 L58.0771597,13.7599644 C57.5240372,14.383026 56.8974582,14.8935284 56.1957811,15.2896544 C55.4946316,15.686308 54.626754,15.8849866 53.5926758,15.8849866 C52.7851814,15.8849866 52.0373668,15.7324455 51.3504631,15.4279497 C50.6629731,15.1234539 50.0676996,14.7131407 49.5651701,14.1952516 C49.0621129,13.6785349 48.6689181,13.0730021 48.3854685,12.3781254 C48.1020775,11.6843626 47.9603234,10.9542527 47.9603234,10.1893783 L47.9603234,10.1467583 C47.9603234,9.3676382 48.1020775,8.6306105 48.3854685,7.9363201 C48.6689181,7.242616 49.0621129,6.6330967 49.5651701,6.1084071 C50.0676996,5.5848313 50.6629731,5.1699455 51.3504631,4.8654496 C52.0373668,4.5610124 52.7851814,4.4084714 53.5926758,4.4084714 C54.1162515,4.4084714 54.591462,4.4580091 55.0165485,4.5570259 C55.4416937,4.656629 55.8309606,4.7943381 56.1855218,4.9719118 C56.5394967,5.1488993 56.8655664,5.3577785 57.1632618,5.5984908 C57.4603123,5.8397894 57.7369029,6.0947475 57.9918024,6.3638928 L56.9082451,7.5112336 C56.4689714,7.0576556 55.9903607,6.6683886 55.4735268,6.342319 C54.9562825,6.0167769 54.3217305,5.8534489 53.5710433,5.8534489 C53.0184484,5.8534489 52.5011455,5.9632527 52.0197208,6.1829188 C51.5377099,6.4026436 51.1199514,6.7036806 50.7660351,7.0861471 C50.4114153,7.4685549 50.1354109,7.9187328 49.936791,8.4360357 C49.7381711,8.9533386 49.6391542,9.5093337 49.6391542,10.104021 L49.6391542,10.1467583 C49.6391542,10.7420318 49.7422162,11.2979683 49.9476365,11.8153299 C50.1530569,12.3326328 50.4364479,12.7855659 50.7978682,13.1754777 C51.1592885,13.5652723 51.5837887,13.8697681 52.0731864,14.088848 C52.5614702,14.3091004 53.0964191,14.4189628 53.6775055,14.4189628 C54.3860416,14.4189628 55.0126207,14.2630215 55.5583565,13.951139 Z M62.7622568,1.3265208 L62.7622568,4.6603224 L66.2480718,4.6603224 L66.2480718,6.1058276 L62.7622568,6.1058276 L62.7622568,12.4893948 C62.7622568,13.1677393 62.932268,13.6411911 63.2722903,13.9092224 C63.6123126,14.1778401 64.0584454,14.3121489 64.6112747,14.3121489 C64.8944313,14.3121489 65.1600004,14.2860023 65.4085684,14.2318919 C65.655964,14.1784263 65.9215331,14.0850961 66.2052759,13.9513149 L66.2052759,15.3536138 C65.9215331,15.5095551 65.6207893,15.6268041 65.3018718,15.7041885 C64.9835405,15.7821592 64.6253446,15.8214376 64.2284565,15.8214376 C63.7893587,15.8214376 63.3784007,15.7645132 62.9961687,15.6512506 C62.6133505,15.5380466 62.2838806,15.3576003 62.007759,15.1095012 C61.7316375,14.8614022 61.5153129,14.5392603 61.3593717,14.1426067 C61.2034304,13.7458945 61.126046,13.2707426 61.126046,12.7180891 L61.126046,6.1058276 L59.5959456,6.1058276 L59.5959456,4.6603224 L61.126046,4.6603224 L61.126046,1.3265208 L62.7622568,1.3265208 Z M75.6807598,0.6463589 L77.2536561,0.6463589 L84.0335839,15.6301457 L82.2273619,15.6301457 L80.4838681,11.6983153 L72.3872333,11.6983153 L70.623221,15.6301457 L68.9014184,15.6301457 L75.6807598,0.6463589 Z M73.0461731,10.188968 L79.8255146,10.188968 L76.4463963,2.6017804 L73.0461731,10.188968 Z M86.3234583,15.6300285 L86.3234583,0.6461831 L88.002465,0.6461831 L88.002465,15.6300285 L86.3234583,15.6300285 Z" id="Shape"></path>
        </g>
    </g>
</svg>