<svg xmlns="http://www.w3.org/2000/svg" width="72" height="26" viewBox="0 0 72 26">
  <path fill="#666" d="M12,35.989418 L83.9965124,35.989418 L83.9965124,60.0094184 L12,60.0094184 L12,35.989418 Z M54.368318,49.851116 L62.1563005,49.851116 L62.1563005,55.9883849 L65.8174988,55.9883849 L65.8174988,49.851116 L73.6478073,49.851116 L67.3623975,55.9883849 L72.0182567,55.9883849 L80.0178691,48.0099354 L72.0394196,40.0103229 L67.3835605,40.0103229 L73.6478073,46.1475917 L65.8174988,46.1475917 L65.8174988,40.0103229 L62.1986265,40.0103229 L62.1986265,46.1475917 L54.368318,46.1475917 L60.6325648,40.0103229 L55.9767057,40.0103229 L47.9982562,48.0099354 L55.9767057,56.0095479 L60.6325648,56.0095479 L54.368318,49.851116 Z" transform="translate(-12 -35)"/>
</svg>
