<?xml version="1.0" encoding="UTF-8" standalone="no"?>
<svg width="363px" height="31px" viewBox="0 0 363 31" version="1.1" xmlns="http://www.w3.org/2000/svg" xmlns:xlink="http://www.w3.org/1999/xlink" xmlns:sketch="http://www.bohemiancoding.com/sketch/ns">
    <!-- Generator: Sketch 3.3.2 (12043) - http://www.bohemiancoding.com/sketch -->
    <title>Slice 1</title>
    <desc>Created with Sketch.</desc>
    <defs></defs>
    <g id="Page-1" stroke="none" stroke-width="1" fill="none" fill-rule="evenodd" sketch:type="MSPage">
        <g id="STuDR_4CM" sketch:type="MSLayerGroup">
            <path d="M351.051,30.103 C342.329,30.103 338.088,25.531 338.088,16.127 C338.088,5.374 345.491,1.543 352.418,1.543 C356.981,1.543 360.245,2.961 361.077,3.363 L361.077,8.01 C359.65,7.5 355.719,6.21 352.418,6.21 C349.414,6.21 344.374,7.471 344.374,15.925 C344.374,22.358 346.524,25.485 350.949,25.485 C353.747,25.485 355.91,24.99 356,24.969 C356.183,24.928 356.31,24.765 356.31,24.58 L356.31,17.949 C356.31,17.728 356.131,17.549 355.91,17.549 L351.463,17.549 L351.037,13.185 L362.596,13.185 L362.596,28.614 C361.242,28.915 355.656,30.103 351.051,30.103 L351.051,30.103 Z M59.878,30.103 C51.757,30.103 48.737,27.109 48.737,19.062 L48.737,2.048 L55.023,2.048 L55.023,19.012 C55.023,23.611 56.43,25.485 59.878,25.485 C63.279,25.485 64.731,23.55 64.731,19.012 L64.731,2.048 L71.02,2.048 L71.02,19.062 C71.02,26.698 67.583,30.103 59.878,30.103 L59.878,30.103 Z M8.553,30.103 C5.149,30.103 1.553,29.092 0.548,28.788 L0.548,23.802 C1.934,24.216 5.73,25.283 8.047,25.283 C10.831,25.283 13.406,24.873 13.406,21.897 C13.406,19.625 11.585,18.924 9.657,18.184 L7.078,17.17 C3.949,15.95 0.752,14.1 0.752,9.646 C0.752,4.118 4.132,1.543 11.388,1.543 C15.299,1.543 17.932,2.545 18.681,2.87 L18.681,7.552 C17.472,7.122 14.489,6.16 11.894,6.16 C9.586,6.16 6.939,6.493 6.939,9.089 C6.939,11.229 8.883,11.97 10.943,12.754 L13.42,13.713 C16.455,14.882 19.694,16.538 19.694,21.391 C19.694,29.046 14.34,30.103 8.553,30.103 L8.553,30.103 Z M201.633,30.001 C196.728,30.001 194.136,26.288 194.136,19.265 C194.136,9.574 199.945,8.528 202.441,8.528 C204.744,8.528 206.165,9.69 206.806,10.385 C206.883,10.468 206.988,10.512 207.098,10.512 C207.147,10.512 207.197,10.504 207.244,10.485 C207.398,10.425 207.498,10.277 207.498,10.113 L207.498,1.239 L210.344,1.239 L210.344,29.598 L208.32,29.598 L207.938,27.613 C207.908,27.459 207.791,27.338 207.643,27.301 C207.609,27.293 207.575,27.289 207.542,27.289 C207.426,27.289 207.311,27.34 207.234,27.434 C206.604,28.206 204.795,30.001 201.633,30.001 L201.633,30.001 Z M202.848,10.766 C198.898,10.766 196.981,13.545 196.981,19.265 C196.981,26.791 199.742,27.804 202.441,27.804 C204.414,27.804 206.2,26.677 207.354,25.73 C207.446,25.653 207.498,25.541 207.498,25.42 L207.498,12.746 C207.498,12.623 207.442,12.509 207.347,12.432 C206.712,11.931 205.004,10.766 202.848,10.766 L202.848,10.766 Z M153.283,30.001 C149.549,30.001 147.811,28.133 147.811,24.124 L147.811,8.933 L150.656,8.933 L150.656,23.315 C150.656,25.841 151.241,27.521 154.093,27.521 C156.832,27.521 159.688,25.26 159.809,25.165 C159.904,25.09 159.958,24.973 159.958,24.852 L159.958,8.933 L162.804,8.933 L162.804,29.598 L160.589,29.598 L160.198,27.139 C160.173,26.987 160.065,26.862 159.917,26.818 C159.879,26.808 159.84,26.802 159.803,26.802 C159.692,26.802 159.584,26.848 159.507,26.931 C159.478,26.962 156.662,30.001 153.283,30.001 L153.283,30.001 Z M331.721,29.598 L325.42,29.598 L318.397,16.844 C316.857,14.011 314.992,9.684 314.973,9.641 C314.906,9.491 314.761,9.397 314.604,9.397 C314.569,9.397 314.532,9.403 314.495,9.414 C314.301,9.47 314.179,9.661 314.21,9.861 C314.218,9.913 315.017,15.045 315.017,19.415 L315.017,29.598 L308.728,29.598 L308.728,2.048 L315.383,2.048 L321.85,13.537 C323.689,16.767 325.455,21.191 325.472,21.235 C325.534,21.391 325.682,21.487 325.842,21.487 C325.877,21.487 325.91,21.483 325.946,21.475 C326.142,21.422 326.269,21.231 326.239,21.031 C326.233,20.975 325.432,15.294 325.432,11.469 L325.432,2.048 L331.721,2.048 L331.721,29.598 L331.721,29.598 Z M304.233,29.598 L297.596,29.598 L296.06,24.266 C296.011,24.093 295.854,23.977 295.676,23.977 L286.057,23.977 C285.878,23.977 285.722,24.093 285.672,24.266 L284.135,29.598 L277.501,29.598 L286.6,2.048 L295.133,2.048 L304.233,29.598 L304.233,29.598 Z M290.864,4.744 C290.684,4.744 290.525,4.869 290.479,5.044 C290.479,5.044 289.72,7.977 288.558,12.276 L286.685,19.057 C286.651,19.178 286.677,19.307 286.752,19.405 C286.826,19.504 286.945,19.563 287.07,19.563 L294.662,19.563 C294.787,19.563 294.906,19.504 294.98,19.405 C295.056,19.307 295.081,19.178 295.047,19.057 L293.175,12.274 C292.027,8.176 291.262,5.079 291.255,5.047 C291.212,4.871 291.052,4.744 290.868,4.744 L290.864,4.744 L290.864,4.744 Z M273.842,29.598 L266.67,29.598 L265.033,23.862 C264.125,20.68 263.506,19.848 262.572,18.752 C262.498,18.662 262.385,18.612 262.272,18.612 L262.244,18.612 L258.193,18.866 C257.984,18.878 257.819,19.053 257.819,19.265 L257.819,29.598 L251.533,29.598 L251.533,2.048 L260.852,2.048 C268.45,2.048 273.512,3.402 273.512,10.002 C273.512,14.735 271.6,16.222 268.072,17.312 C267.912,17.362 267.8,17.508 267.791,17.676 C267.783,17.845 267.881,17.998 268.037,18.065 C269.172,18.537 270.254,19.964 271.005,21.984 L273.842,29.598 L273.842,29.598 Z M258.219,6.616 C257.998,6.616 257.819,6.795 257.819,7.015 L257.819,14.556 C257.819,14.776 257.998,14.955 258.219,14.955 C263.321,14.955 267.224,14.616 267.224,10.356 C267.224,7.242 264.65,6.616 260.496,6.616 L258.219,6.616 L258.219,6.616 Z M229.215,29.598 L221.92,29.598 L221.92,2.048 L229.215,2.048 C238.405,2.048 244.912,3.036 244.912,15.823 C244.912,27.401 239.396,29.598 229.215,29.598 L229.215,29.598 Z M228.607,6.514 C228.387,6.514 228.209,6.693 228.209,6.914 L228.209,24.732 C228.209,24.953 228.387,25.131 228.607,25.131 L230.482,25.131 C235.641,25.131 238.626,23.609 238.626,15.823 C238.626,7.997 235.904,6.514 230.886,6.514 L228.607,6.514 L228.607,6.514 Z M186.775,29.598 L183.93,29.598 L183.93,14.365 C183.93,11.009 181.528,11.009 180.09,11.009 C177.037,11.009 174.104,13.144 173.981,13.233 C173.879,13.308 173.819,13.428 173.819,13.555 L173.819,29.598 L170.973,29.598 L170.973,8.933 L172.991,8.933 L173.715,11.284 C173.756,11.415 173.862,11.517 173.998,11.552 C174.031,11.561 174.064,11.564 174.097,11.564 C174.199,11.564 174.299,11.527 174.374,11.455 C174.405,11.425 177.465,8.528 181.02,8.528 C185,8.528 186.775,10.379 186.775,14.527 L186.775,29.598 L186.775,29.598 Z M138.08,29.598 L131.794,29.598 C131.773,28.064 131.741,26.523 131.708,24.981 C131.652,22.471 131.596,19.875 131.596,17.341 C131.596,15.207 131.708,13.031 131.898,11.519 C131.922,11.321 131.797,11.136 131.606,11.082 C131.571,11.072 131.536,11.067 131.502,11.067 C131.344,11.067 131.196,11.161 131.132,11.311 C130.304,13.227 128.311,16.415 127.477,17.618 L122.541,24.88 L117.609,17.622 C116.721,16.341 114.742,13.142 113.948,11.311 C113.885,11.161 113.74,11.069 113.584,11.069 C113.55,11.069 113.517,11.074 113.484,11.082 C113.293,11.13 113.166,11.309 113.182,11.504 C113.274,12.534 113.486,15.211 113.486,17.797 L113.486,18.556 L113.291,29.598 L107.002,29.598 L107.497,2.048 L113.717,2.048 L122.204,15.43 C122.277,15.546 122.403,15.615 122.541,15.615 C122.678,15.615 122.805,15.546 122.878,15.43 L131.367,2.048 L137.586,2.048 L138.08,29.598 L138.08,29.598 Z M100.708,29.598 L93.535,29.598 L91.898,23.862 C90.989,20.68 90.371,19.848 89.438,18.752 C89.362,18.662 89.25,18.612 89.136,18.612 L89.108,18.612 L85.061,18.866 C84.851,18.878 84.686,19.053 84.686,19.265 L84.686,29.598 L78.398,29.598 L78.398,2.048 L87.717,2.048 C95.316,2.048 100.377,3.402 100.377,10.002 C100.377,14.737 98.465,16.224 94.937,17.312 C94.777,17.362 94.665,17.508 94.656,17.676 C94.648,17.845 94.746,17.998 94.902,18.065 C96.038,18.537 97.119,19.964 97.87,21.984 L100.708,29.598 L100.708,29.598 Z M85.085,6.616 C84.865,6.616 84.686,6.795 84.686,7.015 L84.686,14.556 C84.686,14.776 84.865,14.955 85.085,14.955 C90.186,14.955 94.088,14.616 94.088,10.356 C94.088,7.242 91.515,6.616 87.363,6.616 L85.085,6.616 L85.085,6.616 Z M37.055,29.598 L30.767,29.598 L30.767,7.471 C30.767,7.251 30.588,7.071 30.367,7.071 L22.163,7.071 L22.163,2.048 L45.6,2.048 L44.901,7.071 L37.454,7.071 C37.234,7.071 37.055,7.251 37.055,7.471 L37.055,29.598 L37.055,29.598 Z" id="Fill-1" fill="#FFFFFF" sketch:type="MSShapeGroup"></path>
            <path d="M20.093,21.391 C20.093,16.43 16.854,14.607 13.564,13.342 L11.084,12.381 C8.958,11.57 7.338,10.912 7.338,9.09 C7.338,7.218 8.907,6.56 11.893,6.56 C15.133,6.56 19.081,8.129 19.081,8.129 L19.081,2.611 C19.081,2.611 16.196,1.144 11.387,1.144 C6.173,1.144 0.353,2.408 0.353,9.646 C0.353,14.305 3.693,16.278 6.933,17.543 L9.514,18.556 C11.488,19.314 13.007,19.922 13.007,21.896 C13.007,24.326 11.134,24.883 8.046,24.883 C5.262,24.883 0.15,23.264 0.15,23.264 L0.15,29.084 C0.15,29.084 4.453,30.502 8.552,30.502 C13.614,30.502 20.093,29.793 20.093,21.391 L20.093,21.391 Z M46.06,1.649 L21.763,1.649 L21.763,7.471 L30.368,7.471 L30.368,29.996 L37.455,29.996 L37.455,7.471 L45.249,7.471 L46.06,1.649 L46.06,1.649 Z M71.419,19.063 L71.419,1.649 L64.332,1.649 L64.332,19.012 C64.332,23.466 62.915,25.086 59.877,25.086 C56.638,25.086 55.423,23.365 55.423,19.012 L55.423,1.649 L48.337,1.649 L48.337,19.063 C48.337,26.756 50.969,30.502 59.877,30.502 C68.432,30.502 71.419,26.301 71.419,19.063 L71.419,19.063 Z M101.282,29.996 L98.246,21.846 C97.436,19.67 96.271,18.201 95.057,17.695 C98.499,16.633 100.776,15.164 100.776,10.002 C100.776,2.966 95.31,1.649 87.717,1.649 L77.998,1.649 L77.998,29.996 L85.085,29.996 L85.085,19.265 L89.134,19.012 C89.995,20.023 90.602,20.783 91.513,23.973 L93.234,29.996 L101.282,29.996 L101.282,29.996 Z M93.69,10.355 C93.69,13.949 90.805,14.557 85.085,14.557 L85.085,7.016 L87.363,7.016 C91.868,7.016 93.69,7.774 93.69,10.355 L93.69,10.355 Z M138.486,29.996 L137.98,1.649 L131.146,1.649 L122.541,15.215 L113.937,1.649 L107.103,1.649 L106.597,29.996 L113.684,29.996 L113.886,18.556 L113.886,17.797 C113.886,15.62 113.734,13.19 113.582,11.469 C114.392,13.342 116.366,16.531 117.277,17.848 L122.541,25.592 L127.806,17.848 C128.717,16.531 130.691,13.342 131.501,11.469 C131.298,13.09 131.197,15.316 131.197,17.342 C131.197,21.543 131.349,25.795 131.399,29.996 L138.486,29.996 L138.486,29.996 Z M163.204,29.996 L163.204,8.533 L159.559,8.533 L159.559,24.852 C159.559,24.852 156.725,27.121 154.093,27.121 C151.663,27.121 151.056,25.865 151.056,23.314 L151.056,8.533 L147.411,8.533 L147.411,24.124 C147.411,28.861 149.841,30.4 153.283,30.4 C156.887,30.4 159.802,27.202 159.802,27.202 L160.248,29.996 L163.204,29.996 L163.204,29.996 Z M187.176,29.996 L187.176,14.527 C187.176,9.586 184.584,8.129 181.021,8.129 C177.255,8.129 174.097,11.166 174.097,11.166 L173.287,8.533 L170.574,8.533 L170.574,29.996 L174.218,29.996 L174.218,13.555 C174.218,13.555 177.133,11.408 180.09,11.408 C181.71,11.408 183.531,11.49 183.531,14.365 L183.531,29.996 L187.176,29.996 L187.176,29.996 Z M210.744,29.996 L210.744,0.84 L207.1,0.84 L207.1,10.113 C206.613,9.586 205.115,8.129 202.442,8.129 C199.729,8.129 193.736,9.344 193.736,19.265 C193.736,28.982 198.555,30.4 201.633,30.4 C204.873,30.4 206.816,28.578 207.545,27.688 L207.99,29.996 L210.744,29.996 L210.744,29.996 Z M207.1,25.42 C206.41,25.987 204.549,27.404 202.442,27.404 C200.174,27.404 197.38,26.797 197.38,19.265 C197.38,12.178 200.377,11.166 202.848,11.166 C204.912,11.166 206.533,12.3 207.1,12.746 L207.1,25.42 L207.1,25.42 Z M245.312,15.822 C245.312,3.117 239.137,1.649 229.215,1.649 L221.522,1.649 L221.522,29.996 L229.215,29.996 C239.137,29.996 245.312,28.072 245.312,15.822 L245.312,15.822 Z M238.226,15.822 C238.226,23.566 235.289,24.731 230.48,24.731 L228.607,24.731 L228.607,6.914 L230.886,6.914 C235.441,6.914 238.226,7.977 238.226,15.822 L238.226,15.822 Z M274.416,29.996 L271.379,21.846 C270.569,19.67 269.405,18.201 268.19,17.695 C271.632,16.633 273.91,15.164 273.91,10.002 C273.91,2.966 268.443,1.649 260.852,1.649 L251.133,1.649 L251.133,29.996 L258.219,29.996 L258.219,19.265 L262.269,19.012 C263.129,20.023 263.736,20.783 264.648,23.973 L266.369,29.996 L274.416,29.996 L274.416,29.996 Z M266.824,10.355 C266.824,13.949 263.94,14.557 258.219,14.557 L258.219,7.016 L260.497,7.016 C265.002,7.016 266.824,7.774 266.824,10.355 L266.824,10.355 Z M304.786,29.996 L295.422,1.649 L286.31,1.649 L276.947,29.996 L284.437,29.996 L286.058,24.377 L295.675,24.377 L297.295,29.996 L304.786,29.996 L304.786,29.996 Z M294.662,19.163 L287.07,19.163 L288.943,12.381 C290.107,8.078 290.866,5.143 290.866,5.143 C290.866,5.143 291.625,8.23 292.79,12.381 L294.662,19.163 L294.662,19.163 Z M332.119,29.996 L332.119,1.649 L325.033,1.649 L325.033,11.469 C325.033,15.367 325.844,21.087 325.844,21.087 C325.844,21.087 324.071,16.633 322.199,13.342 L315.618,1.649 L308.33,1.649 L308.33,29.996 L315.416,29.996 L315.416,19.416 C315.416,14.962 314.605,9.799 314.605,9.799 C314.605,9.799 316.478,14.152 318.048,17.037 L325.185,29.996 L332.119,29.996 L332.119,29.996 Z M362.996,28.933 L362.996,12.785 L350.596,12.785 L351.102,17.948 L355.91,17.948 L355.91,24.58 C355.91,24.58 353.733,25.086 350.949,25.086 C347.912,25.086 344.773,23.566 344.773,15.924 C344.773,8.533 348.773,6.61 352.418,6.61 C356.416,6.61 361.478,8.584 361.478,8.584 L361.478,3.117 C361.478,3.117 357.884,1.144 352.418,1.144 C346.596,1.144 337.687,4.029 337.687,16.127 C337.687,27.869 344.217,30.502 351.051,30.502 C356.416,30.502 362.996,28.933 362.996,28.933 L362.996,28.933 Z" id="Fill-2" fill="#D9222A" sketch:type="MSShapeGroup"></path>
        </g>
    </g>
</svg>