<svg xmlns="http://www.w3.org/2000/svg" viewBox="-413 353 195.667 64">
  <path d="M-256.96 388.81c-3.862-.432-7.667-.374-7.604-2.997.013-2.846 3.044-4.164 7.425-4.178 6.02.013 8.47 2.203 9.47 3.102l1.69-1.745c-2.01-1.97-5.58-3.726-11.22-3.726-5.4.008-9.75 2.17-9.77 6.602.04 4.624 4.95 4.96 9.9 5.43 4.64.412 9.23.887 9.17 3.92 0 2.758-3.97 4.134-8.13 4.145-6.15-.013-8.14-2.048-9.66-3.402l-1.92 1.58c1.804 1.87 5.194 4.25 11.545 4.25 7.184 0 10.598-3.24 10.6-6.57-.03-5.19-5.435-5.71-11.45-6.41m-17.92-9.24h2.42v21.92h-2.424v-21.91zm-68.565 2.18v-2.17h-22.53v2.35h19.17l-18.87 17.39v2.18h22.75v-2.34h-19.38m33.44.22c-5.68-.03-9.815-2.98-9.826-8.83.01-5.864 4.15-8.867 9.826-8.893 5.663.03 9.812 3.03 9.82 8.895-.008 5.848-4.15 8.804-9.82 8.83m0-20.1c-6.96.016-12.27 3.877-12.286 11.268.02 7.39 5.32 11.25 12.286 11.26 6.97-.007 12.268-3.867 12.28-11.25-.012-7.394-5.313-11.25-12.28-11.264m96.04.038c-2.9.13-5.38 1.5-5.72 1.686v-12.47h-2.41v32.96h2.416v-17.93c.29-.222 2.288-1.65 6.18-1.815 3.67-.15 8.25 1.52 8.25 7.038v12.71h2.428V388.9c0-7.124-5.413-9.83-11.133-9.57m-159.98.11c-.89-.08-1.895-.14-2.95-.14-7.4.01-12.904 1.987-12.91 9.606v12.61h2.42v-12.38c0-5.63 3.848-7.41 10.218-7.43 1.244 0 2.318.052 3.224.126m96.3-2.4c-.89-.08-1.9-.14-2.945-.14-7.41.01-12.91 1.99-12.92 9.605v12.61h2.42v-12.4c0-5.633 3.847-7.407 10.225-7.427 1.24 0 2.313.05 3.22.125m15.956-2.243h-8.77v-1.5c0-5.634 3.84-7.41 10.22-7.426 1.24 0 2.315.05 3.22.13v-2.4c-.89-.08-1.896-.13-2.94-.13-7.405.01-12.91 1.99-12.924 9.61V401.5h2.42v-19.56h8.77m-91.83 9.63c-.01 2.55-1.27 4.4-3.25 5.766-1.98 1.35-4.67 2.045-7.1 2.045-1.95 0-4.05-.24-5.5-.95-.73-.35-1.288-.8-1.67-1.35-.376-.55-.61-1.22-.618-2.2.01-.85.218-1.47.56-2 .52-.79 1.435-1.4 2.61-1.81 1.17-.4 2.56-.58 3.86-.58h11.13c0 .31-.016 1.036-.016 1.09m2.434-2.653c-.01-7.62-5.51-9.59-12.91-9.603-1.48 0-2.88.12-3.99.245v2.336c1.08-.12 2.51-.226 4.27-.226 5.97.02 9.72 1.636 10.176 6.475h-11.066c-2.033.003-4.255.29-6.112 1.303-.935.505-1.77 1.196-2.38 2.118-.61.92-.96 2.06-.96 3.34 0 1.39.372 2.61 1.043 3.57 1.01 1.45 2.56 2.27 4.18 2.736 1.62.47 3.36.61 4.97.61 2.88-.006 5.97-.805 8.45-2.476.73-.49 1.377-1.075 1.916-1.746v3.92h2.42v-12.6" fill="#B1B1B4"/>
</svg>
