<svg xmlns="http://www.w3.org/2000/svg" width="193" height="193" viewBox="0 0 193 193">
  <g fill="none">
    <polygon fill="#FFF" points="0 0 192.756 0 192.756 192.756 0 192.756"/>
    <path fill="#CA3132" d="M8.504,107.848 L8.504,85.457 L11.862,85.457 L11.862,107.848 L8.504,107.848 L8.504,107.848 Z M25.699,95.886 C24.31,94.482 23.103,93.844 21.604,93.844 C19.21,93.844 17.669,95.973 17.669,99.41 C17.669,102.705 19.079,105.06 21.705,105.06 C23.268,105.06 24.201,104.372 25.501,102.982 L27.619,105.06 C26.314,106.73 24.649,108.195 21.603,108.195 C17.513,108.195 14.35,104.746 14.35,99.506 C14.35,93.939 17.606,90.706 21.705,90.706 C24.172,90.706 26.094,91.703 27.648,93.556 L25.699,95.886 Z M40.563,99.504 C40.563,102.568 38.931,105.088 36.438,105.088 C33.938,105.088 32.25,103.076 32.25,99.41 C32.25,96.084 33.789,93.871 36.278,93.871 C38.931,93.872 40.563,96.084 40.563,99.504 Z M43.889,99.41 C43.889,94.156 40.699,90.735 36.407,90.735 C32.183,90.735 28.92,94.01 28.92,99.504 C28.92,104.748 32.094,108.229 36.313,108.229 C40.629,108.229 43.889,104.969 43.889,99.41 Z M56.389,107.848 L56.389,98.342 C56.389,94.959 55.118,93.753 52.94,93.753 C50.729,93.753 49.497,95.315 49.497,98.032 L49.497,107.848 L46.199,107.848 L46.199,91.064 L49.497,91.064 L49.497,92.667 C50.319,91.451 51.981,90.706 53.703,90.706 C57.612,90.706 59.68,93.26 59.68,98.223 L59.68,107.848 L56.389,107.848 L56.389,107.848 Z M79.584,107.832 L79.584,96.004 C79.584,94.667 79.62,92.714 79.651,92.078 C79.398,92.714 78.752,94.315 78.216,95.589 L72.78,108.179 L67.41,95.589 C66.864,94.315 66.228,92.714 65.975,92.078 C66.004,92.714 66.039,94.667 66.039,96.004 L66.039,107.832 L62.87,107.832 L62.87,85.46 L66.321,85.46 L71.34,97.38 C71.885,98.657 72.591,100.288 72.878,101.214 C73.195,100.288 73.833,98.691 74.378,97.38 L79.296,85.46 L82.874,85.46 L82.874,107.832 L79.584,107.832 Z M96.293,97.92 L88.499,97.92 C88.792,95.235 90.125,93.703 92.333,93.703 C95.038,93.703 96.129,95.619 96.293,97.92 Z M99.627,99.137 C99.627,94.599 97.315,90.731 92.554,90.731 C88.213,90.731 85.215,93.801 85.215,99.487 C85.215,105.049 88.534,108.208 92.456,108.208 C95.015,108.208 96.777,107.415 98.248,106.005 L96.293,103.896 C95.174,104.728 94.047,105.244 92.651,105.244 C90.611,105.244 88.791,103.865 88.444,100.64 L99.525,100.64 C99.553,100.283 99.627,99.744 99.627,99.137 L99.627,99.137 Z M141.662,107.848 L141.662,86.265 L144.949,84.535 L144.949,107.848 L141.662,107.848 Z M157.791,103.08 C157.01,104.135 155.482,105.223 153.723,105.223 C151.547,105.223 150.502,104.104 150.502,102.446 C150.502,100.911 151.852,99.944 153.949,99.944 C155.72,99.944 156.892,100.237 157.791,100.692 L157.791,103.08 L157.791,103.08 Z M161.008,107.848 L161.008,96.338 C161.008,92.534 158.449,90.706 154.725,90.706 C152.358,90.706 150.551,91.217 148.971,92.224 L150.248,94.702 C151.547,93.982 152.889,93.649 154.621,93.649 C156.66,93.649 157.791,94.676 157.791,96.489 L157.791,97.741 C156.861,97.331 155.607,97.108 154.047,97.108 C150.248,97.108 147.383,98.796 147.383,102.54 C147.383,106.663 150.465,108.196 153.178,108.196 C155.002,108.196 156.645,107.348 157.791,106.176 L157.791,107.848 L161.008,107.848 Z M174.762,99.826 C174.762,103.373 173.522,105.162 171.139,105.162 C169.461,105.162 167.946,103.939 167.196,102.957 L167.196,95.886 C168.073,94.812 169.434,93.753 171.022,93.753 C173.469,93.752 174.762,95.611 174.762,99.826 Z M178.08,99.723 C178.08,93.327 175.228,90.706 171.6,90.706 C169.868,90.706 168.463,91.54 167.239,92.667 L167.239,84.535 L163.968,86.242 L163.968,107.848 L167.239,107.848 L167.239,106.272 C168.178,107.309 169.766,108.196 171.481,108.196 C174.953,108.195 178.08,105.48 178.08,99.723 Z M112.184,103.004 C111.325,104.092 109.952,105.145 108.385,105.145 C105.947,105.145 104.598,103.293 104.598,99.069 C104.598,95.526 105.887,93.74 108.256,93.74 C109.912,93.74 111.453,94.948 112.184,95.94 L112.184,103.004 L112.184,103.004 Z M115.412,107.832 L115.412,84.535 L112.156,86.227 L112.156,92.616 C111.226,91.595 109.619,90.702 107.939,90.702 C104.445,90.702 101.31,93.42 101.31,99.17 C101.31,105.559 104.158,108.18 107.771,108.18 C109.525,108.18 110.935,107.352 112.156,106.233 L112.156,107.833 L115.412,107.833 L115.412,107.832 L115.412,107.832 Z M122.492,86.771 C122.492,85.59 121.537,84.626 120.383,84.626 C119.203133,84.632058 118.250332,85.5911184 118.252,86.771 C118.252,87.92 119.209,88.879 120.383,88.879 C121.543755,88.8702968 122.482746,87.9317509 122.492,86.771 L122.492,86.771 Z M122.025,107.832 L122.025,91.052 L118.728,91.052 L118.728,107.832 L122.025,107.832 Z M135.197,103.068 C134.429,104.123 132.888,105.213 131.136,105.213 C128.954,105.213 127.892,104.092 127.892,102.43 C127.892,100.899 129.238,99.936 131.355,99.936 C133.146,99.936 134.293,100.219 135.197,100.67 L135.197,103.068 L135.197,103.068 Z M138.426,107.832 L138.426,96.328 C138.426,92.52 135.86,90.702 132.117,90.702 C129.754,90.702 127.961,91.209 126.363,92.204 L127.648,94.699 C128.955,93.957 130.298,93.646 132.023,93.646 C134.072,93.646 135.197,94.667 135.197,96.487 L135.197,97.733 C134.273,97.319 133.011,97.092 131.453,97.092 C127.648,97.092 124.762,98.785 124.762,102.526 C124.762,106.651 127.866,108.18 130.588,108.18 C132.406,108.18 134.045,107.321 135.197,106.172 L135.197,107.832 L138.426,107.832 L138.426,107.832 Z M183.502,89.146 L183.502,86.689 L183.502,86.172 C183.441,86.328 183.373,86.484 183.318,86.629 L182.17,89.288 L181.035,86.629 C180.976,86.484 180.912,86.328 180.855,86.182 C180.871,86.362 180.871,86.568 180.871,86.689 L180.871,89.146 L180.137,89.146 L180.137,84.529 L180.899,84.529 L181.944,86.904 L182.19,87.549 C182.254,87.352 182.354,87.119 182.438,86.904 L183.454,84.529 L184.253,84.529 L184.253,89.146 L183.502,89.146 L183.502,89.146 Z M178.037,85.305 L178.037,89.146 L177.252,89.146 L177.252,85.305 L175.94,85.305 L175.94,84.529 L179.354,84.529 L179.354,85.305 L178.037,85.305 L178.037,85.305 Z"/>
  </g>
</svg>
