<?xml version="1.0" encoding="utf-8"?>
<!-- Generator: Adobe Illustrator 20.1.0, SVG Export Plug-In . SVG Version: 6.00 Build 0)  -->
<svg version="1.1" id="Layer_278" xmlns="http://www.w3.org/2000/svg" xmlns:xlink="http://www.w3.org/1999/xlink" x="0px" y="0px"
	 viewBox="0 0 216 65" style="enable-background:new 0 0 216 65;" xml:space="preserve">
<style type="text/css">
	.st0{fill:#001E2B;}
</style>
<title>razorfish</title>
<path class="st0" d="M184.8,43.3h1.9v0.2h-0.8v1.8h-0.3v-1.8h-0.8V43.3z"/>
<path class="st0" d="M187.2,43.3h0.4l0.8,1.7l0.8-1.7h0.4v2h-0.3v-1.7l-0.8,1.7h-0.3l-0.8-1.7v1.7h-0.3L187.2,43.3z"/>
<path class="st0" d="M153,34.7c-3.2-0.4-6.4-0.3-6.3-2.5c0-2.4,2.5-3.5,6.2-3.5c5,0,7.1,1.8,7.9,2.6l1.4-1.5
	c-1.7-1.6-4.7-3.1-9.4-3.1c-4.5,0-8.1,1.8-8.1,5.5c0,3.9,4.1,4.1,8.3,4.5c3.9,0.3,7.7,0.7,7.6,3.3c0,2.3-3.3,3.4-6.8,3.5
	c-5.1,0-6.8-1.7-8.1-2.8l-1.6,1.3c1.5,1.6,4.3,3.5,9.6,3.5c6,0,8.8-2.7,8.8-5.5C162.5,35.7,158,35.3,153,34.7z"/>
<rect x="138" y="27" class="st0" width="2" height="18.3"/>
<polygon class="st0" points="80.8,28.8 80.8,27 62.1,27 62.1,28.9 78,28.9 62.3,43.4 62.3,45.2 81.3,45.2 81.3,43.3 65.1,43.3 "/>
<path class="st0" d="M93,26.7c-5.8,0-10.2,3.2-10.2,9.4c0,6.2,4.4,9.4,10.2,9.4c5.8,0,10.2-3.2,10.2-9.4
	C103.2,29.9,98.8,26.7,93,26.7z M93,43.5c-4.7,0-8.2-2.5-8.2-7.4c0-4.9,3.5-7.4,8.2-7.4c4.7,0,8.2,2.5,8.2,7.4
	C101.2,41,97.7,43.5,93,43.5L93,43.5z"/>
<path class="st0" d="M173.1,26.7c-1.7,0.1-3.3,0.6-4.8,1.4V17.8h-2v27.5h2v-15c1.5-1,3.3-1.5,5.2-1.5c3.1-0.1,6.9,1.3,6.9,5.9v10.6
	h2V34.7C182.4,28.8,177.9,26.5,173.1,26.7z"/>
<path class="st0" d="M39.7,26.8c-0.7-0.1-1.6-0.1-2.5-0.1c-6.2,0-10.8,1.7-10.8,8v10.5h2V34.9c0-4.7,3.2-6.2,8.5-6.2
	c1,0,1.9,0,2.7,0.1L39.7,26.8z"/>
<path class="st0" d="M120,26.8c-0.7-0.1-1.6-0.1-2.5-0.1c-6.2,0-10.8,1.7-10.8,8v10.5h2V34.9c0-4.7,3.2-6.2,8.5-6.2
	c1,0,1.9,0,2.7,0.1L120,26.8z"/>
<path class="st0" d="M133.3,27H126v-1.3c0-4.7,3.2-6.2,8.5-6.2c1,0,1.9,0,2.7,0.1v-2c-0.7-0.1-1.6-0.1-2.5-0.1
	c-6.2,0-10.8,1.7-10.8,8v19.7h2V28.9h7.3L133.3,27z"/>
<path class="st0" d="M58.7,34.7c0-6.4-4.6-8-10.8-8c-1.1,0-2.2,0.1-3.3,0.2v1.9c1.2-0.1,2.4-0.2,3.6-0.2c5,0,8.1,1.4,8.5,5.4h-9.2
	c-1.8-0.1-3.5,0.3-5.1,1.1c-0.8,0.4-1.5,1-2,1.8c-0.5,0.8-0.8,1.8-0.8,2.8c0,1.1,0.3,2.1,0.9,3c0.9,1.1,2.1,1.9,3.5,2.3
	c1.4,0.4,2.7,0.5,4.2,0.5c2.5,0,4.9-0.7,7-2.1c0.6-0.4,1.1-0.9,1.6-1.5v3.3h2L58.7,34.7z M56.7,37c0,2-1,3.8-2.7,4.8
	c-1.8,1.1-3.8,1.7-5.9,1.7c-1.6,0.1-3.1-0.2-4.6-0.8c-0.6-0.2-1-0.6-1.4-1.1c-0.4-0.5-0.5-1.2-0.5-1.8c0-0.6,0.1-1.2,0.5-1.7
	c0.5-0.7,1.3-1.3,2.2-1.5c1-0.3,2.1-0.5,3.2-0.5h9.3C56.7,36.3,56.7,36.9,56.7,37z"/>
</svg>
