<svg width="58" height="55" viewBox="0 0 58 55" fill="none" xmlns="http://www.w3.org/2000/svg">
<path d="M6.32962 54.2596H4.40682L1.30301 48.8876H1.25909C1.32091 49.8363 1.35182 50.5131 1.35182 50.9179V54.2596H1.19942e-07V47.1584H1.90816L5.00709 52.477H5.04125C4.99245 51.5541 4.96805 50.9017 4.96805 50.5196V47.1584H6.32962V54.2596ZM12.7451 54.2596H8.63598V47.1584H12.7451V48.3922H10.1488V49.9513H12.5645V51.185H10.1488V53.0161H12.7451V54.2596ZM17.4964 54.2596H15.9836V48.4116H14.0461V47.1584H19.4339V48.4116H17.4964V54.2596ZM21.0424 47.1584H23.2629C24.2747 47.1584 25.0092 47.3017 25.4663 47.5883C25.9234 47.8749 26.1519 48.3306 26.1519 48.9556C26.1519 49.3798 26.0519 49.7279 25.8518 49.9999C25.6517 50.2719 25.3858 50.4354 25.0539 50.4904V50.539C25.5061 50.6394 25.8323 50.8272 26.0324 51.1024C26.2325 51.3777 26.3325 51.7436 26.3325 52.2001C26.3325 52.8478 26.0975 53.3529 25.6273 53.7156C25.1572 54.0782 24.5187 54.2596 23.7118 54.2596H21.0424V47.1584ZM22.5552 49.9707H23.4337C23.8436 49.9707 24.1405 49.9076 24.3243 49.7813C24.5081 49.655 24.6 49.4461 24.6 49.1547C24.6 48.8827 24.5 48.6876 24.2999 48.5694C24.0998 48.4512 23.7834 48.3922 23.3507 48.3922H22.5552V49.9707ZM22.5552 51.1656V53.0161H23.541C23.9575 53.0161 24.2649 52.9368 24.4634 52.7781C24.6619 52.6195 24.7611 52.3766 24.7611 52.0496C24.7611 51.4602 24.3381 51.1656 23.4922 51.1656H22.5552ZM29.7808 51.5347V54.2596H28.268V47.1584H30.3469C31.3165 47.1584 32.0339 47.3341 32.4991 47.6854C32.9644 48.0368 33.197 48.5702 33.197 49.2859C33.197 49.7036 33.0815 50.0751 32.8505 50.4006C32.6195 50.726 32.2925 50.981 31.8696 51.1656C32.9432 52.7619 33.6427 53.7933 33.968 54.2596H32.2893L30.5861 51.5347H29.7808ZM29.7808 50.3107H30.2689C30.7471 50.3107 31.1001 50.2314 31.3279 50.0727C31.5556 49.914 31.6695 49.6647 31.6695 49.3247C31.6695 48.988 31.5532 48.7483 31.3205 48.6059C31.0879 48.4634 30.7276 48.3922 30.2396 48.3922H29.7808V50.3107ZM39.4856 54.2596H35.3764V47.1584H39.4856V48.3922H36.8893V49.9513H39.305V51.185H36.8893V53.0161H39.4856V54.2596ZM45.5936 54.2596H41.4845V47.1584H45.5936V48.3922H42.9973V49.9513H45.413V51.185H42.9973V53.0161H45.5936V54.2596ZM52.2433 54.2596H46.9337V53.2833L50.3547 48.4019H47.0264V47.1584H52.1506V48.1299L48.7345 53.0161H52.2433V54.2596ZM58 54.2596H53.8909V47.1584H58V48.3922H55.4037V49.9513H57.8194V51.185H55.4037V53.0161H58V54.2596Z" fill="#666666" style="fill:#666666;fill:color(display-p3 0.4000 0.4000 0.4000);fill-opacity:1;"/>
<path d="M11.5335 0.259521H46.5148C48.0919 0.259521 49.3704 1.53198 49.3704 3.10163V37.9174C49.3704 39.4871 48.0919 40.7595 46.5148 40.7595H11.5335C9.95641 40.7595 8.67791 39.4871 8.67791 37.9174V3.10163C8.67791 1.53198 9.95641 0.259521 11.5335 0.259521Z" fill="url(#paint0_linear_3489_160)" style=""/>
<path d="M11.5335 0.259521H46.5148C48.0919 0.259521 49.3704 1.53198 49.3704 3.10163V37.9174C49.3704 39.4871 48.0919 40.7595 46.5148 40.7595H11.5335C9.95641 40.7595 8.67791 39.4871 8.67791 37.9174V3.10163C8.67791 1.53198 9.95641 0.259521 11.5335 0.259521Z" fill="#666666" style="fill:#666666;fill:color(display-p3 0.4000 0.4000 0.4000);fill-opacity:1;"/>
<path d="M34.3784 6.29898V26.4906L22.1726 10.8293C21.9529 10.5475 21.6763 10.3355 21.3715 10.197C20.9991 9.97756 20.5645 9.85161 20.1004 9.85161C18.7204 9.85161 17.6017 10.965 17.6017 12.3384V28.6806C17.6017 30.054 18.7204 31.1674 20.1004 31.1674C21.4803 31.1674 22.599 30.054 22.599 28.6806V18.5472L35.1584 34.5464L35.2493 34.4758C36.1339 35.2332 37.4607 35.2905 38.4154 34.5481C39.0528 34.0525 39.3828 33.3105 39.3759 32.5632V6.29898C39.3759 4.92553 38.2571 3.81213 36.8771 3.81213C35.4971 3.81213 34.3784 4.92553 34.3784 6.29898Z" fill="white" style="fill:white;fill-opacity:1;"/>
<defs>
<linearGradient id="paint0_linear_3489_160" x1="2043.3" y1="0.259521" x2="2043.3" y2="4050.26" gradientUnits="userSpaceOnUse">
<stop stop-color="#BFBFBF" style="stop-color:#BFBFBF;stop-color:color(display-p3 0.7490 0.7490 0.7490);stop-opacity:1;"/>
<stop offset="1" stop-color="#666666" style="stop-color:#666666;stop-color:color(display-p3 0.4000 0.4000 0.4000);stop-opacity:1;"/>
</linearGradient>
</defs>
</svg>
