<?xml version="1.0" encoding="UTF-8"?>
<svg width="40px" height="40px" viewBox="0 0 40 40" version="1.1" xmlns="http://www.w3.org/2000/svg" xmlns:xlink="http://www.w3.org/1999/xlink">
    <!-- Generator: Sketch 55.2 (78181) - https://sketchapp.com -->
    <title>client-logo-telefonica_o2</title>
    <desc>Created with Sketch.</desc>
    <g id="Page-1" stroke="none" stroke-width="1" fill="none" fill-rule="evenodd">
        <g id="client-logo-telefonica_o2" fill="#666666" fill-rule="nonzero">
            <path d="M13.6055684,0.169837587 C16.6236659,-0.17262181 19.7587007,0.164269142 22.5540603,1.39118329 C25.0459397,2.47146172 27.212065,4.28213457 28.7164733,6.54292343 C30.4510441,9.12482599 31.32529,12.225522 31.437587,15.3187935 C31.5925754,18.5392111 30.8677494,21.8180974 29.2529002,24.6190255 C27.8459397,27.0793503 25.7475638,29.1480278 23.2389791,30.4733179 C20.3285383,32.0278422 16.9197216,32.5512761 13.6603248,32.1354988 C10.8259861,31.7921114 8.08352668,30.6552204 5.87563805,28.8389791 C3.37726218,26.812993 1.59443155,23.9638051 0.733178654,20.8742459 C-0.127146172,17.787471 -0.101160093,14.475174 0.68863109,11.3763341 C1.48399072,8.25986079 3.23897912,5.36612529 5.76519722,3.35406032 C7.9962877,1.55638051 10.7703016,0.49837587 13.6055684,0.169837587 Z M14.7192575,4.71461717 C13.0385151,4.90301624 11.4236659,5.60742459 10.137355,6.70533643 C8.41113689,8.16890951 7.26218097,10.2264501 6.66635731,12.3916473 C5.91832947,15.099768 6.01299304,18.0194896 6.85568445,20.6932715 C7.52111369,22.7545244 8.70904872,24.7081206 10.4761021,26.0009281 C12.0454756,27.1638051 14.0222738,27.7067285 15.9638051,27.6584687 C17.9387471,27.6519722 19.9266821,26.9976798 21.45058,25.72529 C23.1294664,24.3396752 24.2292343,22.3600928 24.8204176,20.2867749 C25.6918794,17.237123 25.5860789,13.8914153 24.4,10.9392111 C23.6064965,8.98097448 22.3062645,7.18051044 20.5169374,6.02227378 C18.8222738,4.90765661 16.724826,4.47424594 14.7192575,4.71461717 Z M31.1303944,26.2663573 C32.5707657,25.5424594 34.2106729,25.187935 35.8208817,25.3197216 C36.8890951,25.4041763 37.9916473,25.8078886 38.6784223,26.6672854 C39.3837587,27.5684455 39.561949,28.7795824 39.4301624,29.8904872 C39.237123,31.2640371 38.4825986,32.4779582 37.638051,33.5470998 C36.6487239,34.7962877 35.4849188,35.8895592 34.3545244,37.0069606 C36.2051044,37.0078886 38.0556845,37.0041763 39.9062645,37.0088167 C39.9062645,37.7280742 39.912761,38.4482599 39.9034803,39.1675174 C36.8733179,39.1600928 33.8431555,39.1665893 30.812065,39.1647332 C30.812993,38.3935035 30.8102088,37.6232019 30.8139211,36.8529002 C32.1865429,35.5981439 33.5638051,34.3387471 34.7832947,32.9317865 C35.4765661,32.1030162 36.1522042,31.2269142 36.5327146,30.2060325 C36.7535963,29.612065 36.8148492,28.8909513 36.4389791,28.3461717 C36.0046404,27.7011601 35.1814385,27.4450116 34.4343387,27.4682135 C33.312297,27.4682135 32.2756381,27.9805104 31.3401392,28.5531323 C31.275174,27.7902552 31.187007,27.0292343 31.1303944,26.2663573 Z" id="Shape"></path>
        </g>
    </g>
</svg>