<svg width="112" height="29" viewBox="0 0 112 29" fill="none" xmlns="http://www.w3.org/2000/svg">
<path d="M53.3392 1.0365H58.66V27.4825H53.3392V1.0365ZM71.2307 1.03784H71.2308H85.3257V5.57685H72.2242C70.2413 5.57685 69.3016 6.72335 69.3016 8.65387V13.3446H81.4298L81.372 18.0554H69.3015V27.4825H63.9812V8.39208C63.9812 4.58608 66.2755 1.03784 71.2307 1.03784ZM111.99 1.03784V20.1296C111.99 23.9383 109.695 27.4825 104.738 27.4825H90.646V22.9462H103.749C105.73 22.9462 106.669 21.7997 106.669 19.8678V18.0689H97.8955C92.9403 18.0689 90.646 14.522 90.646 10.7133V1.03784H95.9677V10.4528C95.9677 12.3833 96.9061 13.5298 98.8877 13.5298H106.669V1.03784H111.99ZM21.3526 27.4825H7.26037C2.30384 27.4825 0.0094986 23.9383 0.0094986 20.1296V1.03784H5.32984V19.8678C5.32984 21.7997 6.2696 22.9462 8.25113 22.9462H16.0323V1.03784H21.3526V27.4825ZM40.7679 1.03784C45.7231 1.03784 48.0175 4.58608 48.0175 8.39208V27.4825H42.6971V8.65387C42.6971 6.72335 41.7587 5.57685 39.7772 5.57685H31.996V27.4825H26.6743V1.03784H40.7679Z" fill="#666666" style="fill:#666666;fill:color(display-p3 0.4000 0.4000 0.4000);fill-opacity:1;"/>
</svg>
