<svg xmlns="http://www.w3.org/2000/svg" width="96" height="17" viewBox="0 0 96 17">
  <path fill="#666" d="M1.02694757,41.1959376 L1.02694757,46.8402296 L5.92650661,46.8402296 L5.92650661,47.7887842 L-4.26325641e-14,47.7887842 L-4.26325641e-14,41.1959376 L1.02694757,41.1959376 Z M10.2616365,41.180259 L11.3042626,41.180259 L11.3042626,47.8044628 L10.2616365,47.8044628 L10.2616365,41.180259 Z M17.7716805,44.7549773 L17.7716805,46.8402296 L23.2121509,46.8402296 L23.2121509,47.7887842 L16.744733,47.7887842 L16.744733,41.1959376 L22.922097,41.1959376 L22.922097,42.1680101 L17.7716805,42.1680101 L17.7716805,43.8064227 L21.1504165,43.8064227 L21.1504165,44.7549773 L17.7716805,44.7549773 Z M33.3091622,44.0651194 C34.0303773,44.4649234 34.4145027,45.0763884 34.4301813,45.8289606 C34.4301813,47.0126941 33.5992161,47.8044628 32.1175894,47.8044628 L27.8608525,47.8044628 L27.8608525,41.2272948 L31.9059285,41.2272948 C33.2621264,41.2272948 33.944145,41.791724 33.944145,42.8500287 C33.944145,43.3831008 33.7246448,43.814262 33.3091622,44.0651194 Z M28.8799608,42.1680101 L28.8799608,43.7201904 L31.8824106,43.7201904 C32.5487506,43.7201904 32.878001,43.4536544 32.878001,42.9441003 C32.878001,42.4188675 32.5487506,42.1680101 31.866732,42.1680101 L28.8799608,42.1680101 Z M32.2195002,46.8402296 C32.9485546,46.8402296 33.3561979,46.4325863 33.3561979,45.7505677 C33.3561979,45.092067 32.9642332,44.6765843 32.2195002,44.6765843 L28.8799608,44.6765843 L28.8799608,46.8402296 L32.2195002,46.8402296 Z M46.055855,46.8402296 L46.055855,47.7887842 L39.5962763,47.7887842 L39.5962763,41.1959376 L45.7814797,41.1959376 L45.7814797,42.1680101 L40.6232239,42.1680101 L40.6232239,43.8064227 L44.0097991,43.8064227 L44.0097991,44.7549773 L40.6232239,44.7549773 L40.6232239,46.8402296 L46.055855,46.8402296 Z M53.2288094,43.7123511 C55.3532582,43.7123511 56.411563,44.4414055 56.4194023,45.8367999 C56.4194023,47.0048548 55.321901,48.0004452 53.4953454,48.0004452 C52.2488976,48.0004452 50.9397354,47.6398377 49.8657521,46.957819 L50.3753062,46.0876573 C51.3238609,46.7226402 52.4605585,47.0518906 53.3934346,47.0518906 C54.6242038,47.0518906 55.3454189,46.4796221 55.3454189,45.7740856 C55.3454189,44.9979954 54.6634003,44.668745 53.2915238,44.6373879 C51.2689858,44.61387 50.1479667,44.3316554 50.1479667,42.9205824 C50.1479667,41.8309205 51.1592357,41.0391517 52.8682019,41.0391517 C53.9970603,41.0391517 55.055365,41.3448842 56.0509554,41.979867 L55.5257227,42.8343501 C54.6712396,42.2699209 53.6678099,41.9641885 52.8368447,41.9641885 C51.7863792,41.9641885 51.1749143,42.3639925 51.1749143,42.9049038 C51.1749143,43.5320474 51.8569329,43.7123511 53.2288094,43.7123511 Z M67.0259677,41.2116162 L64.266536,43.5555652 L67.4414503,47.7887842 L66.289074,47.7887842 L63.5374816,44.1591909 L62.1812837,45.3115672 L62.1812837,47.7887842 L61.1543361,47.7887842 L61.1543361,41.2116162 L62.1812837,41.2116162 L62.1812837,44.135673 L65.6697697,41.2116162 L67.0259677,41.2116162 Z M71.8157766,41.180259 L72.8584027,41.180259 L72.8584027,47.8044628 L71.8157766,47.8044628 L71.8157766,41.180259 Z M83.0416463,45.8289606 L83.0416463,41.1959376 L84.0529152,41.1959376 L84.0529152,47.7887842 L83.5120039,47.7887842 L79.3258207,43.1792791 L79.3258207,47.7887842 L78.3145517,47.7887842 L78.3145517,41.1959376 L78.855463,41.1959376 L83.0416463,45.8289606 Z M92.4096031,41.1959376 C94.6359628,41.1959376 95.9921607,42.6226892 96,44.5197985 C96,46.4169077 94.6986771,47.7887842 92.4096031,47.7887842 L89.4855463,47.7887842 L89.4855463,41.1959376 L92.4096031,41.1959376 Z M92.4174424,46.8402296 C94.0636943,46.8402296 94.9416952,45.8603178 94.933856,44.4962806 C94.933856,43.1557612 93.977462,42.1444922 92.4252817,42.1444922 L90.5124939,42.1444922 L90.5124939,46.8402296 L92.4174424,46.8402296 Z M40.4272415,55.0009352 C40.866242,55.024453 41.2582068,55.1969175 41.2582068,55.8083825 L41.2582068,56.302258 C41.2582068,56.8745265 40.7408133,57.180259 40.0587947,57.180259 L36.4840764,57.180259 L36.4840764,53.0567901 L39.9960804,53.0567901 C40.8584027,53.0567901 41.0935816,53.5036299 41.0935816,53.9739876 L41.0935816,54.3267558 C41.0935816,54.624649 40.9211171,54.9303815 40.4272415,54.9774173 L40.4272415,55.0009352 Z M37.0485056,53.5193085 L37.0406663,53.5193085 L37.0406663,54.83631 L39.9255267,54.83631 C40.2234199,54.83631 40.5369917,54.7422384 40.5369917,54.3267558 L40.5369917,53.9504697 C40.5369917,53.5820229 40.1215091,53.5193085 39.9490446,53.5193085 L37.0485056,53.5193085 Z M40.7016169,56.1768293 L40.7094561,56.1768293 L40.7094561,55.8710968 C40.7094561,55.3615427 40.4272415,55.2831498 39.9176874,55.2831498 L37.0485056,55.2831498 L37.0485056,56.7255799 L39.9960804,56.7255799 C40.5134738,56.7255799 40.7016169,56.5374369 40.7016169,56.1768293 Z M45.0916218,54.2326843 C45.9696227,54.2326843 46.5967663,54.4600238 46.5967663,55.4791321 L46.5967663,55.8005432 L43.366977,55.8005432 L43.366977,55.9886863 C43.366977,56.647187 43.6805488,56.8196515 44.5350318,56.8196515 L45.2092112,56.8196515 C45.8285154,56.8196515 46.0793729,56.7412585 46.1028907,56.2944187 L46.588927,56.2944187 L46.588927,56.3571331 C46.588927,57.0234731 46.0401764,57.2272948 45.1308182,57.2272948 L44.244978,57.2272948 C43.6021558,57.2272948 42.8809407,57.1097054 42.8809407,56.035722 L42.8809407,55.4007392 C42.8809407,54.3502737 43.6178344,54.2326843 44.3076923,54.2326843 L45.0916218,54.2326843 Z M46.11073,55.4242571 L46.1028907,55.4242571 L46.1028907,55.2282747 C46.1028907,54.9382208 45.8755512,54.6403276 45.0837825,54.6403276 L44.3704067,54.6403276 C43.5943165,54.6403276 43.4061734,54.7657563 43.366977,55.4242571 L46.11073,55.4242571 Z M50.0695737,54.2326843 C50.9867712,54.2326843 51.2925037,54.5305775 51.2925037,55.236114 L51.2925037,55.5810429 L50.8378246,55.5810429 L50.8378246,55.4556142 C50.8378246,54.7422384 50.688878,54.624649 49.8187163,54.624649 L49.5129838,54.624649 C48.9955904,54.624649 48.744733,54.9538994 48.744733,55.3301855 L48.744733,57.1724197 L48.2586967,57.1724197 L48.2586967,54.2718808 L48.7133758,54.2718808 L48.7133758,54.6952027 L48.7212151,54.6952027 C48.9015189,54.3267558 49.2699657,54.2326843 49.6070554,54.2326843 L50.0695737,54.2326843 Z M52.7898089,53.0646294 L53.3904949,53.0646294 L53.3904949,57.1880983 L52.7898089,57.1880983 L52.7898089,53.0646294 Z M55.1964723,54.2875594 L55.7971583,54.2875594 L55.7971583,57.1880983 L55.1964723,57.1880983 L55.1964723,54.2875594 Z M55.1964723,53.0646294 L55.7971583,53.0646294 L55.7971583,53.6653154 L55.1964723,53.6653154 L55.1964723,53.0646294 Z M59.900049,54.2326843 C60.8172464,54.2326843 61.099461,54.6952027 61.1151396,55.2204354 L61.1151396,57.180259 L60.6291034,57.180259 L60.6291034,55.3380248 C60.6291034,54.9068636 60.5036747,54.6324883 59.55512,54.6324883 L59.4296913,54.6324883 C58.277315,54.6324883 58.0186183,54.8519886 58.0186183,55.5340072 L58.0186183,57.1880983 L57.5325821,57.1880983 L57.5325821,54.2875594 L57.9872611,54.2875594 L57.9872611,54.7814349 L57.9951004,54.7814349 C58.1754042,54.3345951 58.5595296,54.2326843 59.1631553,54.2326843 L59.900049,54.2326843 Z" transform="translate(0 -41)"/>
</svg>
