<svg width="56" height="57" viewBox="0 0 56 57" fill="none" xmlns="http://www.w3.org/2000/svg">
<g clip-path="url(#clip0_3502_355)">
<path d="M20.0119 30.2363C26.7689 37.2336 37.9192 37.4282 44.9165 30.6707C51.9138 23.9137 52.1085 12.7634 45.351 5.76609C38.5939 -1.2312 27.4441 -1.42585 20.4468 5.33163C13.4495 12.0887 13.2548 23.239 20.0119 30.2363Z" fill="url(#paint0_linear_3502_355)" style=""/>
<path d="M27.5877 35.6326C36.3305 31.3685 39.9614 20.8242 35.6973 12.081C31.4327 3.33821 20.8885 -0.292304 12.1457 3.97183C3.40291 8.23595 -0.227611 18.7802 4.03652 27.523C8.30065 36.2662 18.8449 39.8967 27.5877 35.6326Z" fill="url(#paint1_linear_3502_355)" style=""/>
<path d="M35.061 30.0949C33.7075 20.4625 24.8012 13.7511 15.1683 15.105C5.53587 16.4585 -1.17555 25.3647 0.177937 34.9976C1.53187 44.6306 10.4381 51.342 20.071 49.988C29.7035 48.6341 36.4149 39.7278 35.061 30.0949Z" fill="url(#paint2_linear_3502_355)" style=""/>
<path d="M32.1038 21.2763C22.5246 19.5872 13.3894 25.9839 11.7004 35.5635C10.0114 45.1431 16.4075 54.2779 25.9872 55.9674C35.5668 57.6564 44.7015 51.2597 46.391 41.6801C48.0801 32.101 41.6834 22.9653 32.1038 21.2763Z" fill="url(#paint3_linear_3502_355)" style=""/>
<path d="M22.8033 21.3634C18.2366 29.9522 21.4968 40.6171 30.0855 45.1838C38.6743 49.7505 49.3387 46.4898 53.9054 37.9011C58.4721 29.3123 55.2119 18.6479 46.6232 14.0812C38.0344 9.51448 27.37 12.7747 22.8033 21.3634Z" fill="url(#paint4_linear_3502_355)" style=""/>
<path d="M26.2234 35.0387C30.2648 35.7509 34.1185 33.0525 34.8311 29.011C35.5437 24.9696 32.8454 21.1159 28.8039 20.4033C24.7624 19.6907 20.9088 22.389 20.1961 26.4305C19.4835 30.472 22.1819 34.3261 26.2234 35.0387Z" fill="#666666" style="fill:#666666;fill:color(display-p3 0.4000 0.4000 0.4000);fill-opacity:1;"/>
</g>
<defs>
<linearGradient id="paint0_linear_3502_355" x1="57.5861" y1="18.4359" x2="33.1161" y2="-6.90346" gradientUnits="userSpaceOnUse">
<stop stop-color="#666666" stop-opacity="0.39" style="stop-color:#666666;stop-color:color(display-p3 0.4000 0.4000 0.4000);stop-opacity:0.39;"/>
<stop offset="1" stop-color="#666666" stop-opacity="0.15" style="stop-color:#666666;stop-color:color(display-p3 0.4000 0.4000 0.4000);stop-opacity:0.15;"/>
</linearGradient>
<linearGradient id="paint1_linear_3502_355" x1="27.9762" y1="-3.74911" x2="-3.68457" y2="11.6927" gradientUnits="userSpaceOnUse">
<stop stop-color="#666666" stop-opacity="0.39" style="stop-color:#666666;stop-color:color(display-p3 0.4000 0.4000 0.4000);stop-opacity:0.39;"/>
<stop offset="1" stop-color="#666666" stop-opacity="0.15" style="stop-color:#666666;stop-color:color(display-p3 0.4000 0.4000 0.4000);stop-opacity:0.15;"/>
</linearGradient>
<linearGradient id="paint2_linear_3502_355" x1="-1.9032" y1="17.5042" x2="2.89515" y2="51.6475" gradientUnits="userSpaceOnUse">
<stop stop-color="#666666" stop-opacity="0.39" style="stop-color:#666666;stop-color:color(display-p3 0.4000 0.4000 0.4000);stop-opacity:0.39;"/>
<stop offset="1" stop-color="#666666" stop-opacity="0.15" style="stop-color:#666666;stop-color:color(display-p3 0.4000 0.4000 0.4000);stop-opacity:0.15;"/>
</linearGradient>
<linearGradient id="paint3_linear_3502_355" x1="8.64189" y1="52.9081" x2="43.3322" y2="59.0255" gradientUnits="userSpaceOnUse">
<stop stop-color="#666666" stop-opacity="0.39" style="stop-color:#666666;stop-color:color(display-p3 0.4000 0.4000 0.4000);stop-opacity:0.39;"/>
<stop offset="1" stop-color="#666666" stop-opacity="0.15" style="stop-color:#666666;stop-color:color(display-p3 0.4000 0.4000 0.4000);stop-opacity:0.15;"/>
</linearGradient>
<linearGradient id="paint4_linear_3502_355" x1="45.6368" y1="53.4519" x2="62.1743" y2="22.3494" gradientUnits="userSpaceOnUse">
<stop stop-color="#666666" stop-opacity="0.39" style="stop-color:#666666;stop-color:color(display-p3 0.4000 0.4000 0.4000);stop-opacity:0.39;"/>
<stop offset="1" stop-color="#666666" stop-opacity="0.15" style="stop-color:#666666;stop-color:color(display-p3 0.4000 0.4000 0.4000);stop-opacity:0.15;"/>
</linearGradient>
<clipPath id="clip0_3502_355">
<rect width="56" height="56" fill="white" style="fill:white;fill-opacity:1;" transform="translate(0 0.379211)"/>
</clipPath>
</defs>
</svg>
