<svg width="56" height="57" viewBox="0 0 56 57" fill="none" xmlns="http://www.w3.org/2000/svg">
<g clip-path="url(#clip0_3489_10)">
<path d="M19.0478 0.497295C23.2731 0.0178516 27.6622 0.489499 31.5757 2.20718C35.0643 3.71957 38.0969 6.25451 40.2031 9.41961C42.6315 13.0343 43.8554 17.3753 44.0126 21.7058C44.2296 26.2144 43.2148 30.8049 40.9541 34.7262C38.9843 38.1706 36.0466 41.0668 32.5346 42.9222C28.46 45.0985 23.6876 45.8313 19.1245 45.2492C15.1564 44.7685 11.3169 43.1768 8.22589 40.6341C4.72817 37.7977 2.2322 33.8088 1.02645 29.4835C-0.178005 25.162 -0.141624 20.5248 0.964084 16.1864C2.07759 11.8233 4.53457 7.7721 8.07128 4.95521C11.1948 2.43846 15.0784 0.957248 19.0478 0.497295ZM20.607 6.85999C18.2539 7.12374 15.9931 8.10992 14.1923 9.64699C11.7756 11.696 10.1671 14.5766 9.3329 17.6078C8.28566 21.3992 8.41819 25.4868 9.59796 29.2301C10.5296 32.1159 12.1927 34.8509 14.6665 36.6608C16.8637 38.2888 19.6312 39.0489 22.3493 38.9814C25.1142 38.9723 27.8974 38.0563 30.0308 36.2749C32.3813 34.3351 33.9209 31.5637 34.7486 28.661C35.9686 24.3915 35.8205 19.7075 34.16 15.5744C33.0491 12.8329 31.2288 10.3122 28.7237 8.69071C26.3512 7.13024 23.4148 6.52347 20.607 6.85999ZM43.5825 37.0324C45.5991 36.019 47.8949 35.5226 50.1492 35.7071C51.6447 35.8254 53.1883 36.3906 54.1498 37.5937C55.1373 38.8553 55.3867 40.5509 55.2022 42.1062C54.932 44.0292 53.8756 45.7287 52.6933 47.2255C51.3082 48.9743 49.6789 50.5049 48.0963 52.0693C50.6871 52.0706 53.278 52.0654 55.8688 52.0719C55.8688 53.0788 55.8779 54.0871 55.8649 55.094C51.6226 55.0837 47.3804 55.0927 43.1369 55.0901C43.1382 54.0104 43.1343 52.932 43.1395 51.8536C45.0612 50.0969 46.9893 48.3338 48.6966 46.364C49.6672 45.2037 50.6131 43.9772 51.1458 42.548C51.455 41.7164 51.5408 40.7069 51.0146 39.9442C50.4065 39.0411 49.254 38.6825 48.2081 38.715C46.6372 38.715 45.1859 39.4322 43.8762 40.2339C43.7852 39.1659 43.6618 38.1004 43.5825 37.0324Z" fill="#666666" style="fill:#666666;fill:color(display-p3 0.4000 0.4000 0.4000);fill-opacity:1;"/>
</g>
<defs>
<clipPath id="clip0_3489_10">
<rect width="56" height="56" fill="white" style="fill:white;fill-opacity:1;" transform="translate(0 0.259521)"/>
</clipPath>
</defs>
</svg>
