<svg width="131" height="25" viewBox="0 0 131 25" fill="none" xmlns="http://www.w3.org/2000/svg">
<g clip-path="url(#clip0_3489_31)">
<path fill-rule="evenodd" clip-rule="evenodd" d="M4.16065 10.8873C3.63486 11.4553 3.22477 12.1221 2.93101 12.8892C2.63655 13.6563 2.48963 14.4809 2.48963 15.3636V15.4261C2.48963 16.3089 2.64238 17.1334 2.94709 17.9005C3.25085 18.6677 3.67207 19.3394 4.20795 19.9176C4.74383 20.4956 5.37335 20.9472 6.09832 21.2729C6.82329 21.5988 7.61659 21.7616 8.47832 21.7616C9.52818 21.7616 10.4582 21.5304 11.2675 21.0678C11.9174 20.6965 12.5031 20.2299 13.0508 19.7082C13.1327 19.9471 13.2078 20.1876 13.304 20.4205C13.4998 20.8957 13.7302 21.3489 13.9775 21.7912C13.428 22.2713 12.8432 22.6975 12.2127 23.0537C11.173 23.6419 9.88601 23.9357 8.35261 23.9357C7.15409 23.9357 6.04607 23.7102 5.02655 23.2579C4.00791 22.8072 3.12514 22.1979 2.37991 21.4299C1.6339 20.6636 1.05073 19.7656 0.630383 18.7351C0.210128 17.7064 -4.25523e-07 16.6236 -4.25523e-07 15.4893V15.4261C-4.25523e-07 14.2707 0.210128 13.1777 0.630383 12.1482C1.05073 11.1194 1.6339 10.2155 2.37991 9.43822C3.12514 8.66099 4.00791 8.04661 5.02655 7.59418C6.04607 7.14272 7.15409 6.91659 8.35261 6.91659C9.12896 6.91659 9.83368 6.98997 10.4641 7.13681C11.0945 7.28451 11.6718 7.48873 12.1976 7.75206C12.7225 8.01453 13.2061 8.32429 13.6474 8.68125C13.7808 8.79018 13.8914 8.91337 14.0196 9.02561C13.7538 9.49733 13.5065 9.98175 13.298 10.4916C13.1918 10.7523 13.1065 11.0207 13.0178 11.2874C12.4339 10.7185 11.8144 10.2088 11.1418 9.78431C10.3747 9.30155 9.43368 9.06013 8.32044 9.06013C7.50097 9.06013 6.73383 9.22226 6.0199 9.54802C5.30501 9.87456 4.68558 10.3202 4.16065 10.8873ZM31.3283 9.42205C32.0845 10.1893 32.6728 11.0821 33.093 12.1016C33.5133 13.1211 33.7235 14.2081 33.7235 15.3634V15.4267C33.7235 16.5821 33.5082 17.675 33.0778 18.7038C32.6466 19.7343 32.0533 20.6372 31.2972 21.4146C30.5401 22.1918 29.637 22.807 28.5863 23.2586C27.5356 23.7101 26.4005 23.9363 25.1827 23.9363C23.9632 23.9363 22.839 23.7101 21.8103 23.2586C20.7807 22.807 19.8878 22.1977 19.1308 21.4306C18.3746 20.6634 17.7864 19.7706 17.366 18.751C16.9458 17.7324 16.7356 16.6454 16.7356 15.4892V15.4267C16.7356 14.2714 16.9458 13.1784 17.366 12.148C17.7864 11.1192 18.3746 10.2154 19.1308 9.43804C19.8878 8.66082 20.7857 8.04643 21.8264 7.59401C22.866 7.14263 24.0054 6.91642 25.2452 6.91642C26.4639 6.91642 27.5939 7.14263 28.6336 7.59401C29.6733 8.04643 30.5722 8.65578 31.3283 9.42205ZM31.2338 15.4892V15.4267C31.2338 14.544 31.081 13.7195 30.7764 12.9523C30.4717 12.1852 30.0464 11.5133 29.5003 10.9353C28.9535 10.3571 28.3129 9.90064 27.5779 9.56384C26.8419 9.228 26.0435 9.06004 25.1827 9.06004C24.2999 9.06004 23.4906 9.228 22.7555 9.56384C22.0195 9.90064 21.3951 10.3521 20.8803 10.9192C20.3655 11.4864 19.9604 12.154 19.6667 12.9203C19.3722 13.6882 19.2253 14.5018 19.2253 15.3634V15.4267C19.2253 16.3086 19.378 17.1332 19.6827 17.9004C19.9874 18.6675 20.4076 19.3342 20.9436 19.9013C21.4786 20.4694 22.1141 20.9208 22.85 21.2568C23.5851 21.5935 24.3835 21.7614 25.2452 21.7614C26.1279 21.7614 26.9365 21.5935 27.6724 21.2568C28.4074 20.9208 29.0378 20.4694 29.5636 19.9013C30.0885 19.3342 30.4979 18.6726 30.7924 17.9164C31.0862 17.1593 31.2338 16.351 31.2338 15.4892ZM44.2541 0.550072H46.9042L37.8832 23.5577H35.2324L44.2541 0.550072ZM51.1077 0.550072H53.7577L44.7367 23.5577H42.0867L51.1077 0.550072ZM66.2239 9.43804C66.8745 10.2153 67.3683 11.1293 67.705 12.18C68.0409 13.2307 68.2097 14.3549 68.2097 15.5524V15.9145C68.2097 16.052 68.1987 16.214 68.1785 16.4031H55.2559C55.3395 17.2656 55.5497 18.0319 55.8855 18.7038C56.2223 19.3763 56.6527 19.9444 57.1785 20.4059C57.7035 20.8684 58.2916 21.2203 58.9432 21.4618C59.5947 21.704 60.2774 21.8246 60.9922 21.8246C62.1265 21.8246 63.0979 21.6144 63.9072 21.1942C64.7158 20.7739 65.4567 20.2169 66.1294 19.5231L67.6425 20.8786C66.8231 21.8035 65.8872 22.5446 64.8372 23.1006C63.7857 23.6576 62.4835 23.9362 60.9289 23.9362C59.8149 23.9362 58.7642 23.7311 57.7768 23.3209C56.7894 22.9116 55.9278 22.3344 55.1926 21.5875C54.4568 20.8423 53.8736 19.9444 53.444 18.8928C53.0128 17.8429 52.7975 16.6867 52.7975 15.4266C52.7975 14.2494 52.9916 13.1413 53.3808 12.1015C53.7688 11.0609 54.3099 10.1579 55.0036 9.39075C55.6974 8.62361 56.5219 8.02018 57.478 7.57793C58.4334 7.13741 59.4791 6.91633 60.6142 6.91633C61.8118 6.91633 62.8827 7.14246 63.8288 7.59401C64.774 8.04635 65.5724 8.66073 66.2239 9.43804ZM55.2559 14.4182H65.7504C65.688 13.6864 65.5302 12.9919 65.2778 12.3345C65.0263 11.6762 64.6845 11.0964 64.2541 10.595C63.8228 10.0937 63.2979 9.69625 62.6785 9.40422C62.0582 9.11142 61.3492 8.96545 60.5508 8.96545C59.8572 8.96545 59.2057 9.10125 58.5963 9.37223C57.987 9.64478 57.4511 10.0254 56.9894 10.5166C56.5269 11.0078 56.143 11.5867 55.8391 12.2559C55.5345 12.9243 55.3395 13.645 55.2559 14.4182ZM82.3905 21.0681C83.199 20.6056 83.9299 20.0283 84.5814 19.3347L86.1258 20.7846C85.3055 21.7086 84.3763 22.4656 83.3358 23.0531C82.296 23.6413 81.009 23.9359 79.4755 23.9359C78.278 23.9359 77.169 23.7097 76.1504 23.2582C75.1309 22.8066 74.2481 22.1981 73.5029 21.4301C72.7569 20.6638 72.1738 19.7659 71.7534 18.7354C71.3332 17.7066 71.123 16.6239 71.123 15.4896V15.4264C71.123 14.271 71.3332 13.178 71.7534 12.1484C72.1738 11.1197 72.7569 10.2158 73.5029 9.43769C74.2481 8.66126 75.1309 8.046 76.1504 7.59445C77.169 7.14298 78.278 6.91677 79.4755 6.91677C80.2519 6.91677 80.9566 6.99023 81.587 7.13707C82.2175 7.28477 82.7948 7.48899 83.3206 7.75232C83.8455 8.01479 84.329 8.32455 84.7705 8.68151C85.211 9.03935 85.6212 9.41744 85.9992 9.81657L84.3923 11.518C83.7409 10.8454 83.0311 10.2681 82.2647 9.78458C81.4977 9.30181 80.5566 9.0596 79.4434 9.0596C78.6239 9.0596 77.8568 9.22244 77.1429 9.54819C76.4281 9.87403 75.8086 10.3205 75.2837 10.8876C74.7578 11.4547 74.3485 12.1223 74.054 12.8895C73.7594 13.6566 73.6126 14.4811 73.6126 15.363V15.4264C73.6126 16.3091 73.7654 17.1336 74.0701 17.9008C74.3747 18.6679 74.7949 19.3396 75.3309 19.9178C75.8669 20.4959 76.4964 20.9474 77.2222 21.2723C77.9463 21.5989 78.7396 21.7619 79.6013 21.7619C80.652 21.7619 81.5812 21.5306 82.3905 21.0681ZM93.0736 2.34637V7.29025H98.2429V9.43387H93.0736V18.9004C93.0736 19.9064 93.3257 20.6085 93.8299 21.0059C94.3341 21.4043 94.9957 21.6035 95.8156 21.6035C96.2355 21.6035 96.6293 21.5647 96.9979 21.4845C97.3648 21.4052 97.7586 21.2668 98.1794 21.0684V23.1479C97.7586 23.3792 97.3126 23.553 96.8397 23.6678C96.3676 23.7834 95.8364 23.8417 95.2479 23.8417C94.5967 23.8417 93.9873 23.7573 93.4204 23.5893C92.8527 23.4214 92.3641 23.1538 91.9547 22.7859C91.5452 22.418 91.2244 21.9403 90.9931 21.352C90.7619 20.7637 90.6471 20.0591 90.6471 19.2396V9.43387H88.3781V7.29025H90.6471V2.34637H93.0736ZM112.231 1.33773H114.564L124.618 23.558H121.939L119.354 17.7273H107.347L104.731 23.558H102.178L112.231 1.33773ZM108.324 15.489H118.378L113.367 4.23753L108.324 15.489ZM128.014 23.5578V1.33746H130.504V23.5578H128.014Z" fill="#666666" style="fill:#666666;fill:color(display-p3 0.4000 0.4000 0.4000);fill-opacity:1;"/>
</g>
<defs>
<clipPath id="clip0_3489_31">
<rect width="130.5" height="23.7273" fill="white" style="fill:white;fill-opacity:1;" transform="translate(0 0.379211)"/>
</clipPath>
</defs>
</svg>
