<svg width="144" height="23" viewBox="0 0 144 23" fill="none" xmlns="http://www.w3.org/2000/svg">
<g clip-path="url(#clip0_3501_263)">
<path fill-rule="evenodd" clip-rule="evenodd" d="M3.80507 21.5437V13.4842H7.41285C9.94957 13.4842 11.4716 12.8621 12.5426 11.731C13.5291 10.713 14.0929 9.18591 14.0929 7.63058C14.0929 6.07526 13.5291 4.5482 12.5426 3.53017C11.4434 2.37075 9.94957 1.74861 7.41285 1.74861H0V21.5437H3.80507ZM7.24371 10.091H3.80505V5.14221H7.24371C8.54026 5.14221 9.1885 5.45328 9.63947 5.93402C10.0623 6.38647 10.2878 6.98032 10.2878 7.63073C10.2878 8.28115 10.0623 8.84672 9.63947 9.29915C9.1885 9.77992 8.54026 10.091 7.24371 10.091ZM20.0863 21.5439V1.46602H16.4221V21.5439H20.0863ZM29.7438 21.8268C31.1249 21.8268 32.4214 21.4026 33.5489 20.4411V21.544H37.0721V7.82879H33.5489V8.93167C32.4778 8.05503 31.0967 7.54601 29.5465 7.54601C25.826 7.54601 22.8383 10.6567 22.8383 14.7006C22.8383 16.5669 23.5147 18.2637 24.5858 19.5079C25.7978 20.9219 27.7144 21.8268 29.7438 21.8268ZM30.1101 18.433C28.0525 18.433 26.5024 16.8494 26.5024 14.7002C26.5024 12.7207 27.8835 10.9391 30.0256 10.9391C31.4348 10.9391 32.6468 11.6179 33.4078 12.6359V16.7363C32.7032 17.7543 31.4912 18.433 30.1101 18.433ZM45.0948 21.8268C47.9698 21.8268 50.5346 20.2149 50.5346 17.585C50.5346 14.6732 48.0465 13.8116 46.1202 13.1707L45.8211 13.071C44.745 12.7105 43.9111 12.3917 43.9111 11.7596C43.9111 11.0526 44.7566 10.6567 45.7713 10.6567C46.7578 10.6567 47.6879 11.0808 48.3925 11.5899L50.1119 8.93167C49.2099 8.22469 47.2651 7.54601 45.4894 7.54601C42.7836 7.54601 40.2469 9.18616 40.2469 11.8161C40.2469 16.2275 46.8705 15.4923 46.8705 17.5567C46.8705 18.2354 46.1095 18.7161 45.123 18.7161C43.7419 18.7161 42.3045 18.2071 41.3743 17.3587L39.5986 19.9886C41.2052 21.1764 43.2064 21.8268 45.0948 21.8268ZM61.0095 21.8267C61.7141 21.8267 62.8133 21.7136 63.2925 21.544L62.7288 18.4333C62.4751 18.4898 61.7705 18.5747 61.235 18.5747C60.333 18.5747 59.7411 18.3202 59.3747 17.896C59.0647 17.5284 58.9237 17.0194 58.9237 16.171V10.9395H63.4335V7.82879H58.9237V4.01116H55.2596V7.82879H51.4545V10.9395H55.2596V15.7469C55.2596 17.698 55.5697 18.914 56.2743 19.8473C57.2044 21.0915 58.811 21.8267 61.0095 21.8267ZM68.4403 5.31188C69.7651 5.31188 70.8361 4.29385 70.8361 2.96475C70.8361 1.63565 69.7651 0.617615 68.4403 0.617615C67.1156 0.617615 66.0445 1.63565 66.0445 2.96475C66.0445 4.29385 67.1156 5.31188 68.4403 5.31188ZM70.2725 21.5438V7.82866H66.6083V21.5438H70.2725ZM80.3528 21.8268C82.9176 21.8268 84.9472 20.8936 86.5534 18.7444L83.7353 16.6234C83.1431 17.5284 81.9593 18.4333 80.4655 18.4333C78.2388 18.4333 76.6886 16.8497 76.6886 14.7006C76.6886 12.6079 78.267 10.9395 80.3809 10.9395C81.7057 10.9395 82.8049 11.6181 83.5378 12.5796L86.1307 10.2891C84.8627 8.64888 82.7486 7.54601 80.3809 7.54601C76.2095 7.54601 73.0245 10.7132 73.0245 14.7006C73.0245 18.6596 76.1249 21.8268 80.3528 21.8268ZM92.9697 21.5437V13.4842H96.5771C99.114 13.4842 100.637 12.8621 101.707 11.731C102.694 10.713 103.257 9.18591 103.257 7.63058C103.257 6.07526 102.694 4.5482 101.707 3.53017C100.608 2.37075 99.114 1.74861 96.5771 1.74861H89.1648V21.5437H92.9697ZM96.4081 10.091H92.9697V5.14221H96.4081C97.7046 5.14221 98.3532 5.45328 98.8044 5.93402C99.227 6.38647 99.4522 6.98032 99.4522 7.63073C99.4522 8.28115 99.227 8.84672 98.8044 9.29915C98.3532 9.77992 97.7046 10.091 96.4081 10.091ZM109.251 21.5439V1.46602H105.586V21.5439H109.251ZM118.909 21.8268C120.29 21.8268 121.586 21.4026 122.714 20.4411V21.544H126.237V7.82879H122.714V8.93167C121.642 8.05503 120.261 7.54601 118.711 7.54601C114.991 7.54601 112.003 10.6567 112.003 14.7006C112.003 16.5669 112.679 18.2637 113.75 19.5079C114.962 20.9219 116.879 21.8268 118.909 21.8268ZM119.275 18.433C117.217 18.433 115.667 16.8494 115.667 14.7002C115.667 12.7207 117.048 10.9391 119.19 10.9391C120.599 10.9391 121.811 11.6179 122.573 12.6359V16.7363C121.868 17.7543 120.656 18.433 119.275 18.433ZM133.78 21.544V12.6362C134.287 11.9292 135.556 10.9395 137.106 10.9395C137.952 10.9395 138.685 11.2222 139.164 11.703C139.671 12.212 139.981 12.9189 139.981 14.2764V21.544H143.645V14.5591C143.645 12.212 143.138 10.8263 142.236 9.75171C141.109 8.39437 139.389 7.54601 137.501 7.54601C135.979 7.54601 134.683 8.0833 133.64 8.93167V7.82879H130.116V21.544H133.78Z" fill="#666666" style="fill:#666666;fill:color(display-p3 0.4000 0.4000 0.4000);fill-opacity:1;"/>
</g>
<defs>
<clipPath id="clip0_3501_263">
<rect width="143.961" height="21.7616" fill="white" style="fill:white;fill-opacity:1;" transform="translate(0 0.617615)"/>
</clipPath>
</defs>
</svg>
