<svg width="56" height="57" viewBox="0 0 56 57" fill="none" xmlns="http://www.w3.org/2000/svg">
<g clip-path="url(#clip0_3489_5)">
<path fill-rule="evenodd" clip-rule="evenodd" d="M55.996 28.3309C55.996 43.7223 43.5192 56.1991 28.1278 56.1991C12.7364 56.1991 0.259576 43.7223 0.259576 28.3309C0.259576 12.9394 12.7364 0.462646 28.1278 0.462646C43.5192 0.462646 55.996 12.9394 55.996 28.3309Z" fill="#999999" style="fill:#999999;fill:color(display-p3 0.6000 0.6000 0.6000);fill-opacity:1;"/>
<path fill-rule="evenodd" clip-rule="evenodd" d="M13.1784 31.005C13.3741 30.9451 13.5691 30.8548 13.7345 30.8548C13.9743 30.8548 14.1403 31.0498 14.1403 31.3358V31.3806C14.1403 31.6658 14.0046 31.8918 13.554 32.042C13.1633 32.1771 12.5328 32.3121 11.8107 32.3121C9.46729 32.3121 8.10023 30.7797 8.10023 28.3309C8.10023 25.6112 9.45214 24.1236 11.8858 24.1236C12.4722 24.1236 13.1633 24.2587 13.5243 24.3792C13.915 24.4992 14.11 24.6797 14.11 25.0097V25.0704C14.11 25.3708 13.9447 25.5658 13.7042 25.5658C13.5388 25.5658 13.3438 25.4755 13.1481 25.4156C12.8925 25.3405 12.4267 25.2054 11.9609 25.2054C10.4437 25.2054 9.57271 26.2273 9.57271 28.2255C9.57271 29.8936 10.3383 31.2159 11.9313 31.2159C12.4267 31.2159 12.9228 31.0801 13.1784 31.005ZM41.7381 31.5759C41.7381 31.9817 41.4673 32.2374 41.0319 32.2374C40.6109 32.2374 40.3256 31.9817 40.3256 31.5759V24.8599C40.3256 24.4395 40.6109 24.1991 41.0319 24.1991C41.4673 24.1991 41.7381 24.4395 41.7381 24.8599V31.5759ZM20.4196 26.693V31.5762C20.4196 31.982 20.164 32.2376 19.7285 32.2376C19.2923 32.2376 19.0222 31.982 19.0222 31.5762V24.8298C19.0222 24.4391 19.2923 24.1987 19.7133 24.1987C20.1336 24.1987 20.3748 24.4391 20.3748 24.8298V25.5058H20.4196C20.9605 24.6948 21.4111 24.1236 22.2076 24.1236C22.5983 24.1236 22.9738 24.1835 23.2295 24.3041C23.4844 24.424 23.605 24.6045 23.605 24.9504V24.9952C23.605 25.3556 23.4693 25.5809 23.2143 25.5809C23.0944 25.5809 22.9738 25.5361 22.8085 25.4906C22.568 25.4307 22.3275 25.3707 22.0574 25.3707C21.4862 25.3707 20.9908 25.8062 20.4196 26.693ZM29.374 31.005C29.5696 30.9451 29.7647 30.8548 29.93 30.8548C30.1698 30.8548 30.3359 31.0498 30.3359 31.3358V31.3806C30.3359 31.6658 30.2001 31.8918 29.7495 32.042C29.3588 32.1771 28.7277 32.3121 28.0063 32.3121C25.6628 32.3121 24.2958 30.7797 24.2958 28.3309C24.2958 25.6112 25.6477 24.1236 28.082 24.1236C28.6677 24.1236 29.3588 24.2587 29.7192 24.3792C30.1099 24.4992 30.3056 24.6797 30.3056 25.0097V25.0704C30.3056 25.3708 30.1402 25.5658 29.8997 25.5658C29.7344 25.5658 29.5393 25.4755 29.3437 25.4156C29.0887 25.3405 28.6223 25.2054 28.1571 25.2054C26.6392 25.2054 25.7676 26.2273 25.7676 28.2255C25.7676 29.8936 26.5344 31.2159 28.1268 31.2159C28.6223 31.2159 29.1184 31.0801 29.374 31.005ZM31.5968 24.8598C31.5968 24.4395 31.867 24.199 32.3183 24.199C32.7241 24.199 33.0094 24.4395 33.0094 24.8598V29.3523C33.0094 30.7345 33.7301 31.1555 34.5273 31.1555C35.4134 31.1555 36.345 30.4941 36.7956 29.8636V24.8598C36.7956 24.4395 37.0657 24.199 37.5164 24.199C37.9229 24.199 38.2081 24.4395 38.2081 24.8598V31.591C38.2081 31.9968 37.9374 32.2373 37.5164 32.2373C37.096 32.2373 36.8404 31.9968 36.8404 31.591V31.0053H36.7956C36.2844 31.6061 35.3528 32.3276 34.0457 32.3276C32.5284 32.3276 31.5968 31.396 31.5968 29.4426V24.8598ZM15.5067 24.86C15.5067 24.4542 15.7768 24.1985 16.213 24.1985C16.634 24.1985 16.9186 24.4542 16.9186 24.86V31.576C16.9186 31.997 16.634 32.2375 16.213 32.2375C15.7768 32.2375 15.5067 31.997 15.5067 31.576V24.86ZM45.7043 29.8481C45.7043 30.81 46.0647 31.1849 46.7406 31.1849C46.9963 31.1849 47.2216 31.1408 47.4021 31.1105C47.5371 31.065 47.6274 31.0505 47.7177 31.0505C47.9581 31.0505 48.0932 31.2304 48.0932 31.5459V31.5611C48.0932 31.9215 47.8975 32.1171 47.5068 32.1922C47.2216 32.2522 46.8012 32.3273 46.3499 32.3273C45.0731 32.3273 44.2918 31.7264 44.2918 30.059V25.3708H43.4953C43.1645 25.3708 42.9695 25.1606 42.9695 24.8147C42.9695 24.484 43.1645 24.2738 43.4953 24.2738H44.2918V22.1333C44.2918 21.7123 44.5771 21.4719 44.998 21.4719C45.4335 21.4719 45.7043 21.7123 45.7043 22.1333V24.2738H47.3118C47.6274 24.2738 47.8224 24.484 47.8224 24.8147C47.8224 25.1606 47.6274 25.3708 47.3118 25.3708H45.7043V29.8481Z" fill="#FFFFFE" style="fill:#FFFFFE;fill:color(display-p3 1.0000 1.0000 0.9961);fill-opacity:1;"/>
<path fill-rule="evenodd" clip-rule="evenodd" d="M32.7093 35.4327C32.3127 35.4327 32.0129 35.6554 31.8238 35.9116V37.1641C31.9694 37.3914 32.308 37.6187 32.6559 37.6187C33.1059 37.6187 33.4979 37.3334 33.4979 36.5158C33.4979 35.7568 33.1105 35.4327 32.7093 35.4327ZM31.8238 37.7155C31.8238 37.7735 31.781 37.8077 31.7125 37.8077C31.6499 37.8077 31.5972 37.7735 31.5972 37.7155V34.3199C31.5972 34.2666 31.6453 34.2284 31.7125 34.2284C31.781 34.2284 31.8238 34.2666 31.8238 34.3199V35.6409H31.839C32.0175 35.4182 32.2889 35.2199 32.7284 35.2199C33.2462 35.2199 33.7298 35.6211 33.7298 36.5211C33.7298 37.4493 33.2416 37.8315 32.6658 37.8315C32.308 37.8315 32.0076 37.6674 31.839 37.4157H31.8238V37.7155ZM33.9315 35.4376C33.917 35.4086 33.9025 35.3796 33.9025 35.3454C33.9025 35.2973 33.9459 35.2439 34.023 35.2439C34.0665 35.2439 34.0955 35.2637 34.1153 35.3065L35.087 37.4062L35.9626 35.3217C35.987 35.2637 36.016 35.2439 36.0647 35.2439C36.1418 35.2439 36.1807 35.2973 36.1807 35.35C36.1807 35.3645 36.1754 35.3843 36.1708 35.3988L35.1747 37.7837C34.8894 38.461 34.6865 38.8477 34.2411 38.8477C34.1298 38.8477 34.023 38.8233 33.9697 38.7989C33.8972 38.77 33.8735 38.7219 33.8735 38.6692V38.6639C33.8735 38.6059 33.9025 38.5763 33.9315 38.5763C33.9604 38.5763 33.9842 38.5914 34.0329 38.6105C34.081 38.6303 34.1443 38.6494 34.2312 38.6494C34.5119 38.6494 34.6713 38.4122 34.981 37.7013L33.9315 35.4376ZM38.0774 35.3362C38.0774 35.2775 38.1255 35.2439 38.194 35.2439C38.252 35.2439 38.3099 35.2775 38.3099 35.3362V36.8982C38.3099 37.4306 38.6143 37.619 38.9332 37.619C39.2817 37.619 39.6348 37.3726 39.8048 37.1453V35.3362C39.8048 35.2775 39.8529 35.2439 39.9201 35.2439C39.9781 35.2439 40.0367 35.2775 40.0367 35.3362V37.7158C40.0367 37.7738 39.9781 37.8081 39.9201 37.8081C39.8529 37.8081 39.8048 37.7738 39.8048 37.7158V37.4016H39.7896C39.6203 37.5999 39.3008 37.8371 38.8851 37.8371C38.4015 37.8371 38.0774 37.532 38.0774 36.8936V35.3362ZM42.6621 37.7158C42.6621 37.7738 42.618 37.8074 42.5508 37.8074C42.4882 37.8074 42.4348 37.7738 42.4348 37.7158V36.1584C42.4348 35.626 42.1298 35.433 41.8109 35.433C41.4578 35.433 41.1093 35.6847 40.9353 35.912V37.7158C40.9353 37.7738 40.8912 37.8074 40.824 37.8074C40.7614 37.8074 40.708 37.7738 40.708 37.7158V35.3362C40.708 35.2775 40.7614 35.2439 40.824 35.2439C40.8912 35.2439 40.9353 35.2775 40.9353 35.3362V35.655H40.9498C41.1238 35.4567 41.438 35.2202 41.8537 35.2202C42.3426 35.2202 42.6621 35.5246 42.6621 36.163V37.7158ZM43.5433 37.7158C43.5433 37.7738 43.4998 37.8074 43.432 37.8074C43.3694 37.8074 43.3167 37.7738 43.3167 37.7158V35.3362C43.3167 35.2775 43.3694 35.2439 43.432 35.2439C43.4998 35.2439 43.5433 35.2775 43.5433 35.3362V37.7158ZM43.4372 34.2379C43.5242 34.2379 43.5914 34.3058 43.5914 34.3927C43.5914 34.4797 43.5242 34.5476 43.4372 34.5476C43.3496 34.5476 43.2824 34.4797 43.2824 34.3927C43.2824 34.3058 43.3496 34.2379 43.4372 34.2379ZM44.6277 37.7158C44.6277 37.7738 44.5842 37.8074 44.5164 37.8074C44.4531 37.8074 44.4004 37.7738 44.4004 37.7158V35.4811H44.0565C43.9992 35.4811 43.9649 35.4376 43.9649 35.3744C43.9649 35.3118 43.9992 35.2683 44.0565 35.2683H44.4004V35.0891C44.4004 34.4553 44.6422 34.1799 45.0388 34.1799C45.1745 34.1799 45.3004 34.2043 45.363 34.228C45.4499 34.257 45.4789 34.3058 45.4789 34.3591V34.3637C45.4789 34.4217 45.4453 34.4507 45.4064 34.4507C45.3676 34.4507 45.3386 34.4362 45.2806 34.4171C45.218 34.3973 45.1403 34.3782 45.0336 34.3782C44.7727 34.3782 44.6277 34.6154 44.6277 35.0937V35.2683H45.2081C45.2661 35.2683 45.3004 35.3118 45.3004 35.3744C45.3004 35.4376 45.2661 35.4811 45.2081 35.4811H44.6277V37.7158ZM45.5642 35.4376C45.5491 35.4086 45.5352 35.3796 45.5352 35.3454C45.5352 35.2973 45.5787 35.2439 45.6558 35.2439C45.7 35.2439 45.7289 35.2637 45.748 35.3065L46.7205 37.4062L47.5954 35.3217C47.6198 35.2637 47.6488 35.2439 47.6968 35.2439C47.7746 35.2439 47.8135 35.2973 47.8135 35.35C47.8135 35.3645 47.8082 35.3843 47.8036 35.3988L46.8074 37.7837C46.5215 38.461 46.3186 38.8477 45.8732 38.8477C45.7619 38.8477 45.6558 38.8233 45.6024 38.7989C45.53 38.77 45.5056 38.7219 45.5056 38.6692V38.6639C45.5056 38.6059 45.5352 38.5763 45.5642 38.5763C45.5926 38.5763 45.6169 38.5914 45.6657 38.6105C45.7138 38.6303 45.777 38.6494 45.864 38.6494C46.144 38.6494 46.3041 38.4122 46.6137 37.7013L45.5642 35.4376Z" fill="black" style="fill:black;fill-opacity:1;"/>
</g>
<defs>
<clipPath id="clip0_3489_5">
<rect width="56" height="56" fill="white" style="fill:white;fill-opacity:1;" transform="translate(0 0.259521)"/>
</clipPath>
</defs>
</svg>
