<svg width="131" height="24" viewBox="0 0 131 24" fill="none" xmlns="http://www.w3.org/2000/svg">
<path d="M130.888 0.939526H126.374V23.7129H130.888V0.939526Z" fill="#999999" style="fill:#999999;fill:color(display-p3 0.6000 0.6000 0.6000);fill-opacity:1;"/>
<path d="M114.501 7.24082L117.432 15.7052H111.586L114.501 7.24082ZM112.317 0.937719L104.226 23.7111H108.843L110.195 19.8214H118.782L120.133 23.7111H124.75L116.659 0.937719H112.317Z" fill="#999999" style="fill:#999999;fill:color(display-p3 0.6000 0.6000 0.6000);fill-opacity:1;"/>
<path d="M97.2149 16.5174V11.3808H100.292V7.49205H97.2149V0.399687L92.7013 2.83323V16.6635C92.7013 21.9453 94.4068 23.6974 99.6274 23.6974H100.292V19.5136C97.5684 19.5136 97.2358 19.1181 97.2358 16.6014" fill="#666666" style="fill:#666666;fill:color(display-p3 0.4000 0.4000 0.4000);fill-opacity:1;"/>
<path d="M85.7167 17.0545L85.64 17.1942C85.207 17.9774 84.5272 18.5955 83.7065 18.9523C82.8858 19.3092 81.9702 19.3848 81.1021 19.1674C80.234 18.9499 79.4621 18.4517 78.9064 17.7502C78.3508 17.0486 78.0427 16.1831 78.0299 15.2883C78.0171 14.3935 78.3004 13.5195 78.8358 12.8024C79.3711 12.0852 80.1285 11.5652 80.99 11.323C81.8515 11.0809 82.769 11.1303 83.5995 11.4636C84.4301 11.7968 85.1272 12.3952 85.5824 13.1657L85.6582 13.2991L89.6438 10.998L89.5698 10.8738C88.8199 9.56786 87.7324 8.4878 86.4213 7.74686C85.1103 7.00592 83.624 6.63139 82.1184 6.66257C79.8932 6.73872 77.7846 7.67623 76.2374 9.27731C74.6902 10.8784 73.8253 13.0179 73.8253 15.2444C73.8253 17.4709 74.6902 19.6104 76.2374 21.2114C77.7846 22.8125 79.8932 23.75 82.1184 23.8262C83.6468 23.8615 85.1555 23.4767 86.4803 22.7139C87.8051 21.9511 88.8952 20.8394 89.632 19.4999L89.7059 19.3665L85.7167 17.0545Z" fill="#666666" style="fill:#666666;fill:color(display-p3 0.4000 0.4000 0.4000);fill-opacity:1;"/>
<path d="M58.7678 13.4791C59.1333 12.7061 59.7039 12.0483 60.4175 11.5771C61.131 11.106 61.9601 10.8397 62.8145 10.8071C63.6703 10.8341 64.5018 11.0981 65.2163 11.5699C65.9309 12.0417 66.5003 12.7026 66.8613 13.4791L66.9252 13.6051H58.7038L58.7678 13.4791ZM65.9003 23.3585L66.1378 23.2735C66.2346 23.2388 66.336 23.1986 66.4237 23.1594L66.5635 23.1009C66.6658 23.0552 66.7672 23.0095 66.8677 22.9566L66.9426 22.9173C68.094 22.3304 69.085 21.472 69.8301 20.4161L69.8694 20.3604L66.1862 18.379C65.9805 18.6265 65.7466 18.849 65.4892 19.0422L65.3358 19.151C65.2508 19.2058 65.1686 19.2569 65.0855 19.3053L65.0361 19.3346L65.017 19.3464C64.996 19.3583 64.9759 19.3711 64.9539 19.3821C64.8325 19.4464 64.7078 19.5043 64.5803 19.5556L64.4387 19.6086C64.3154 19.6543 64.193 19.6926 64.0651 19.7264L64.0039 19.7447C63.8501 19.7836 63.6942 19.8141 63.5371 19.8361L63.4193 19.8507C63.2552 19.8693 63.0902 19.879 62.9251 19.8799H62.8977C62.7615 19.8799 62.4409 19.868 62.4409 19.868C62.3153 19.8673 62.1899 19.8585 62.0655 19.8415C61.8447 19.816 61.6271 19.7683 61.416 19.699L61.0953 19.5885C61.0396 19.5693 60.9884 19.5474 60.9318 19.5218L60.7893 19.4615L60.5034 19.3145C60.4623 19.2916 60.423 19.2679 60.3837 19.2423L60.2997 19.1893C60.2775 19.1763 60.2562 19.162 60.2357 19.1464C60.1791 19.1089 60.1225 19.066 60.0576 19.0158L60.0183 18.9856C59.9635 18.9427 59.8767 18.8687 59.8256 18.8221L59.7671 18.7673C59.7086 18.7088 59.6557 18.6558 59.6073 18.6038L59.5598 18.549C59.5077 18.4887 59.4584 18.4284 59.409 18.3663L59.3716 18.316C59.3213 18.2484 59.2738 18.1799 59.23 18.1086L59.1889 18.0456C59.1456 17.9785 59.1063 17.909 59.071 17.8373L59.0564 17.8081C58.8961 17.5115 58.8116 17.1798 58.8107 16.8426L58.818 16.764H71.0634L71.0561 15.4504C71.083 14.3525 70.8871 13.2605 70.4804 12.2404C70.0736 11.2203 69.4644 10.2931 68.6896 9.51492C67.9147 8.73669 66.9901 8.12353 65.9718 7.71243C64.9534 7.30134 63.8623 7.10082 62.7643 7.12299C60.5498 7.12926 58.4278 8.01167 56.8618 9.57746C55.2959 11.1432 54.4132 13.2651 54.4067 15.4796C54.4064 16.0874 54.4676 16.6938 54.5894 17.2893C54.7316 17.9756 54.959 18.6415 55.2663 19.2715L55.2791 19.2998C55.3769 19.5036 55.4819 19.689 55.5824 19.8589L55.6454 19.9713C55.8665 20.3336 56.1167 20.6773 56.3936 20.9989L56.4128 21.0227C56.5443 21.1743 56.695 21.3333 56.8567 21.4922L56.9006 21.5333C57.0677 21.6914 57.2258 21.833 57.3866 21.9654L57.4021 21.9773C57.5665 22.1107 57.7456 22.2459 57.9374 22.3783L57.962 22.3993C58.1356 22.5135 58.3156 22.625 58.5101 22.7337L58.5887 22.7784C58.7851 22.8871 58.9742 22.9821 59.1523 23.0616L59.2437 23.0991C59.4565 23.1904 59.6557 23.2735 59.8566 23.343L59.8859 23.353C60.0932 23.4243 60.3061 23.4873 60.518 23.543L60.5993 23.5659C60.8122 23.6188 61.0241 23.6627 61.247 23.7011L61.3712 23.7202C61.5932 23.7559 61.8206 23.7842 62.0435 23.8043L62.1733 23.8152C62.6232 23.8591 63.0758 23.868 63.527 23.8417C63.527 23.8417 63.8121 23.8125 63.9025 23.8006L64.203 23.7577C64.3099 23.7431 64.4159 23.7285 64.5227 23.7093L65.249 23.564C65.397 23.5266 65.5431 23.4846 65.6866 23.4389C65.7651 23.4142 65.8364 23.3877 65.9067 23.3622" fill="#666666" style="fill:#666666;fill:color(display-p3 0.4000 0.4000 0.4000);fill-opacity:1;"/>
<path d="M43.2256 0.106428L34.1573 23.7129H38.8783L47.9465 0.106428H43.2256Z" fill="#666666" style="fill:#666666;fill:color(display-p3 0.4000 0.4000 0.4000);fill-opacity:1;"/>
<path d="M51.9796 0.106428L42.9123 23.7129H47.6332L56.6804 0.106428H51.9796Z" fill="#666666" style="fill:#666666;fill:color(display-p3 0.4000 0.4000 0.4000);fill-opacity:1;"/>
<path d="M25.6089 19.6159C24.7614 19.6161 23.9328 19.3649 23.228 18.8942C22.5232 18.4235 21.9738 17.7544 21.6493 16.9714C21.3248 16.1885 21.2398 15.3269 21.4049 14.4956C21.5701 13.6643 21.9781 12.9007 22.5772 12.3013C23.1764 11.7018 23.9399 11.2935 24.7711 11.128C25.6023 10.9625 26.4639 11.0472 27.247 11.3713C28.0301 11.6955 28.6995 12.2446 29.1705 12.9492C29.6415 13.6538 29.893 14.4823 29.8932 15.3298C29.8943 15.8928 29.7842 16.4505 29.5693 16.9709C29.3544 17.4913 29.0389 17.9641 28.6409 18.3623C28.2428 18.7605 27.7701 19.0762 27.2498 19.2913C26.7295 19.5064 26.1719 19.6167 25.6089 19.6159ZM25.692 6.84526C24.0256 6.84111 22.3953 7.33124 21.0075 8.25367C19.6196 9.1761 18.5364 10.4894 17.895 12.0275C17.2536 13.5655 17.0827 15.2592 17.4039 16.8944C17.7251 18.5296 18.5241 20.0328 19.6997 21.2139C20.8753 22.3951 22.3747 23.201 24.0084 23.5299C25.6421 23.8587 27.3366 23.6957 28.8776 23.0614C30.4187 22.4272 31.737 21.3502 32.6659 19.9666C33.5948 18.5831 34.0925 16.9551 34.0961 15.2887V15.2476C34.1031 14.1464 33.8928 13.0548 33.4771 12.0351C33.0615 11.0154 32.4487 10.0877 31.674 9.30523C30.8992 8.52275 29.9777 7.90083 28.9622 7.4751C27.9466 7.04937 26.8571 6.82819 25.756 6.82425C25.7369 6.83547 25.7158 6.84263 25.6938 6.84526" fill="#666666" style="fill:#666666;fill:color(display-p3 0.4000 0.4000 0.4000);fill-opacity:1;"/>
<path d="M12.1084 13.131L15.8318 10.9889C15.0941 9.70658 14.0255 8.646 12.7377 7.91804C11.4498 7.19008 9.99008 6.82147 8.51103 6.85075C7.39755 6.83916 6.29281 7.04846 5.26073 7.46654C4.22865 7.88463 3.28971 8.50321 2.49823 9.2865C1.70674 10.0698 1.07842 11.0022 0.649604 12.0299C0.220791 13.0576 -1.45724e-06 14.1601 -1.45724e-06 15.2736C-1.45724e-06 16.3872 0.220791 17.4897 0.649604 18.5173C1.07842 19.545 1.70674 20.4774 2.49823 21.2607C3.28971 22.044 4.22865 22.6626 5.26073 23.0807C6.29281 23.4988 7.39755 23.7081 8.51103 23.6965C10.0112 23.7268 11.4913 23.3473 12.7917 22.5988C14.0922 21.8503 15.1638 20.7612 15.8911 19.4487L12.1677 17.3066C11.7646 18.0345 11.1547 18.6265 10.4152 19.0079C9.67561 19.3892 8.83959 19.5427 8.01281 19.4489C7.18603 19.3551 6.40561 19.0183 5.77023 18.4811C5.13484 17.9438 4.67302 17.2302 4.44315 16.4305C4.21328 15.6308 4.22568 14.7809 4.47878 13.9883C4.73189 13.1956 5.21433 12.4958 5.86512 11.9773C6.51591 11.4588 7.30582 11.145 8.13499 11.0754C8.96415 11.0058 9.79534 11.1836 10.5235 11.5863C11.1767 11.9552 11.7229 12.4875 12.1084 13.131Z" fill="#666666" style="fill:#666666;fill:color(display-p3 0.4000 0.4000 0.4000);fill-opacity:1;"/>
</svg>
