<svg width="56" height="57" viewBox="0 0 56 57" fill="none" xmlns="http://www.w3.org/2000/svg">
<g clip-path="url(#clip0_3489_3)">
<path d="M27.9996 0.379211C12.5354 0.379211 0 12.9153 0 28.3792C0 43.8431 12.5355 56.3792 27.9996 56.3792C43.4644 56.3792 56 43.8431 56 28.3792C56 12.9153 43.4644 0.379211 27.9996 0.379211ZM34.6486 40.7072C30.6095 47.0605 23.9404 48.0739 17.7183 45.0136C13.6223 42.929 10.6682 36.9369 13.3996 32.2974C15.1667 29.2961 18.1883 29.6141 19.1031 29.5737C22.3246 29.5398 28.4564 29.6106 28.4564 29.6106C29.7022 29.6564 30.5769 30.3789 30.8725 31.109C31.0815 31.6234 31.0954 32.0796 30.8664 32.9339C30.3763 34.4188 28.7749 35.0433 27.1133 35.128C26.6906 35.1481 22.0011 35.0967 21.527 35.0815C21.0516 35.0669 20.4177 35.1351 20.4435 35.8041C20.4643 36.36 20.8926 36.4275 19.9964 39.0393C19.9847 39.0746 19.9215 39.1886 19.8972 39.2849C19.8582 39.4429 19.9216 39.6085 20.0562 39.7001C20.1935 39.796 20.4642 39.7072 20.5185 39.6848C20.6254 39.6412 20.6837 39.5835 20.7378 39.5327C21.4526 38.8471 21.5327 36.5224 21.8122 36.2504C22.1156 35.9547 22.7625 36.0643 24.3978 36.0733C24.3978 36.0733 25.7452 36.0685 26.7717 36.0733C28.8383 36.0817 31.1009 35.5189 31.859 33.0547C32.2082 31.9248 32.0379 31.1474 31.6722 30.4337C31.1537 29.4245 29.8454 28.7081 28.6564 28.6034C27.7704 28.5424 21.5284 28.5818 20.3353 28.5818C19.6736 28.586 17.1131 28.5957 16.5676 28.2134C16.4017 28.0975 16.2191 27.8539 16.2191 27.4345C16.2191 26.5858 16.6917 25.5208 17.5108 24.0938C18.6846 22.0496 23.953 14.0362 25.4364 11.4979C26.7162 9.3064 28.4487 8.61526 29.8682 9.47123C31.5432 10.4782 30.8018 12.6501 29.9433 14.0862C29.9433 14.0862 27.5449 17.9266 24.8699 22.4709C24.8158 22.5597 24.8935 22.9436 25.1898 23.1228C25.4884 23.3018 25.8909 23.2249 25.9521 23.1228C29.0137 18.0196 29.5578 17.1402 32.2844 12.6827C33.5338 10.6427 34.8915 9.38624 36.5193 10.3678C38.0158 11.2688 37.7894 12.8604 36.5193 14.9845C33.7177 19.6654 30.1478 25.537 30.0987 25.618C30.0486 25.7007 30.1326 26.0936 30.477 26.3052C30.8226 26.5163 31.1384 26.3495 31.1849 26.2726C33.5594 22.3203 36.0395 18.2557 36.3894 17.6706C37.4479 15.9004 38.8017 14.0306 40.7825 15.1932C42.6811 16.3088 41.6404 18.3446 40.6 20.095C40.3452 20.5219 37.1913 25.695 34.6312 29.9749C34.6043 30.0193 34.6951 30.4241 35.002 30.6149C35.3093 30.805 35.6877 30.6635 35.7118 30.6225C37.421 27.765 38.6094 25.8145 39.5241 24.3471C40.4391 22.8798 41.6022 21.4382 43.3681 22.4815C45.134 23.5247 44.1732 25.6653 43.5409 26.7176C42.9092 27.7676 38.6404 34.4297 34.6486 40.7072Z" fill="#666666" style="fill:#666666;fill:color(display-p3 0.4000 0.4000 0.4000);fill-opacity:1;"/>
</g>
<defs>
<clipPath id="clip0_3489_3">
<rect width="56" height="56" fill="white" style="fill:white;fill-opacity:1;" transform="translate(0 0.379211)"/>
</clipPath>
</defs>
</svg>
