<svg xmlns="http://www.w3.org/2000/svg" width="57" height="28" viewBox="0 0 57 28">
  <path fill="#666" d="M19.9955752,61.8383503 L19.9955752,34.1199999 L76.0044248,34.1199999 L48.274014,61.8383503 L19.9955752,61.8383503 Z M53.2062998,39.3295893 L47.7259822,39.3284938 L47.7259822,52.4396054 L42.9033027,39.3284938 L38.1902296,39.3284938 L34.0251882,50.2935133 C33.5867628,47.5314329 30.7369977,46.5767614 28.4352643,45.862128 C27.0103817,45.382052 25.3662864,44.6761872 25.4758928,43.9045584 C25.4758928,43.2644575 26.2431373,42.6769677 27.8872325,42.7646525 C28.983296,42.8205515 29.9697532,42.9115251 31.9426676,43.8519474 L33.9155819,40.5122421 C32.0522739,39.6090861 29.6409342,39.0380365 27.6680198,39.0358447 C25.2566801,39.0358447 23.2837657,39.7943206 22.0780959,41.0515052 C21.3108514,41.9261642 20.7628197,43.0364762 20.7628197,44.2673557 C20.7628197,45.9607739 21.4204578,47.1620595 22.6261276,48.1189227 C23.8317975,48.9245298 25.1470737,49.4495437 26.46235,49.8342626 C27.9968389,50.308858 29.2025088,50.719882 29.2025088,51.6011164 C29.2025088,51.9266474 29.0929024,52.2225845 28.8736897,52.4604307 C28.4352643,52.8539174 27.8872325,53.0029819 27.0103817,53.0216154 C25.4758928,53.0501123 24.3798293,52.8056907 22.5165213,51.7172996 L20.7628197,55.0986555 C22.6261276,56.1464923 24.8182547,56.7624798 27.0103817,56.7624798 L27.3392008,56.760288 C29.2025088,56.7252135 30.846604,56.1717019 32.0522739,55.165515 C32.1618803,55.1063279 32.1618803,55.0515243 32.2714866,54.9967215 L31.7234548,56.4687345 L36.765347,56.4687345 L37.5325915,53.917099 C38.4094423,54.2108443 39.3958995,54.3818295 40.491963,54.3818295 C41.5880265,54.3818295 42.4648773,54.2163241 43.3417282,53.9379243 L44.218579,56.4687345 L52.329449,56.4687345 L52.329449,51.1758439 L54.192757,51.1758439 C58.4674047,51.1758439 60.9883508,48.9826206 60.9883508,45.3042321 C60.9883508,41.2093382 58.5770111,39.3295893 53.2062998,39.3295893 Z M40.491963,50.5543758 C39.8343249,50.5543758 39.2862931,50.4403852 38.7382614,50.2409023 L40.491963,44.7255101 L42.2456646,50.2584388 C41.6976329,50.446962 41.1496011,50.5543758 40.491963,50.5543758 Z M53.5351189,47.3823685 L52.329449,47.3823685 L52.329449,42.9356385 L53.5351189,42.9356385 C55.1792142,42.9356385 56.4944904,43.4738053 56.4944904,45.1365341 C56.4944904,46.8463934 55.1792142,47.3823685 53.5351189,47.3823685 Z M56.6040967,61.8800001 C55.6176396,61.8800001 54.7407888,61.1116601 54.7407888,60.0671114 C54.7407888,59.0379073 55.6176396,58.281624 56.6040967,58.281624 C57.5905539,58.281624 58.4674047,59.0379073 58.4674047,60.0671114 C58.4674047,61.1116601 57.5905539,61.8800001 56.6040967,61.8800001 Z M55.1792142,60.0671114 C55.1792142,60.946154 55.8368523,61.5796787 56.6040967,61.5796787 C57.3713412,61.5796787 58.0289793,60.946154 58.0289793,60.0671114 C58.0289793,59.2198545 57.3713412,58.5742731 56.6040967,58.5742731 C55.8368523,58.5742731 55.1792142,59.2198545 55.1792142,60.0671114 Z M56.2752777,60.2172721 L56.2752777,61.1116601 L55.9464586,61.1116601 L55.9464586,59.0379073 L56.7137031,59.0379073 C57.1521285,59.0379073 57.4809476,59.2198545 57.4809476,59.6330703 C57.4809476,60.0013474 57.1521285,60.1624685 56.9329158,60.1997348 L57.4809476,61.1116601 L57.1521285,61.1116601 L56.6040967,60.2172721 L56.2752777,60.2172721 Z M56.2752777,59.9498327 L56.6040967,59.9498327 C56.8233095,59.9498327 57.1521285,59.9290074 57.1521285,59.6144368 C57.1521285,59.3524779 56.8233095,59.3020587 56.7137031,59.3020587 L56.2752777,59.3020587 L56.2752777,59.9498327 Z" transform="translate(-19 -34)"/>
</svg>
