<svg width="133" height="25" viewBox="0 0 133 25" fill="none" xmlns="http://www.w3.org/2000/svg">
<g clip-path="url(#clip0_3489_27)">
<path d="M1.42275 1.13301V9.10143H8.21068V10.4406H-3.47282e-07V1.13301H1.42275ZM14.2166 1.11088H15.6611V10.4627H14.2166V1.11088ZM24.6212 6.15754V9.10143H32.1585V10.4406H23.1984V1.13301H31.7567V2.50535H24.6212V4.81841H29.3021V6.15754H24.6212ZM46.1471 5.18363C47.1463 5.74805 47.6784 6.6113 47.7001 7.67375C47.7001 9.34491 46.5489 10.4627 44.4962 10.4627H38.5989V1.17728H44.203C46.0819 1.17728 47.0268 1.97412 47.0268 3.4682C47.0268 4.22077 46.7227 4.82947 46.1471 5.18363ZM40.0108 2.50535V4.69667H44.1704C45.0936 4.69667 45.5497 4.32038 45.5497 3.60101C45.5497 2.8595 45.0936 2.50535 44.1487 2.50535H40.0108ZM44.6374 9.10143C45.6475 9.10143 46.2122 8.52593 46.2122 7.56308C46.2122 6.63343 45.6692 6.04687 44.6374 6.04687H40.0108V9.10143H44.6374ZM63.8065 9.10143V10.4406H54.8573V1.13301H63.4264V2.50535H56.2801V4.81841H60.9719V6.15754H56.2801V9.10143H63.8065ZM73.7441 4.6856C76.6873 4.6856 78.1535 5.71485 78.1644 7.68482C78.1644 9.33384 76.6439 10.7394 74.1133 10.7394C72.3865 10.7394 70.5728 10.2303 69.0848 9.26744L69.7908 8.03897C71.1049 8.93542 72.6797 9.40024 73.9722 9.40024C75.6773 9.40024 76.6765 8.59233 76.6765 7.59628C76.6765 6.50063 75.7316 6.0358 73.831 5.99153C71.0289 5.95833 69.4758 5.55991 69.4758 3.56781C69.4758 2.02946 70.8769 0.911667 73.2445 0.911667C74.8084 0.911667 76.2746 1.34329 77.6539 2.23974L76.9263 3.44607C75.7424 2.64923 74.3523 2.2176 73.201 2.2176C71.7457 2.2176 70.8986 2.78203 70.8986 3.54567C70.8986 4.43105 71.8435 4.6856 73.7441 4.6856ZM92.8589 1.15515L89.0359 4.46425L93.4345 10.4406H91.838L88.0259 5.31643L86.147 6.94331V10.4406H84.7242V1.15515H86.147V5.28323L90.98 1.15515H92.8589ZM99.4948 1.11088H100.939V10.4627H99.4948V1.11088ZM115.047 7.67375V1.13301H116.448V10.4406H115.699L109.899 3.93303V10.4406H108.498V1.13301H109.248L115.047 7.67375ZM128.026 1.13301C131.11 1.13301 132.989 3.14725 133 5.82552C133 8.50379 131.197 10.4406 128.026 10.4406H123.975V1.13301H128.026ZM128.037 9.10143C130.317 9.10143 131.534 7.71802 131.523 5.79232C131.523 3.89982 130.198 2.47215 128.048 2.47215H125.398V9.10143H128.037ZM56.0086 20.6224C56.6168 20.6556 57.1598 20.8991 57.1598 21.7624V22.4596C57.1598 23.2675 56.443 23.6991 55.4981 23.6991H50.5456V17.8777H55.4112C56.6059 17.8777 56.9317 18.5086 56.9317 19.1726V19.6706C56.9317 20.0912 56.6928 20.5228 56.0086 20.5892V20.6224ZM51.3276 18.5307H51.3168V20.39H55.3135C55.7262 20.39 56.1606 20.2572 56.1606 19.6706V19.1394C56.1606 18.6193 55.585 18.5307 55.3461 18.5307H51.3276ZM56.3887 22.2825H56.3996V21.8509C56.3996 21.1315 56.0086 21.0208 55.3026 21.0208H51.3276V23.0572H55.4112C56.128 23.0572 56.3887 22.7916 56.3887 22.2825ZM62.4707 19.5378C63.6871 19.5378 64.5559 19.8588 64.5559 21.2975V21.7513H60.0813V22.0169C60.0813 22.9465 60.5158 23.19 61.6996 23.19H62.6336C63.4916 23.19 63.8391 23.0793 63.8717 22.4485H64.5451V22.5371C64.5451 23.4778 63.7848 23.7655 62.525 23.7655H61.2977C60.4072 23.7655 59.408 23.5995 59.408 22.0833V21.1868C59.408 19.7038 60.4289 19.5378 61.3846 19.5378H62.4707ZM63.8826 21.2201H63.8717V20.9434C63.8717 20.5339 63.5568 20.1133 62.4598 20.1133H61.4715C60.3963 20.1133 60.1356 20.2904 60.0813 21.2201H63.8826ZM69.3672 19.5378C70.6379 19.5378 71.0615 19.9584 71.0615 20.9544V21.4414H70.4316V21.2643C70.4316 20.2572 70.2252 20.0912 69.0197 20.0912H68.5961C67.8793 20.0912 67.5318 20.556 67.5318 21.0872V23.688H66.8584V19.5932H67.4883V20.1908H67.4992C67.749 19.6706 68.2594 19.5378 68.7264 19.5378H69.3672ZM73.1359 17.8888H73.9681V23.7102H73.1359V17.8888ZM76.4701 19.6153H77.3023V23.7102H76.4701V19.6153ZM76.4701 17.8888H77.3023V18.7368H76.4701V17.8888ZM82.9865 19.5378C84.2572 19.5378 84.6482 20.1908 84.6699 20.9323V23.6991H83.9966V21.0983C83.9966 20.4896 83.8228 20.1023 82.5087 20.1023H82.3349C80.7384 20.1023 80.38 20.4121 80.38 21.375V23.7102H79.7066V19.6153H80.3365V20.3125H80.3474C80.5972 19.6817 81.1293 19.5378 81.9656 19.5378H82.9865Z" fill="#666666" style="fill:#666666;fill:color(display-p3 0.4000 0.4000 0.4000);fill-opacity:1;"/>
</g>
<defs>
<clipPath id="clip0_3489_27">
<rect width="133" height="24" fill="white" style="fill:white;fill-opacity:1;" transform="translate(0 0.856445)"/>
</clipPath>
</defs>
</svg>
