<svg width="106" height="30" viewBox="0 0 106 30" fill="none" xmlns="http://www.w3.org/2000/svg">
<g clip-path="url(#clip0_3501_236)">
<path fill-rule="evenodd" clip-rule="evenodd" d="M8.42577 12.3007C8.42577 12.4075 8.47456 12.4911 8.57163 12.5513C8.669 12.6115 8.77051 12.6416 8.87655 12.6416H12.1647C12.2709 12.6416 12.3728 12.6115 12.4697 12.5513C12.567 12.4911 12.6155 12.4075 12.6155 12.3007V0.350868C12.6155 0.243712 12.567 0.160402 12.4697 0.100225C12.3728 0.0401898 12.2709 0.0101013 12.1647 0.0101013H8.87655C8.77051 0.0101013 8.669 0.0401898 8.57163 0.100225C8.47456 0.160402 8.42577 0.243712 8.42577 0.350868V12.3007Z" fill="#666666" style="fill:#666666;fill:color(display-p3 0.4000 0.4000 0.4000);fill-opacity:1;"/>
<path fill-rule="evenodd" clip-rule="evenodd" d="M0.0159076 12.3007C0.0159076 12.4075 0.0647303 12.4911 0.161808 12.5513C0.25917 12.6115 0.360647 12.6416 0.466667 12.6416H3.75482C3.86099 12.6416 3.96289 12.6115 4.05983 12.5513C4.15719 12.4911 4.20572 12.4075 4.20572 12.3007V0.350868C4.20572 0.243712 4.15719 0.160402 4.05983 0.100225C3.96289 0.0401898 3.86099 0.0101013 3.75482 0.0101013H0.466667C0.360647 0.0101013 0.25917 0.0401898 0.161808 0.100225C0.0647303 0.160402 0.0159076 0.243712 0.0159076 0.350868V12.3007Z" fill="#666666" style="fill:#666666;fill:color(display-p3 0.4000 0.4000 0.4000);fill-opacity:1;"/>
<path fill-rule="evenodd" clip-rule="evenodd" d="M12.2906 21.0638C12.3974 21.0638 12.481 21.015 12.5412 20.9179C12.6014 20.8205 12.6315 20.719 12.6315 20.6131V17.3248C12.6315 17.2187 12.6014 17.1168 12.5412 17.0199C12.481 16.9225 12.3974 16.874 12.2906 16.874H0.340766C0.233611 16.874 0.1503 16.9225 0.0901231 17.0199C0.0299462 17.1168 -3.38101e-07 17.2187 -3.38101e-07 17.3248V20.6131C-3.38101e-07 20.719 0.0299462 20.8205 0.0901231 20.9179C0.1503 21.015 0.233611 21.0638 0.340766 21.0638H12.2906Z" fill="#666666" style="fill:#666666;fill:color(display-p3 0.4000 0.4000 0.4000);fill-opacity:1;"/>
<path fill-rule="evenodd" clip-rule="evenodd" d="M12.2906 29.4732C12.3974 29.4732 12.481 29.4244 12.5412 29.3273C12.6014 29.2299 12.6315 29.1284 12.6315 29.0225V25.7343C12.6315 25.6281 12.6014 25.5262 12.5412 25.4293C12.481 25.3319 12.3974 25.2834 12.2906 25.2834H0.340766C0.233611 25.2834 0.1503 25.3319 0.0901231 25.4293C0.0299462 25.5262 -3.38101e-07 25.6281 -3.38101e-07 25.7343V29.0225C-3.38101e-07 29.1284 0.0299462 29.2299 0.0901231 29.3273C0.1503 29.4244 0.233611 29.4732 0.340766 29.4732H12.2906Z" fill="#666666" style="fill:#666666;fill:color(display-p3 0.4000 0.4000 0.4000);fill-opacity:1;"/>
<path fill-rule="evenodd" clip-rule="evenodd" d="M22.9428 17.2493L21.2794 24.3196L19.8327 17.2493C19.7844 16.9962 19.6457 16.8695 19.4169 16.8695H17.3011C17.1927 16.8695 17.1023 16.9058 17.0299 16.9781C16.9576 17.0505 16.9215 17.1409 16.9215 17.2493L19.5615 29.0751C19.6096 29.3767 19.7965 29.5273 20.1221 29.5273H22.4004C22.6535 29.5273 22.8282 29.3708 22.9248 29.057L24.2448 23.4877L25.5648 29.057C25.6612 29.3708 25.836 29.5273 26.0893 29.5273H28.3676C28.693 29.5273 28.8798 29.3767 28.928 29.0751L31.5682 17.2493C31.5682 17.1409 31.5319 17.0505 31.4596 16.9781C31.3873 16.9058 31.2969 16.8695 31.1884 16.8695H29.0728C28.8436 16.8695 28.7049 16.9962 28.6568 17.2493L27.2103 24.3196L25.5467 17.2493C25.4862 16.9962 25.3478 16.8695 25.1308 16.8695H23.3587C23.1297 16.8695 22.9908 16.9962 22.9428 17.2493ZM35.1283 26.7063C35.0076 26.5739 34.9474 26.4111 34.9474 26.218V20.1786C34.9474 19.9859 35.0076 19.8232 35.1283 19.6905C35.2487 19.5579 35.3933 19.4914 35.5622 19.4914H37.5332C37.7019 19.4914 37.8465 19.5579 37.9671 19.6905C38.0874 19.8232 38.1479 19.9859 38.1479 20.1786V26.218C38.1479 26.4111 38.0874 26.5739 37.9671 26.7063C37.8465 26.8391 37.7019 26.9053 37.5332 26.9053H35.5622C35.3933 26.9053 35.2487 26.8391 35.1283 26.7063ZM40.0104 28.6766C40.6732 28.05 41.0049 27.2725 41.0049 26.344V20.0514C41.0049 19.1354 40.6732 18.3638 40.0104 17.7369C39.3473 17.098 38.5457 16.7785 37.6055 16.7785H35.4899C34.5496 16.7785 33.7418 17.098 33.0668 17.7369C32.4159 18.3638 32.0903 19.1354 32.0903 20.0514V26.344C32.0903 27.2603 32.4159 28.0378 33.0668 28.6766C33.7297 29.3036 34.5374 29.617 35.4899 29.617H37.6055C38.5698 29.617 39.3713 29.3036 40.0104 28.6766ZM51.1365 22.7645V20.1425C51.1365 19.2265 50.8048 18.4549 50.142 17.828C49.4667 17.1892 48.6651 16.8695 47.7371 16.8695H42.7101C42.6016 16.8695 42.5112 16.9058 42.4389 16.9781C42.3666 17.0505 42.3304 17.1409 42.3304 17.2493V29.1475C42.3304 29.2559 42.3666 29.3463 42.4389 29.4187C42.5112 29.4911 42.6016 29.5273 42.7101 29.5273H44.8077C44.9161 29.5273 45.0066 29.4911 45.0789 29.4187C45.1513 29.3463 45.1874 29.2559 45.1874 29.1475V26.0373H46.9595L48.3519 29.1475C48.4843 29.4007 48.6471 29.5273 48.84 29.5273H51.1545C51.2631 29.5273 51.3535 29.4911 51.4259 29.4187C51.4981 29.3463 51.5343 29.2559 51.5343 29.1475L49.7804 25.3682C50.6845 24.7417 51.1365 23.8737 51.1365 22.7645ZM48.0986 19.7802C48.219 19.9129 48.2794 20.0757 48.2794 20.2684V22.6372C48.2794 22.818 48.219 22.978 48.0986 23.1163C47.978 23.2551 47.8274 23.3243 47.6466 23.3243H45.1873V19.5812H47.6466C47.8274 19.5812 47.978 19.6476 48.0986 19.7802ZM55.5564 17.2493C55.5564 17.1409 55.5202 17.0505 55.4479 16.9781C55.3756 16.9058 55.2852 16.8695 55.1766 16.8695H53.079C52.9706 16.8695 52.8802 16.9058 52.8078 16.9781C52.7355 17.0505 52.6994 17.1409 52.6994 17.2493V29.1475C52.6994 29.2559 52.7355 29.3463 52.8078 29.4187C52.8802 29.4911 52.9706 29.5273 53.079 29.5273H55.1766C55.2852 29.5273 55.3756 29.4911 55.4479 29.4187C55.5202 29.3463 55.5564 29.2559 55.5564 29.1475V24.5546H56.4063L58.757 29.1475C58.8894 29.4007 59.0522 29.5273 59.2451 29.5273H61.5235C61.632 29.5273 61.7224 29.4911 61.7948 29.4187C61.867 29.3463 61.9032 29.2559 61.9032 29.1475L58.9016 23.1803L61.849 17.2493C61.849 17.1409 61.8128 17.0505 61.7406 16.9781C61.6682 16.9058 61.5777 16.8695 61.4692 16.8695H59.1909C58.9858 16.8695 58.823 16.9962 58.7026 17.2493L56.4243 21.8423H55.5564V17.2493ZM70.7172 28.6766C71.38 28.05 71.7117 27.2725 71.7117 26.344V26.0548C71.7719 24.6925 71.332 23.6619 70.3918 22.9626C70.1867 22.77 69.8973 22.6132 69.5238 22.4925C69.0899 22.3238 68.7942 22.2213 68.6377 22.1852L67.6974 21.9681C67.2876 21.8717 67.0646 21.8235 67.0284 21.8235L66.486 21.6607C66.2328 21.5644 66.0702 21.4861 65.9977 21.4257C65.7446 21.1725 65.6181 20.9075 65.6181 20.63V20.178C65.6181 19.9852 65.6814 19.8225 65.8078 19.6898C65.9344 19.5572 66.0881 19.4908 66.269 19.4908H68.0411C68.2097 19.4908 68.3575 19.5572 68.484 19.6898C68.6106 19.8225 68.6739 19.9852 68.6739 20.178V20.6481C68.6739 20.7566 68.7101 20.847 68.7825 20.9193C68.8547 20.9917 68.9451 21.0279 69.0537 21.0279H71.1513C71.2597 21.0279 71.3501 20.9917 71.4224 20.9193C71.4947 20.847 71.5309 20.7566 71.5309 20.6481V20.0514C71.5309 19.1354 71.1992 18.3638 70.5364 17.7369C69.8733 17.098 69.0837 16.7785 68.1677 16.7785H66.1243C65.196 16.7785 64.3944 17.098 63.7194 17.7369C63.0563 18.3638 62.7249 19.1354 62.7249 20.0514V20.4311C62.7249 21.5282 63.026 22.4202 63.629 23.1072C64.063 23.5655 64.7438 23.9573 65.6723 24.2827C65.9734 24.3793 66.3533 24.4697 66.8114 24.5539C67.2092 24.6383 67.5528 24.7228 67.8422 24.8071C68.1192 24.8916 68.3544 25.0182 68.5473 25.1868C68.74 25.3558 68.8367 25.5606 68.8367 25.8016V26.2174C68.8367 26.4104 68.7702 26.5732 68.6377 26.7056C68.505 26.8385 68.3544 26.9047 68.1857 26.9047H66.2148C66.0459 26.9047 65.8982 26.8385 65.7718 26.7056C65.6452 26.5732 65.5819 26.4104 65.5819 26.2174V25.6388C65.5819 25.5303 65.5457 25.4399 65.4734 25.3676C65.4011 25.2953 65.3107 25.2591 65.2021 25.2591H63.1045C62.9961 25.2591 62.9057 25.2953 62.8333 25.3676C62.7611 25.4399 62.7249 25.5303 62.7249 25.6388V26.344C62.7249 27.2603 63.0503 28.032 63.7013 28.6585C64.3762 29.2976 65.1718 29.617 66.0881 29.617H68.3123C69.2526 29.617 70.0542 29.3036 70.7172 28.6766Z" fill="#666666" style="fill:#666666;fill:color(display-p3 0.4000 0.4000 0.4000);fill-opacity:1;"/>
<path fill-rule="evenodd" clip-rule="evenodd" d="M101.938 8.4398C101.832 8.4398 101.749 8.48838 101.689 8.58449C101.63 8.68096 101.6 8.78174 101.6 8.88688V12.1476C101.6 12.2528 101.63 12.3539 101.689 12.4501C101.749 12.5467 101.832 12.5947 101.938 12.5947H105.41C105.516 12.5947 105.599 12.5467 105.659 12.4501C105.718 12.3539 105.748 12.2528 105.748 12.1476V8.88688C105.748 8.78174 105.718 8.68096 105.659 8.58449C105.599 8.48838 105.516 8.4398 105.41 8.4398H101.938Z" fill="#666666" style="fill:#666666;fill:color(display-p3 0.4000 0.4000 0.4000);fill-opacity:1;"/>
<path fill-rule="evenodd" clip-rule="evenodd" d="M22.9026 0.379765L21.2391 7.44998L19.7925 0.379765C19.7442 0.126568 19.6054 -3.05176e-05 19.3766 -3.05176e-05H17.2609C17.1524 -3.05176e-05 17.062 0.0361608 16.9897 0.108543C16.9174 0.180926 16.8813 0.271333 16.8813 0.379765L19.5213 12.2055C19.5693 12.5071 19.7563 12.6577 20.0818 12.6577H22.3602C22.6134 12.6577 22.7879 12.5011 22.8846 12.1875L24.2045 6.61815L25.5246 12.1875C25.6209 12.5011 25.7958 12.6577 26.049 12.6577H28.3274C28.6528 12.6577 28.8396 12.5071 28.8878 12.2055L31.5279 0.379765C31.5279 0.271333 31.4917 0.180926 31.4194 0.108543C31.3471 0.0361608 31.2567 -3.05176e-05 31.1482 -3.05176e-05H29.0326C28.8033 -3.05176e-05 28.6647 0.126568 28.6166 0.379765L27.1701 7.44998L25.5064 0.379765C25.446 0.126568 25.3076 -3.05176e-05 25.0906 -3.05176e-05H23.3185C23.0894 -3.05176e-05 22.9506 0.126568 22.9026 0.379765ZM38.6759 12.5491C38.7483 12.6215 38.8388 12.6577 38.9472 12.6577H41.0448C41.1533 12.6577 41.2437 12.6215 41.316 12.5491C41.3883 12.4768 41.4245 12.3863 41.4245 12.2779V0.379765C41.4245 0.271333 41.3883 0.180926 41.316 0.108543C41.2437 0.0361608 41.1533 -3.05176e-05 41.0448 -3.05176e-05H38.9472C38.8388 -3.05176e-05 38.7483 0.0361608 38.6759 0.108543C38.6037 0.180926 38.5675 0.271333 38.5675 0.379765V5.17163H35.4393V0.379765C35.4393 0.271333 35.4031 0.180926 35.3307 0.108543C35.2585 0.0361608 35.1681 -3.05176e-05 35.0595 -3.05176e-05H32.962C32.8536 -3.05176e-05 32.7631 0.0361608 32.6907 0.108543C32.6184 0.180926 32.5823 0.271333 32.5823 0.379765V12.2779C32.5823 12.3863 32.6184 12.4768 32.6907 12.5491C32.7631 12.6215 32.8536 12.6577 32.962 12.6577H35.0595C35.1681 12.6577 35.2585 12.6215 35.3307 12.5491C35.4031 12.4768 35.4393 12.3863 35.4393 12.2779V7.86581H38.5675V12.2779C38.5675 12.3863 38.6037 12.4768 38.6759 12.5491ZM45.8319 0.379765L42.3782 12.2779C42.3782 12.3863 42.4144 12.4768 42.4867 12.5491C42.559 12.6215 42.6494 12.6577 42.7581 12.6577H44.9098C45.1386 12.6577 45.2774 12.5311 45.3256 12.2779L45.7596 10.6324H49.5751L50.0271 12.2779C50.0751 12.5311 50.2138 12.6577 50.4429 12.6577H52.5947C52.7033 12.6577 52.7937 12.6215 52.8659 12.5491C52.9383 12.4768 52.9745 12.3863 52.9745 12.2779L49.5207 0.379765C49.4724 0.126568 49.3278 -3.05176e-05 49.0868 -3.05176e-05H46.2659C46.0247 -3.05176e-05 45.88 0.126568 45.8319 0.379765ZM48.8517 7.93853H46.483L47.586 3.86992H47.7668L48.8517 7.93853ZM52.0579 0.108543C51.9856 0.180926 51.9494 0.271333 51.9494 0.379765V2.33267C51.9494 2.4411 51.9856 2.53151 52.0579 2.6039C52.1302 2.67628 52.2206 2.71233 52.3291 2.71233H54.8787V12.2779C54.8787 12.3863 54.9149 12.4768 54.9872 12.5491C55.0595 12.6215 55.1499 12.6577 55.2585 12.6577H57.3561C57.4645 12.6577 57.5549 12.6215 57.6273 12.5491C57.6995 12.4768 57.7357 12.3863 57.7357 12.2779V2.71233H60.2852C60.3939 2.71233 60.4843 2.67628 60.5565 2.6039C60.6289 2.53151 60.6651 2.4411 60.6651 2.33267V0.379765C60.6651 0.271333 60.6289 0.180926 60.5565 0.108543C60.4843 0.0361608 60.3939 -3.05176e-05 60.2852 -3.05176e-05H52.3291C52.2206 -3.05176e-05 52.1302 0.0361608 52.0579 0.108543ZM68.6834 7.46798C68.7919 7.46798 68.8823 7.43184 68.9546 7.35958C69.0269 7.2872 69.0632 7.19679 69.0632 7.08835V5.13544C69.0632 5.02687 69.0269 4.93646 68.9546 4.86422C68.8823 4.79184 68.7919 4.75565 68.6834 4.75565H64.5967V2.71233H69.0811C69.1898 2.71233 69.2802 2.67628 69.3524 2.6039C69.4248 2.53151 69.461 2.4411 69.461 2.33267V0.379765C69.461 0.271333 69.4248 0.180926 69.3524 0.108543C69.2802 0.0361608 69.1898 -3.05176e-05 69.0811 -3.05176e-05H62.1195C62.011 -3.05176e-05 61.9206 0.0361608 61.8483 0.108543C61.7759 0.180926 61.7398 0.271333 61.7398 0.379765V12.2779C61.7398 12.3863 61.7759 12.4768 61.8483 12.5491C61.9206 12.6215 62.011 12.6577 62.1195 12.6577H69.0811C69.1898 12.6577 69.2802 12.6215 69.3524 12.5491C69.4248 12.4768 69.461 12.3863 69.461 12.2779V10.325C69.461 10.2166 69.4248 10.1262 69.3524 10.0537C69.2802 9.98155 69.1898 9.94534 69.0811 9.94534H64.5967V7.46798H68.6834ZM77.5774 12.2779L81.0308 0.379765C81.0308 0.271333 80.9953 0.180926 80.9227 0.108543C80.8501 0.0361608 80.7598 -3.05176e-05 80.651 -3.05176e-05H78.4993C78.2705 -3.05176e-05 78.132 0.126568 78.0839 0.379765L75.8233 8.78803H75.6426L73.3823 0.379765C73.334 0.126568 73.1952 -3.05176e-05 72.9664 -3.05176e-05H70.8147C70.7061 -3.05176e-05 70.6157 0.0361608 70.5434 0.108543C70.4711 0.180926 70.4349 0.271333 70.4349 0.379765L73.8887 12.2779C73.9367 12.5311 74.081 12.6577 74.3224 12.6577H77.1435C77.3841 12.6577 77.5293 12.5311 77.5774 12.2779ZM99.9439 5.8949V3.27294C99.9439 2.35695 99.6122 1.58529 98.9487 0.958403C98.2734 0.319589 97.4723 -3.05176e-05 96.5438 -3.05176e-05H91.5169C91.4088 -3.05176e-05 91.3185 0.0361608 91.2459 0.108543C91.1734 0.180926 91.1378 0.271333 91.1378 0.379765V12.2779C91.1378 12.3863 91.1734 12.4768 91.2459 12.5491C91.3185 12.6215 91.4088 12.6577 91.5169 12.6577H93.6146C93.7234 12.6577 93.8138 12.6215 93.8863 12.5491C93.9582 12.4768 93.9944 12.3863 93.9944 12.2779V9.16773H95.7663L97.1591 12.2779C97.2916 12.5311 97.4545 12.6577 97.647 12.6577H99.9617C100.071 12.6577 100.161 12.6215 100.233 12.5491C100.305 12.4768 100.342 12.3863 100.342 12.2779L98.5874 8.49867C99.4915 7.87211 99.9439 7.00405 99.9439 5.8949ZM96.9059 2.91197C97.0258 3.04467 97.0865 3.20746 97.0865 3.4002V5.76895C97.0865 5.94977 97.0258 6.10972 96.9059 6.2481C96.7852 6.3869 96.6349 6.45602 96.4535 6.45602H93.9944V2.71299H96.4535C96.6349 2.71299 96.7852 2.77941 96.9059 2.91197Z" fill="#666666" style="fill:#666666;fill:color(display-p3 0.4000 0.4000 0.4000);fill-opacity:1;"/>
<path fill-rule="evenodd" clip-rule="evenodd" d="M88.7988 7.46798C88.9076 7.46798 88.998 7.43184 89.0705 7.35958C89.1423 7.2872 89.1786 7.19679 89.1786 7.08835V5.13544C89.1786 5.02687 89.1423 4.93646 89.0705 4.86422C88.998 4.79184 88.9076 4.75565 88.7988 4.75565H84.7123V2.71233H89.1971C89.3052 2.71233 89.3956 2.67614 89.4681 2.6039C89.5407 2.53151 89.5762 2.4411 89.5762 2.33267V0.379765C89.5762 0.271191 89.5407 0.180784 89.4681 0.108543C89.3956 0.0361608 89.3052 -3.05176e-05 89.1971 -3.05176e-05H82.2348C82.1267 -3.05176e-05 82.0363 0.0361608 81.9638 0.108543C81.8912 0.180784 81.8557 0.271191 81.8557 0.379765V12.2779C81.8557 12.3863 81.8912 12.4768 81.9638 12.5491C82.0363 12.6215 82.1267 12.6576 82.2348 12.6576H89.1971C89.3052 12.6576 89.3956 12.6215 89.4681 12.5491C89.5407 12.4768 89.5762 12.3863 89.5762 12.2779V10.325C89.5762 10.2166 89.5407 10.1262 89.4681 10.0537C89.3956 9.9814 89.3052 9.94534 89.1971 9.94534H84.7123V7.46798H88.7988Z" fill="#666666" style="fill:#666666;fill:color(display-p3 0.4000 0.4000 0.4000);fill-opacity:1;"/>
</g>
<defs>
<clipPath id="clip0_3501_236">
<rect width="105.883" height="29.6176" fill="white" style="fill:white;fill-opacity:1;"/>
</clipPath>
</defs>
</svg>
