<svg width="80" height="41" viewBox="0 0 80 41" fill="none" xmlns="http://www.w3.org/2000/svg">
<path d="M0 40.2252V0.856445H79.5501L40.1643 40.2252H0ZM47.1696 8.2557L39.3859 8.25414V26.876L32.5362 8.25414H25.8421L19.9265 23.8279C19.3038 19.9049 15.2562 18.549 11.987 17.534C9.96323 16.8521 7.6281 15.8495 7.78377 14.7536C7.78377 13.8444 8.8735 13.01 11.2086 13.1346C12.7654 13.214 14.1665 13.3432 16.9686 14.6789L19.7708 9.93544C17.1243 8.65267 13.6994 7.8416 10.8973 7.83849C7.47242 7.83849 4.67026 8.91576 2.95783 10.7014C1.86811 11.9437 1.08973 13.5206 1.08973 15.2689C1.08973 17.6741 2.02378 19.3803 3.73621 20.7393C5.44864 21.8835 7.31675 22.6292 9.18485 23.1756C11.3643 23.8497 13.0767 24.4335 13.0767 25.6851C13.0767 26.1475 12.9211 26.5678 12.6097 26.9056C11.987 27.4645 11.2086 27.6762 9.96323 27.7027C7.78377 27.7431 6.22702 27.396 3.58053 25.8501L1.08973 30.6527C3.73621 32.141 6.84972 33.0159 9.96323 33.0159L10.4303 33.0128C13.0767 32.9629 15.4119 32.1768 17.1243 30.7477C17.28 30.6636 17.28 30.5858 17.4356 30.5079L16.6573 32.5987H23.8183L24.9081 28.9745C26.1535 29.3918 27.5545 29.6346 29.1113 29.6346C30.6681 29.6346 31.9135 29.3995 33.1589 29.0041L34.4043 32.5987H45.9242V25.0811H48.5707C54.6421 25.0811 58.2226 21.966 58.2226 16.7416C58.2226 10.9255 54.7977 8.2557 47.1696 8.2557ZM29.1113 24.1984C28.1772 24.1984 27.3989 24.0365 26.6205 23.7532L29.1113 15.9196L31.6021 23.7781C30.8237 24.0459 30.0454 24.1984 29.1113 24.1984ZM47.6367 19.6932H45.9242V13.3774H47.6367C49.9718 13.3774 51.8399 14.1418 51.8399 16.5034C51.8399 18.9319 49.9718 19.6932 47.6367 19.6932ZM51.9956 40.2844C50.5945 40.2844 49.3491 39.1931 49.3491 37.7095C49.3491 36.2477 50.5945 35.1735 51.9956 35.1735C53.3967 35.1735 54.6421 36.2477 54.6421 37.7095C54.6421 39.1931 53.3967 40.2844 51.9956 40.2844ZM49.9718 37.7095C49.9718 38.958 50.9059 39.8578 51.9956 39.8578C53.0853 39.8578 54.0194 38.958 54.0194 37.7095C54.0194 36.5061 53.0853 35.5892 51.9956 35.5892C50.9059 35.5892 49.9718 36.5061 49.9718 37.7095ZM51.5286 37.9228V39.1931H51.0615V36.2477H52.1513C52.774 36.2477 53.241 36.5061 53.241 37.093C53.241 37.6161 52.774 37.8449 52.4626 37.8979L53.241 39.1931H52.774L51.9956 37.9228H51.5286ZM51.5286 37.5429H51.9956C52.3069 37.5429 52.774 37.5133 52.774 37.0665C52.774 36.6945 52.3069 36.6229 52.1513 36.6229H51.5286V37.5429Z" fill="#666666" style="fill:#666666;fill:color(display-p3 0.4000 0.4000 0.4000);fill-opacity:1;"/>
</svg>
