<svg xmlns="http://www.w3.org/2000/svg" width="96" height="96" viewBox="0 0 96 96"><g fill="none"><circle cx="48" cy="48" r="28.375" fill="#FFF"/><path fill="#999" d="M47.9995,16 C30.326125,16 16,30.327 16,48 C16,65.673 30.32625,80 47.9995,80 C65.673625,80 80,65.673 80,48 C80,30.327 65.673625,16 47.9995,16 Z M55.598375,62.089125 C50.98225,69.35 43.3605,70.50825 36.2495,67.01075 C31.568375,64.628375 28.19225,57.78025 31.313875,52.477875 C33.333375,49.047875 36.786625,49.41125 37.832125,49.365125 C41.513875,49.326375 48.521625,49.40725 48.521625,49.40725 C49.945375,49.459625 50.945,50.285375 51.282875,51.11975 C51.52175,51.707625 51.537625,52.229 51.275875,53.205375 C50.71575,54.902375 48.885625,55.616125 46.986625,55.712875 C46.5035,55.735875 41.144125,55.677125 40.60225,55.65975 C40.059,55.643125 39.3345,55.721 39.364,56.485625 C39.38775,57.120875 39.87725,57.198 38.853,60.183 C38.839625,60.22325 38.767375,60.353625 38.739625,60.463625 C38.6950392,60.6442352 38.7675405,60.8335167 38.921375,60.938125 C39.07825,61.04775 39.387625,60.94625 39.44975,60.920625 C39.571875,60.870875 39.6385,60.804875 39.700375,60.746875 C40.51725,59.96325 40.60875,57.3065 40.92825,56.995625 C41.275,56.65775 42.01425,56.783 43.88325,56.79325 C43.88325,56.79325 45.423125,56.78775 46.59625,56.79325 C48.958,56.802875 51.543875,56.159625 52.41025,53.343375 C52.809375,52.052125 52.61475,51.163625 52.19675,50.348 C51.60425,49.194625 50.109,48.375875 48.750125,48.25625 C47.737625,48.1865 40.603875,48.2315 39.240375,48.2315 C38.484125,48.236375 35.557875,48.247375 34.934375,47.8105 C34.74475,47.678 34.536125,47.399625 34.536125,46.920375 C34.536125,45.950375 35.07625,44.73325 36.012375,43.102375 C37.353875,40.766125 43.374875,31.608 45.070125,28.707125 C46.53275,26.2025 48.51275,25.412625 50.135125,26.390875 C52.049375,27.54175 51.202,30.023875 50.220875,31.665125 C50.220875,31.665125 47.479875,36.054125 44.42275,41.247625 C44.360875,41.349125 44.44975,41.787875 44.788375,41.992625 C45.129625,42.19725 45.589625,42.109375 45.6595,41.992625 C49.1585,36.1605 49.780375,35.155375 52.8965,30.061125 C54.324375,27.72975 55.876,26.29375 57.736375,27.4155 C59.446625,28.44525 59.187875,30.26425 57.736375,32.69175 C54.5345,38.041375 50.454625,44.75175 50.3985,44.844375 C50.34125,44.938875 50.43725,45.387875 50.830875,45.62975 C51.225875,45.871 51.58675,45.680375 51.639875,45.5925 C54.353625,41.0755 57.188,36.43025 57.587875,35.761625 C58.797625,33.7385 60.34475,31.601625 62.608625,32.93025 C64.778375,34.20525 63.589,36.531875 62.4,38.532375 C62.10875,39.02025 58.504375,44.932375 55.5785,49.823625 C55.54775,49.874375 55.6515,50.337 56.00225,50.555125 C56.3535,50.772375 56.786,50.610625 56.8135,50.56375 C58.766875,47.298 60.125,45.068875 61.170375,43.391875 C62.216125,41.715 63.545375,40.067375 65.5635,41.25975 C67.58175,42.452 66.483625,44.898375 65.761,46.101 C65.039125,47.301 60.1605,54.914875 55.598375,62.089125 Z"/></g></svg>