<?xml version="1.0" encoding="UTF-8"?>
<svg width="18px" height="18px" viewBox="0 0 18 18" version="1.1" xmlns="http://www.w3.org/2000/svg" xmlns:xlink="http://www.w3.org/1999/xlink">
    <!-- Generator: Sketch 46.2 (44496) - http://www.bohemiancoding.com/sketch -->
    <title>icon-linkedin</title>
    <desc>Created with Sketch.</desc>
    <defs></defs>
    <g id="Symbols" stroke="none" stroke-width="1" fill="none" fill-rule="evenodd">
        <g id="icons/icon-linkedin" transform="translate(-4.000000, -2.000000)" fill="#FFFFFF">
            <g id="icon-linkedin">
                <rect id="_bounds" fill-opacity="0" x="0" y="0" width="24" height="24"></rect>
                <path d="M7.89932173,19.3876151 L4.36860498,19.3876151 L4.36860498,7.98087785 L7.89932173,7.98087785 L7.89932173,19.3876151 Z M6.11713811,6.48708077 C4.96404406,6.48708077 4.0292583,5.5446736 4.0292583,4.38234343 C4.0292583,3.21988408 4.96417324,2.2775415 6.11713811,2.2775415 C7.27010299,2.2775415 8.20488875,3.21988408 8.20488875,4.38234343 C8.20495333,5.54473819 7.27016757,6.48708077 6.11713811,6.48708077 L6.11713811,6.48708077 Z M21.1306771,19.3876151 L17.6170762,19.3876151 L17.6170762,13.4000259 C17.6170762,11.757805 16.9932829,10.841104 15.6947361,10.841104 C14.2814806,10.841104 13.5431723,11.7958475 13.5431723,13.4000259 L13.5431723,19.3876151 L10.1568103,19.3876151 L10.1568103,7.98087785 L13.5431723,7.98087785 L13.5431723,9.51717399 C13.5431723,9.51717399 14.5617936,7.63294094 16.9804944,7.63294094 C19.3992599,7.63294094 21.1307417,9.10981589 21.1307417,12.1650339 L21.1306771,19.3876151 L21.1306771,19.3876151 Z"></path>
            </g>
        </g>
    </g>
</svg>