<?xml version="1.0" encoding="UTF-8"?>
<svg width="48px" height="48px" viewBox="0 0 48 48" version="1.1" xmlns="http://www.w3.org/2000/svg" xmlns:xlink="http://www.w3.org/1999/xlink">
    <!-- Generator: Sketch 46.2 (44496) - http://www.bohemiancoding.com/sketch -->
    <title>icon-linkedin--bg-round</title>
    <desc>Created with Sketch.</desc>
    <defs></defs>
    <g id="Symbols" stroke="none" stroke-width="1" fill="none" fill-rule="evenodd">
        <g id="icons-/-icon-linkedin--bg-round" fill-rule="nonzero" fill="#808080">
            <path d="M23.9975904,0 C37.250988,0 47.9951807,10.744 47.9952771,23.9975904 C47.9952771,37.2511807 37.2511807,47.9951807 23.9975904,47.9951807 C10.744,47.9951807 0,37.2511807 0,23.9975904 C0,10.744 10.744,0 23.9975904,0 Z M19.8993217,31.3876151 L19.8993217,19.9808778 L16.368605,19.9808778 L16.368605,31.3876151 L19.8993217,31.3876151 Z M18.1171381,18.4870808 L18.1171381,18.4870808 C19.2701676,18.4870808 20.2049533,17.5447382 20.2048887,16.3823434 C20.2048887,15.2198841 19.270103,14.2775415 18.1171381,14.2775415 C16.9641732,14.2775415 16.0292583,15.2198841 16.0292583,16.3823434 C16.0292583,17.5446736 16.9640441,18.4870808 18.1171381,18.4870808 Z M33.1306771,31.3876151 L33.1306771,31.3876151 L33.1307417,24.1650339 C33.1307417,21.1098159 31.3992599,19.6329409 28.9804944,19.6329409 C26.5617936,19.6329409 25.5431723,21.517174 25.5431723,21.517174 L25.5431723,19.9808778 L22.1568103,19.9808778 L22.1568103,31.3876151 L25.5431723,31.3876151 L25.5431723,25.4000259 C25.5431723,23.7958475 26.2814806,22.841104 27.6947361,22.841104 C28.9932829,22.841104 29.6170762,23.757805 29.6170762,25.4000259 L29.6170762,31.3876151 L33.1306771,31.3876151 Z" id="icon-linkedin--bg-round"></path>
        </g>
    </g>
</svg>