<?xml version="1.0" encoding="UTF-8"?>
<svg width="24px" height="22px" viewBox="0 0 24 22" version="1.1" xmlns="http://www.w3.org/2000/svg" xmlns:xlink="http://www.w3.org/1999/xlink">
    <!-- Generator: Sketch 46.2 (44496) - http://www.bohemiancoding.com/sketch -->
    <title>icon-iteration</title>
    <desc>Created with Sketch.</desc>
    <defs></defs>
    <g id="Page-1" stroke="none" stroke-width="1" fill="none" fill-rule="evenodd">
        <g id="noun_1098235_cc" transform="translate(0.000000, -1.000000)" fill-rule="nonzero">
            <g id="icon-iteration">
                <rect id="_bounds" fill-opacity="0" fill="#FFFFFF" transform="translate(12.000000, 12.000000) scale(-1, 1) translate(-12.000000, -12.000000) " x="0" y="0" width="24" height="24"></rect>
                <path d="M17.2207792,5.22077922 C20.961039,5.22077922 24,8.25974026 24,12 C24,15.7402597 20.961039,18.7792208 17.2207792,18.7792208 L12.9350649,18.7792208 L15.3506494,21.6233766 L14.1818182,22.6363636 L9.93506494,17.6883117 L14.1818182,12.7402597 L15.3506494,13.7532468 L12.3896104,17.2207792 L17.2207792,17.2207792 C20.1038961,17.2207792 22.4415584,14.8831169 22.4415584,12 C22.4415584,9.11688312 20.1038961,6.77922078 17.2207792,6.77922078 L17.2207792,5.22077922 Z M9.81818182,1.36363636 L14.0649351,6.31168831 L9.81818182,11.2597403 L8.64935065,10.2467532 L11.6103896,6.77922078 L6.77922078,6.77922078 C3.8961039,6.77922078 1.55844156,9.11688312 1.55844156,12 C1.55844156,14.8831169 3.8961039,17.2207792 6.77922078,17.2207792 L6.77922078,18.7792208 C3.03896104,18.7792208 1.77635684e-15,15.7402597 1.77635684e-15,12 C1.77635684e-15,8.25974026 3.03896104,5.22077922 6.77922078,5.22077922 L11.0649351,5.22077922 L8.64935065,2.37662338 L9.81818182,1.36363636 Z" id="Combined-Shape" fill="#779927"></path>
            </g>
        </g>
    </g>
</svg>