<?xml version="1.0" encoding="UTF-8"?>
<svg width="18px" height="14px" viewBox="0 0 18 14" version="1.1" xmlns="http://www.w3.org/2000/svg" xmlns:xlink="http://www.w3.org/1999/xlink">
    <!-- Generator: Sketch 46.2 (44496) - http://www.bohemiancoding.com/sketch -->
    <title>icon-email</title>
    <desc>Created with Sketch.</desc>
    <defs></defs>
    <g id="Symbols" stroke="none" stroke-width="1" fill="none" fill-rule="evenodd">
        <g id="icons/icon-email" transform="translate(-3.000000, -5.000000)" fill="#FFFFFF">
            <g id="noun_1209571_cc">
                <g id="icon-email">
                    <rect id="_bounds" fill-opacity="0" x="0" y="0" width="24" height="24"></rect>
                    <path d="M4.77920411,18.4017972 L19.2207959,18.4017972 C20.2143774,18.4017972 21,17.593068 21,16.6225931 L21,6.77920411 C21,5.78562259 20.1912709,5 19.2207959,5 L4.77920411,5 C3.78562259,5 3,5.80872914 3,6.77920411 L3,16.5994865 C3,17.593068 3.80872914,18.4017972 4.77920411,18.4017972 Z M4.29396662,15.7676508 L8.33761232,11.7240051 C8.36071887,11.7008986 8.38382542,11.7008986 8.38382542,11.677792 L4.73299101,7.72657253 C4.54813864,7.54172015 4.57124519,7.24133504 4.75609756,7.07958922 C4.94094994,6.89473684 5.24133504,6.91784339 5.40308087,7.10269576 L11.36457,13.5263158 C11.7111682,13.872914 12.2888318,13.872914 12.63543,13.5032092 L18.6200257,7.31065469 C18.804878,7.12580231 19.0821566,7.12580231 19.267009,7.28754814 C19.4518614,7.47240051 19.4518614,7.74967908 19.2901155,7.93453145 L15.6854942,11.7240051 C15.7086008,11.7471117 15.7317073,11.7471117 15.7317073,11.7702182 L19.521181,15.5596919 C19.7060334,15.7445443 19.7060334,16.0218228 19.521181,16.2066752 C19.4287548,16.2991014 19.3132221,16.3453145 19.1976893,16.3453145 C19.0821566,16.3453145 18.9666239,16.2991014 18.8741977,16.2066752 L15.0616175,12.4172015 C15.0616175,12.4172015 15.0385109,12.394095 15.0385109,12.3709884 L13.3055199,14.1732991 C12.9589217,14.5430039 12.4736842,14.7047497 12.0115533,14.7047497 C11.5494223,14.7047497 11.0641849,14.5198973 10.7175866,14.1732991 L9.00770218,12.3478819 C9.00770218,12.3478819 8.98459564,12.3709884 8.98459564,12.3709884 L4.94094994,16.4377407 C4.84852375,16.5070603 4.73299101,16.5532734 4.61745828,16.5532734 C4.50192555,16.5532734 4.38639281,16.5070603 4.29396662,16.4146341 C4.10911425,16.2528883 4.10911425,15.9525032 4.29396662,15.7676508 Z" id="Shape" fill-rule="nonzero"></path>
                </g>
            </g>
        </g>
    </g>
</svg>