<?xml version="1.0" encoding="UTF-8"?>
<svg width="48px" height="48px" viewBox="0 0 48 48" version="1.1" xmlns="http://www.w3.org/2000/svg" xmlns:xlink="http://www.w3.org/1999/xlink">
    <!-- Generator: Sketch 46.2 (44496) - http://www.bohemiancoding.com/sketch -->
    <title>icon-twitter--bg-round</title>
    <desc>Created with Sketch.</desc>
    <defs></defs>
    <g id="Symbols" stroke="none" stroke-width="1" fill="none" fill-rule="evenodd">
        <g id="icons-/-icon-twitter--bg-round" fill="#808080">
            <path d="M24,0 L24,0 C37.254834,-2.4348735e-15 48,10.745166 48,24 L48,24 C48,37.254834 37.254834,48 24,48 C10.745166,48 1.623249e-15,37.254834 0,24 L0,24 L0,24 C-1.623249e-15,10.745166 10.745166,2.4348735e-15 24,0 L24,0 Z M31.9524865,19.7979246 C32.7543243,19.2193717 33.45,18.4967751 34,17.6739155 C33.2641622,18.0001622 32.4734054,18.220795 31.6434054,18.319923 C32.4904865,17.8121758 33.1411351,17.0081256 33.4475135,16.0499784 C32.6545946,16.5201607 31.7763784,16.8615956 30.8417838,17.0455824 C30.0932973,16.2482344 29.0268649,15.75 27.8467027,15.75 C25.5808108,15.75 23.7435135,17.5869488 23.7435135,19.8527315 C23.7435135,20.174384 23.7797838,20.4874425 23.8497297,20.7879074 C20.4395676,20.6166765 17.4160541,18.9833347 15.3923243,16.5009729 C15.0391351,17.1068752 14.8367568,17.8117434 14.8367568,18.5636352 C14.8367568,19.9872083 15.5610811,21.2430638 16.6621622,21.9787405 C15.9895676,21.9574448 15.3569189,21.7728635 14.8036757,21.4655883 C14.8032432,21.4826681 14.8032432,21.4999101 14.8032432,21.5172062 C14.8032432,23.505063 16.2176757,25.1633219 18.0947568,25.5403759 C17.7504324,25.6340988 17.3879459,25.6842574 17.0137297,25.6842574 C16.7493514,25.6842574 16.4923243,25.6584755 16.2416757,25.6106951 C16.7639459,27.2405777 18.2792432,28.4270328 20.0747568,28.4600034 C18.6704324,29.5604106 16.9012432,30.2164715 14.9788108,30.2164715 C14.6476216,30.2164715 14.320973,30.1970674 14,30.1590161 C15.8159459,31.3232025 17.9727027,32.002505 20.2898919,32.002505 C27.8371892,32.002505 31.9644324,25.7504688 31.9644324,20.3286432 C31.9644324,20.1507641 31.9603784,19.9738039 31.9524865,19.7979246 Z" id="icon-twitter--bg-round"></path>
        </g>
    </g>
</svg>