<?xml version="1.0" encoding="UTF-8"?>
<svg width="21px" height="25px" viewBox="0 0 21 25" version="1.1" xmlns="http://www.w3.org/2000/svg" xmlns:xlink="http://www.w3.org/1999/xlink">
    <!-- Generator: Sketch 46.2 (44496) - http://www.bohemiancoding.com/sketch -->
    <title>icon-arrow--top</title>
    <desc>Created with Sketch.</desc>
    <defs></defs>
    <g id="Page-1" stroke="none" stroke-width="1" fill="none" fill-rule="evenodd">
        <g id="noun_1265682_cc" fill-rule="nonzero" fill="#000000">
            <g id="icon-arrow--top" transform="translate(10.500000, 12.673913) rotate(-90.000000) translate(-10.500000, -12.673913) translate(-1.500000, 2.500000)">
                <path d="M23.6256485,9.07815652 L16.3211129,0.730304348 C15.710532,0.0417391304 14.7306537,0.0373252174 14.1116416,0.575212174 C13.4926294,1.11309391 13.4189129,2.16574957 13.9569198,2.78465217 L18.9950937,8.54008696 L1.5652607,8.54008696 C0.70079113,8.54008696 -8.86956522e-06,9.24088696 -8.86956522e-06,10.1053043 C-8.86956522e-06,10.9697739 0.70079113,11.6705217 1.5652607,11.6705217 L18.9950937,11.6705217 L13.9569198,17.4259826 C13.4189129,18.0448696 13.5064816,19.0819826 14.1116416,19.6353913 C14.745612,20.2152 15.7833198,20.0993739 16.3211129,19.4803304 L23.6256485,11.1325043 C24.1384816,10.4484 24.1109181,9.67695652 23.6256485,9.07815652 Z" id="Shape"></path>
            </g>
        </g>
    </g>
</svg>