<?xml version="1.0" encoding="UTF-8"?>
<svg width="20px" height="17px" viewBox="0 0 20 17" version="1.1" xmlns="http://www.w3.org/2000/svg" xmlns:xlink="http://www.w3.org/1999/xlink">
    <!-- Generator: Sketch 46.2 (44496) - http://www.bohemiancoding.com/sketch -->
    <title>icon-twitter</title>
    <desc>Created with Sketch.</desc>
    <defs></defs>
    <g id="Symbols" stroke="none" stroke-width="1" fill="none" fill-rule="evenodd">
        <g id="icons/icon-twitter" transform="translate(-2.000000, -4.000000)" fill="#FFFFFF">
            <g id="icon-twitter">
                <rect id="_bounds" fill-opacity="0" x="0" y="0" width="24" height="24"></rect>
                <path d="M19.9524865,8.04792463 C19.9603784,8.22380386 19.9644324,8.40076408 19.9644324,8.57864316 C19.9644324,14.0004688 15.8371892,20.252505 8.28989189,20.252505 C5.9727027,20.252505 3.81594595,19.5732025 2,18.4090161 C2.32097297,18.4470674 2.64762162,18.4664715 2.97881081,18.4664715 C4.90124324,18.4664715 6.67043243,17.8104106 8.07475676,16.7100034 C6.27924324,16.6770328 4.76394595,15.4905777 4.24167568,13.8606951 C4.49232432,13.9084755 4.74935135,13.9342574 5.01372973,13.9342574 C5.38794595,13.9342574 5.75043243,13.8840988 6.09475676,13.7903759 C4.21767568,13.4133219 2.80324324,11.755063 2.80324324,9.7672062 C2.80324324,9.74991014 2.80324324,9.73266814 2.80367568,9.71558829 C3.35691892,10.0228635 3.98956757,10.2074448 4.66216216,10.2287405 C3.56108108,9.49306378 2.83675676,8.2372083 2.83675676,6.81363516 C2.83675676,6.06174338 3.03913514,5.35687523 3.39232432,4.75097293 C5.41605405,7.23333466 8.43956757,8.86667647 11.8497297,9.03790738 C11.7797838,8.73744253 11.7435135,8.424384 11.7435135,8.1027315 C11.7435135,5.83694876 13.5808108,4 15.8467027,4 C17.0268649,4 18.0932973,4.49823438 18.8417838,5.29558235 C19.7763784,5.1115956 20.6545946,4.77016074 21.4475135,4.29997839 C21.1411351,5.25812559 20.4904865,6.06217578 19.6434054,6.56992299 C20.4734054,6.470795 21.2641622,6.25016224 22,5.92391547 C21.45,6.74677512 20.7543243,7.46937171 19.9524865,8.04792463 Z"></path>
            </g>
        </g>
    </g>
</svg>