<?xml version="1.0" encoding="UTF-8"?>
<svg width="19px" height="19px" viewBox="0 0 19 19" version="1.1" xmlns="http://www.w3.org/2000/svg" xmlns:xlink="http://www.w3.org/1999/xlink">
    <!-- Generator: Sketch 46.2 (44496) - http://www.bohemiancoding.com/sketch -->
    <title>icon-hellohand</title>
    <desc>Created with Sketch.</desc>
    <defs></defs>
    <g id="Symbols" stroke="none" stroke-width="1" fill="none" fill-rule="evenodd">
        <g id="icons/icon-email" transform="translate(-2.000000, -3.000000)" fill="#FFFFFF">
            <g id="noun_23332_cc">
                <g id="icon-hellohand">
                    <rect id="_bounds" fill-opacity="0" transform="translate(12.000000, 12.000000) scale(-1, 1) translate(-12.000000, -12.000000) " x="0" y="0" width="24" height="24"></rect>
                    <path d="M17.7521019,4.12383693 C17.835224,3.65242786 17.7181401,3.30720337 17.4305512,3.1771565 C16.9692653,2.9682773 16.0807125,3.28481259 15.1354232,4.4630484 L10.4766957,10.2697584 C10.4028249,10.3617794 10.2682484,10.3766138 10.1762274,10.302743 C10.0840116,10.2288379 10.0693376,10.0944905 10.1432771,10.0020799 L13.8114053,5.43009038 C14.150067,5.00394067 14.3664435,4.56848087 14.436376,4.1718739 C14.5252,3.6681285 14.3671893,3.25884593 14.0241956,3.10356399 C13.6263472,2.92334481 12.877299,3.06724026 12.075902,4.06617832 L6.26340188,11.3108228 C6.205719,11.3828009 6.0299093,11.6018636 5.79595366,11.5298803 C5.46144644,11.4267099 5.41818279,10.8735629 5.31342751,9.53688946 C5.27509975,9.04687744 5.23162954,8.49148466 5.16512097,7.88563241 C5.03896463,6.73639801 4.03729882,5.84795208 3.22591621,5.82137854 C2.77474073,5.8069007 2.48837528,6.06973838 2.39810876,6.58166526 C2.3615625,6.78892942 2.31955681,7.0408247 2.38864242,7.30969727 C3.15190884,10.2803348 0.780946321,16.8921467 5.39470086,20.4726355 C8.04486227,22.5292851 10.957179,21.6183513 14.1501308,17.6384478 L19.4284883,11.0594488 C19.7757314,10.626778 19.9967134,10.185703 20.067539,9.78403131 C20.1561912,9.2812599 19.9985701,8.87204603 19.6562638,8.71628274 C19.2615322,8.53661312 18.5176282,8.6763943 17.7197013,9.66248704 L14.5867695,13.5674101 C14.5128644,13.6596259 14.3783222,13.6742655 14.2861064,13.6003604 C14.1940853,13.5264896 14.1792509,13.3919131 14.2531217,13.2998921 L17.3860878,9.39477422 C17.3861107,9.39464436 17.7833036,8.89967896 18.5776665,7.90987803 C19.1890021,7.1481777 19.3921807,6.56316504 19.4550376,6.20668628 C19.5403236,5.72300499 19.4186304,5.35607897 19.1296205,5.22497814 C18.6856264,5.02396843 17.820781,5.34046604 16.8822032,6.49658625 L12.507743,11.9487002 C12.4338378,12.040916 12.2992957,12.0555556 12.2070798,11.9816505 C12.1150588,11.9077797 12.1004192,11.7732375 12.1740952,11.6811821 L16.856881,5.84396664 C17.4838776,5.06293386 17.6897603,4.47739374 17.7521019,4.12383693 Z" id="Shape" fill-rule="nonzero" transform="translate(11.221717, 12.287276) scale(-1, 1) translate(-11.221717, -12.287276) "></path>
                </g>
            </g>
        </g>
    </g>
</svg>